<?xml version="1.0" encoding="UTF-8" standalone="no"?>
<!-- Created with Inkscape (http://www.inkscape.org/) -->

<svg
   width="77.546692mm"
   height="41.571556mm"
   viewBox="0 0 77.546692 41.571556"
   version="1.1"
   id="svg1"
   inkscape:version="1.3 (0e150ed6c4, 2023-07-21)"
   sodipodi:docname="binpacking.svg"
   xmlns:inkscape="http://www.inkscape.org/namespaces/inkscape"
   xmlns:sodipodi="http://sodipodi.sourceforge.net/DTD/sodipodi-0.dtd"
   xmlns="http://www.w3.org/2000/svg"
   xmlns:svg="http://www.w3.org/2000/svg">
  <sodipodi:namedview
     id="namedview1"
     pagecolor="#ffffff"
     bordercolor="#000000"
     borderopacity="0.25"
     inkscape:showpageshadow="2"
     inkscape:pageopacity="0.0"
     inkscape:pagecheckerboard="0"
     inkscape:deskcolor="#d1d1d1"
     inkscape:document-units="mm"
     inkscape:zoom="0.43829966"
     inkscape:cx="196.21279"
     inkscape:cy="360.48396"
     inkscape:window-width="1366"
     inkscape:window-height="705"
     inkscape:window-x="0"
     inkscape:window-y="26"
     inkscape:window-maximized="1"
     inkscape:current-layer="layer1" />
  <defs
     id="defs1" />
  <g
     inkscape:label="Camada 1"
     inkscape:groupmode="layer"
     id="layer1"
     transform="translate(-52.96671,-52.826188)">
    <path
       id="path49"
       d="m 60.459709,59.515084 v 34.88266 m 7.493,-34.88266 v 34.88266 m 7.492999,-34.88266 v 34.88266 m 7.514167,-34.88266 v 34.88266 m 7.492999,-34.88266 v 34.88266 M 52.96671,61.991584 h 42.460331 m -42.460331,4.99533 h 42.460331 m -42.460331,4.99533 h 42.460331 m -42.460331,4.97417 h 42.460331 m -42.460331,4.97417 h 42.460331 m -42.460331,4.99533 h 42.460331 m -42.460331,4.97417 h 42.460331"
       style="fill:none;stroke:#000000 icc-color(sRGB-IEC61966-2, 0.1, 0, 0, 0);stroke-width:0.0211667;stroke-linecap:butt;stroke-linejoin:miter;stroke-miterlimit:10;stroke-dasharray:none;stroke-opacity:1" />
    <path
       id="path50"
       style="fill:#000000 icc-color(sRGB-IEC61966-2, 0.1, 0, 0, 0);fill-opacity:1;fill-rule:nonzero;stroke:none;stroke-width:0.352778"
       d="m 76.399988,52.826233 c -0.160196,0 -0.301788,0.04439 -0.425814,0.132292 -0.09095,0.0641 -0.136426,0.115796 -0.136426,0.157096 0,0.0166 0.0052,0.03208 0.01654,0.04548 0.01344,0.0115 0.02996,0.01654 0.04961,0.01654 0.01034,0 0.02064,-0.0018 0.02894,-0.0078 0.0083,-0.0052 0.02067,-0.01761 0.03721,-0.03721 0.04651,-0.05475 0.107481,-0.09716 0.181901,-0.128157 0.07442,-0.03 0.157097,-0.04548 0.248047,-0.04548 0.126094,0 0.229448,0.03722 0.310058,0.111621 0.07958,0.07442 0.11989,0.160216 0.11989,0.256316 0,0.09405 -0.03928,0.176746 -0.115755,0.248046 -0.07442,0.06925 -0.169503,0.103353 -0.285254,0.103353 h -0.111621 c -0.0279,0 -0.04857,0.0073 -0.06201,0.02067 -0.01134,0.0114 -0.01654,0.02688 -0.01654,0.04548 0,0.0196 0.0062,0.03621 0.02067,0.04961 0.01344,0.0115 0.03514,0.01654 0.06615,0.01654 0.09612,0 0.191204,0.02275 0.285254,0.06615 0.09302,0.04134 0.165364,0.09923 0.214974,0.173633 0.04961,0.07234 0.07441,0.146742 0.07441,0.223242 0,0.11575 -0.05168,0.222227 -0.152963,0.318327 -0.102316,0.09406 -0.227374,0.140559 -0.376204,0.140559 -0.179832,0 -0.349334,-0.05892 -0.508496,-0.177766 -0.01964,-0.0168 -0.03719,-0.02481 -0.05374,-0.02481 -0.01654,0 -0.03203,0.0073 -0.04547,0.02067 -0.01135,0.0113 -0.01654,0.02484 -0.01654,0.04134 0,0.0197 0.0083,0.03724 0.0248,0.05374 0.04651,0.04959 0.129193,0.09819 0.248047,0.144694 0.120922,0.0465 0.236681,0.07028 0.347266,0.07028 0.190172,0 0.347267,-0.05891 0.471289,-0.177767 0.126088,-0.11782 0.190169,-0.256311 0.190169,-0.413411 0,-0.09922 -0.03203,-0.195288 -0.09508,-0.289388 -0.06098,-0.09301 -0.151931,-0.166408 -0.272852,-0.219108 v -5.17e-4 c 0.09922,-0.04651 0.173632,-0.108535 0.223242,-0.186035 0.05167,-0.07648 0.07855,-0.159147 0.07855,-0.248047 0,-0.13436 -0.05374,-0.2522 -0.16123,-0.3514 -0.105417,-0.09923 -0.238742,-0.148828 -0.401009,-0.148828 z m -7.522022,5.17e-4 c -0.09922,0 -0.197402,0.02481 -0.293522,0.07441 -0.09405,0.04961 -0.168462,0.117871 -0.223242,0.202571 -0.0558,0.08269 -0.08268,0.148838 -0.08268,0.198438 0,0.0165 0.0052,0.03104 0.01654,0.04134 0.01344,0.0115 0.02894,0.01654 0.04547,0.01654 0.01655,0 0.03102,-0.0044 0.04548,-0.0124 0.0083,-0.0083 0.01447,-0.02481 0.02067,-0.04961 0.02687,-0.09612 0.08372,-0.175679 0.169499,-0.239779 0.08785,-0.0661 0.1881,-0.09922 0.30179,-0.09922 0.12609,0 0.233581,0.04336 0.322461,0.128158 0.09095,0.08578 0.136426,0.185006 0.136426,0.297656 0,0.04133 -0.0083,0.08262 -0.02481,0.124024 -0.01447,0.03927 -0.04341,0.08576 -0.08682,0.140559 -0.04444,0.05271 -0.124025,0.136424 -0.239779,0.252181 -0.248046,0.24598 -0.504362,0.486791 -0.768945,0.723471 v 0.190169 h 1.256771 v -0.181901 c 0,-0.0299 -0.0072,-0.05165 -0.02067,-0.06615 -0.01137,-0.0137 -0.02688,-0.02067 -0.04547,-0.02067 -0.01962,0 -0.03617,0.0073 -0.04961,0.02067 -0.01134,0.0144 -0.01654,0.03615 -0.01654,0.06615 v 0.05374 h -0.996321 v -0.0124 c 0.190166,-0.16537 0.438214,-0.397908 0.74414,-0.698665 0.120921,-0.11782 0.204641,-0.206684 0.252181,-0.264584 0.04651,-0.05995 0.07957,-0.115764 0.09922,-0.165364 0.01859,-0.05168 0.02894,-0.107465 0.02894,-0.165365 0,-0.14263 -0.05788,-0.270783 -0.173633,-0.384473 -0.115753,-0.1127 -0.255282,-0.169498 -0.417546,-0.169498 z m -7.406266,0.02067 -0.591178,0.186035 c -0.02789,0.0113 -0.04544,0.02094 -0.05374,0.02894 -0.0083,0.0144 -0.0124,0.02794 -0.0124,0.04134 0,0.0196 0.0052,0.03621 0.01654,0.04961 0.01345,0.0115 0.02894,0.01602 0.04548,0.01602 0.0083,0 0.02169,-0.0018 0.04134,-0.0078 l 0.425813,-0.132292 v 1.65778 h -0.446484 c -0.03101,0 -0.05271,0.0062 -0.06615,0.01654 -0.01447,0.0114 -0.02067,0.02688 -0.02067,0.04548 0,0.0196 0.0062,0.03621 0.02067,0.04961 0.01344,0.0115 0.03514,0.01654 0.06615,0.01654 h 1.021126 c 0.02998,0 0.05169,-0.0051 0.06615,-0.01654 0.01347,-0.0134 0.02067,-0.03001 0.02067,-0.04961 0,-0.0186 -0.0072,-0.03408 -0.02067,-0.04548 -0.01447,-0.0105 -0.03616,-0.01654 -0.06615,-0.01654 H 61.4717 Z m 22.520589,0.02894 -0.72347,1.244369 v 0.152962 h 0.859896 v 0.413411 h -0.239779 c -0.03307,0 -0.05684,0.0062 -0.07028,0.01654 -0.01447,0.0114 -0.02067,0.02688 -0.02067,0.04548 0,0.0196 0.0062,0.03621 0.02067,0.04961 0.01344,0.0115 0.03723,0.01654 0.07028,0.01654 h 0.479558 c 0.03308,0 0.05582,-0.0051 0.07028,-0.01654 0.01347,-0.0134 0.02067,-0.03001 0.02067,-0.04961 0,-0.0186 -0.0072,-0.03408 -0.02067,-0.04548 -0.01447,-0.0105 -0.03723,-0.01654 -0.07028,-0.01654 H 84.261007 V 54.27369 h 0.107487 c 0.03308,0 0.05582,-0.0051 0.07028,-0.01654 0.01347,-0.0134 0.02067,-0.03001 0.02067,-0.04961 0,-0.0186 -0.0072,-0.03408 -0.02067,-0.04547 -0.01447,-0.0137 -0.03723,-0.02067 -0.07028,-0.02067 h -0.107487 v -1.265039 z m 6.901905,0 v 0.859896 c 0,0.0228 0.0052,0.04034 0.01654,0.05374 0.01033,0.0115 0.02582,0.01654 0.04547,0.01654 0.01344,0 0.03722,-0.0083 0.07028,-0.0248 0.134359,-0.07129 0.269754,-0.107487 0.405143,-0.107487 0.129191,0 0.236681,0.04553 0.322461,0.136426 0.08785,0.08888 0.132292,0.20567 0.132292,0.3514 0,0.17363 -0.04961,0.313165 -0.148828,0.417545 -0.09922,0.10237 -0.225308,0.152962 -0.376205,0.152962 -0.184997,0 -0.354498,-0.07235 -0.508496,-0.219108 -0.01964,-0.0186 -0.03929,-0.02894 -0.05788,-0.02894 -0.01654,0 -0.03206,0.0073 -0.04547,0.02067 -0.01135,0.0145 -0.01654,0.02897 -0.01654,0.04547 0,0.0248 0.02067,0.05372 0.06201,0.08682 0.06304,0.05786 0.136428,0.10546 0.219108,0.14056 0.112652,0.0548 0.229445,0.08268 0.3514,0.08268 0.187065,0 0.341068,-0.06304 0.46302,-0.190169 0.124024,-0.12919 0.186036,-0.295588 0.186036,-0.500228 0,-0.18706 -0.05581,-0.336939 -0.165365,-0.450619 -0.107484,-0.115737 -0.24288,-0.173632 -0.405143,-0.173632 -0.06408,0 -0.131262,0.0083 -0.202572,0.0248 -0.06925,0.0165 -0.142628,0.04028 -0.219108,0.07028 v -0.636653 h 0.777214 c 0.02998,0 0.05168,-0.0051 0.06615,-0.01654 0.01347,-0.0135 0.02067,-0.02898 0.02067,-0.04548 0,-0.0186 -0.0072,-0.03407 -0.02067,-0.04547 -0.01447,-0.0137 -0.03616,-0.02067 -0.06615,-0.02067 z m -6.831625,0.128158 h 0.06615 v 1.136881 h -0.72347 z M 58.75352,53.475806 c -0.03101,0 -0.05271,0.0073 -0.06615,0.02067 -0.01447,0.0114 -0.02067,0.0269 -0.02067,0.04547 0,0.0196 0.0062,0.03621 0.02067,0.04961 0.01344,0.0115 0.03514,0.01654 0.06615,0.01654 h 0.132291 l 0.533301,1.207162 h 0.219108 l 0.529167,-1.207162 h 0.132292 c 0.02998,0 0.05168,-0.0051 0.06615,-0.01654 0.01347,-0.0134 0.02067,-0.03001 0.02067,-0.04961 0,-0.0186 -0.0072,-0.03407 -0.02067,-0.04547 -0.01447,-0.0137 -0.03616,-0.02067 -0.06615,-0.02067 h -0.49196 c -0.031,0 -0.05271,0.0073 -0.06615,0.02067 -0.01135,0.0114 -0.01654,0.0269 -0.01654,0.04547 0,0.0196 0.0052,0.03621 0.01654,0.04961 0.01343,0.0115 0.03514,0.01654 0.06615,0.01654 h 0.219108 L 59.559672,54.6871 h -0.05788 l -0.475423,-1.079004 h 0.214974 c 0.02998,0 0.05169,-0.0051 0.06615,-0.01654 0.01347,-0.0134 0.02067,-0.03001 0.02067,-0.04961 0,-0.0186 -0.0072,-0.03407 -0.02067,-0.04547 -0.01447,-0.0137 -0.03616,-0.02067 -0.06615,-0.02067 z m 7.493082,0 c -0.03101,0 -0.0527,0.0073 -0.06614,0.02067 -0.01447,0.0114 -0.02067,0.0269 -0.02067,0.04547 0,0.0196 0.0062,0.03621 0.02067,0.04961 0.01344,0.0115 0.03513,0.01654 0.06614,0.01654 h 0.132292 l 0.533301,1.207162 h 0.219108 l 0.529167,-1.207162 h 0.132291 c 0.02998,0 0.05169,-0.0051 0.06615,-0.01654 0.01347,-0.0134 0.02067,-0.03001 0.02067,-0.04961 0,-0.0186 -0.0072,-0.03407 -0.02067,-0.04547 -0.01447,-0.0137 -0.03616,-0.02067 -0.06615,-0.02067 h -0.491959 c -0.03101,0 -0.05271,0.0073 -0.06615,0.02067 -0.01135,0.0114 -0.01654,0.0269 -0.01654,0.04547 0,0.0196 0.0052,0.03621 0.01654,0.04961 0.01344,0.0115 0.03514,0.01654 0.06615,0.01654 H 67.51991 L 67.052755,54.6871 h -0.05788 l -0.475423,-1.079004 h 0.214974 c 0.02998,0 0.05169,-0.0051 0.06615,-0.01654 0.01347,-0.0134 0.02067,-0.03001 0.02067,-0.04961 0,-0.0186 -0.0072,-0.03407 -0.02067,-0.04547 -0.01447,-0.0137 -0.03616,-0.02067 -0.06615,-0.02067 z m 7.493083,0 c -0.03101,0 -0.05271,0.0073 -0.06615,0.02067 -0.01447,0.0114 -0.02067,0.0269 -0.02067,0.04547 0,0.0196 0.0062,0.03621 0.02067,0.04961 0.01344,0.0115 0.03514,0.01654 0.06615,0.01654 h 0.132292 l 0.533301,1.207162 h 0.219108 l 0.529166,-1.207162 h 0.132292 c 0.02998,0 0.05169,-0.0051 0.06615,-0.01654 0.01347,-0.0134 0.02067,-0.03001 0.02067,-0.04961 0,-0.0186 -0.0072,-0.03407 -0.02067,-0.04547 -0.01447,-0.0137 -0.03616,-0.02067 -0.06615,-0.02067 h -0.49196 c -0.03101,0 -0.05271,0.0073 -0.06615,0.02067 -0.01134,0.0114 -0.01654,0.0269 -0.01654,0.04547 0,0.0196 0.0052,0.03621 0.01654,0.04961 0.01344,0.0115 0.03514,0.01654 0.06615,0.01654 h 0.219108 L 74.545837,54.6871 h -0.05788 l -0.475423,-1.079004 h 0.214974 c 0.02998,0 0.05168,-0.0051 0.06614,-0.01654 0.01347,-0.0134 0.02067,-0.03001 0.02067,-0.04961 0,-0.0186 -0.0072,-0.03407 -0.02067,-0.04547 -0.01447,-0.0137 -0.03615,-0.02067 -0.06614,-0.02067 z m 7.493083,0 c -0.03101,0 -0.05271,0.0073 -0.06615,0.02067 -0.01447,0.0114 -0.02067,0.0269 -0.02067,0.04547 0,0.0196 0.0062,0.03621 0.02067,0.04961 0.01344,0.0115 0.03514,0.01654 0.06615,0.01654 h 0.132291 l 0.533301,1.207162 h 0.219108 l 0.529167,-1.207162 h 0.132292 c 0.02998,0 0.05169,-0.0051 0.06615,-0.01654 0.01347,-0.0134 0.02067,-0.03001 0.02067,-0.04961 0,-0.0186 -0.0072,-0.03407 -0.02067,-0.04547 -0.01447,-0.0137 -0.03616,-0.02067 -0.06615,-0.02067 h -0.49196 c -0.03101,0 -0.05271,0.0073 -0.06615,0.02067 -0.01134,0.0114 -0.01654,0.0269 -0.01654,0.04547 0,0.0196 0.0052,0.03621 0.01654,0.04961 0.01344,0.0115 0.03514,0.01654 0.06615,0.01654 h 0.219108 L 82.03892,54.6871 h -0.05788 l -0.475423,-1.079004 h 0.214974 c 0.02998,0 0.05169,-0.0051 0.06615,-0.01654 0.01347,-0.0134 0.02067,-0.03001 0.02067,-0.04961 0,-0.0186 -0.0072,-0.03407 -0.02067,-0.04547 -0.01448,-0.0137 -0.03616,-0.02067 -0.06615,-0.02067 z m 7.492049,0 c -0.03101,0 -0.05271,0.0073 -0.06615,0.02067 -0.01447,0.0114 -0.02067,0.0269 -0.02067,0.04547 0,0.0196 0.0062,0.03621 0.02067,0.04961 0.01344,0.0115 0.03514,0.01654 0.06615,0.01654 h 0.132292 l 0.5333,1.207162 h 0.219108 l 0.529167,-1.207162 h 0.132292 c 0.02998,0 0.05169,-0.0051 0.06615,-0.01654 0.01347,-0.0134 0.02067,-0.03001 0.02067,-0.04961 0,-0.0186 -0.0072,-0.03407 -0.02067,-0.04547 -0.01447,-0.0137 -0.03616,-0.02067 -0.06615,-0.02067 h -0.49196 c -0.03101,0 -0.05271,0.0073 -0.06615,0.02067 -0.01135,0.0114 -0.01654,0.0269 -0.01654,0.04547 0,0.0196 0.0052,0.03621 0.01654,0.04961 0.01344,0.0115 0.03514,0.01654 0.06615,0.01654 h 0.219108 L 89.530969,54.6871 h -0.05788 l -0.475424,-1.079004 h 0.214974 c 0.02998,0 0.05169,-0.0051 0.06615,-0.01654 0.01347,-0.0134 0.02067,-0.03001 0.02067,-0.04961 0,-0.0186 -0.0072,-0.03407 -0.02067,-0.04547 -0.01447,-0.0137 -0.03616,-0.02067 -0.06615,-0.02067 z M 68.877966,56.63737 c -0.09922,0 -0.197402,0.02481 -0.293522,0.07441 -0.09405,0.04961 -0.168462,0.117874 -0.223242,0.202571 -0.0558,0.08268 -0.08268,0.148838 -0.08268,0.198438 0,0.0165 0.0052,0.03104 0.01654,0.04134 0.01344,0.0115 0.02894,0.01654 0.04547,0.01654 0.01655,0 0.03102,-0.0044 0.04548,-0.0124 0.0083,-0.0083 0.01447,-0.02481 0.02067,-0.04961 0.02687,-0.09612 0.08372,-0.175679 0.169499,-0.239779 0.08785,-0.0661 0.1881,-0.09922 0.30179,-0.09922 0.12609,0 0.233581,0.04336 0.322461,0.128158 0.09095,0.08578 0.136426,0.185006 0.136426,0.297656 0,0.04133 -0.0083,0.08262 -0.02481,0.124024 -0.01447,0.03927 -0.04341,0.08576 -0.08682,0.14056 -0.04444,0.05271 -0.124025,0.136421 -0.239779,0.252181 -0.248046,0.245977 -0.504362,0.48679 -0.768945,0.72347 v 0.190169 h 1.256771 v -0.181901 c 0,-0.0299 -0.0072,-0.05165 -0.02067,-0.06615 -0.01137,-0.0137 -0.02688,-0.02067 -0.04547,-0.02067 -0.01962,0 -0.03617,0.0073 -0.04961,0.02067 -0.01134,0.0144 -0.01654,0.03615 -0.01654,0.06615 v 0.05374 h -0.996321 v -0.0124 c 0.190166,-0.16537 0.438214,-0.397908 0.74414,-0.698665 0.120921,-0.11782 0.204641,-0.206684 0.252181,-0.264584 0.04651,-0.05994 0.07957,-0.115764 0.09922,-0.165364 0.01859,-0.05168 0.02894,-0.107465 0.02894,-0.165365 0,-0.14263 -0.05788,-0.270783 -0.173633,-0.384473 C 69.179759,56.694175 69.04023,56.63737 68.877966,56.63737 Z m 14.986166,0 c -0.09922,0 -0.197405,0.02481 -0.293522,0.07441 -0.09405,0.04961 -0.168463,0.117874 -0.223243,0.202571 -0.0558,0.08268 -0.08268,0.148838 -0.08268,0.198438 0,0.0165 0.0052,0.03104 0.01654,0.04134 0.01345,0.0115 0.02895,0.01654 0.04547,0.01654 0.01655,0 0.03102,-0.0044 0.04548,-0.0124 0.0082,-0.0083 0.01447,-0.02481 0.02067,-0.04961 0.02687,-0.09612 0.08372,-0.175679 0.169498,-0.239779 0.08785,-0.0661 0.188102,-0.09922 0.301791,-0.09922 0.12609,0 0.233581,0.04336 0.322461,0.128158 0.09095,0.08578 0.136425,0.185006 0.136425,0.297656 0,0.04133 -0.0083,0.08262 -0.0248,0.124024 -0.01447,0.03927 -0.04341,0.08576 -0.08682,0.14056 -0.04444,0.05271 -0.124025,0.136421 -0.239778,0.252181 -0.248049,0.245977 -0.504363,0.48679 -0.768946,0.72347 v 0.190169 h 1.256771 v -0.181901 c 0,-0.0299 -0.0072,-0.05165 -0.02067,-0.06615 -0.01136,-0.0137 -0.02689,-0.02067 -0.04548,-0.02067 -0.01962,0 -0.03617,0.0073 -0.04961,0.02067 -0.01135,0.0144 -0.01654,0.03615 -0.01654,0.06615 v 0.05374 h -0.996322 v -0.0124 c 0.190168,-0.16537 0.438219,-0.397908 0.744141,-0.698665 0.120922,-0.11782 0.204641,-0.206684 0.252181,-0.264584 0.04651,-0.05994 0.07957,-0.115764 0.09922,-0.165364 0.01859,-0.05168 0.02894,-0.107465 0.02894,-0.165365 0,-0.14263 -0.05788,-0.270783 -0.173633,-0.384473 -0.115753,-0.112695 -0.255281,-0.169498 -0.417545,-0.169498 z m 7.493082,0 c -0.09922,0 -0.197402,0.02481 -0.293522,0.07441 -0.09405,0.04961 -0.168462,0.117874 -0.223242,0.202571 -0.0558,0.08268 -0.08268,0.148838 -0.08268,0.198438 0,0.0165 0.0052,0.03104 0.01654,0.04134 0.01344,0.0115 0.02894,0.01654 0.04547,0.01654 0.01655,0 0.03102,-0.0044 0.04548,-0.0124 0.0082,-0.0083 0.01447,-0.02481 0.02067,-0.04961 0.02688,-0.09612 0.08372,-0.175679 0.169499,-0.239779 0.08785,-0.0661 0.188104,-0.09922 0.30179,-0.09922 0.12609,0 0.233581,0.04336 0.322461,0.128158 0.09096,0.08578 0.136426,0.185006 0.136426,0.297656 0,0.04133 -0.0083,0.08262 -0.02481,0.124024 -0.01446,0.03927 -0.04341,0.08576 -0.08682,0.14056 -0.04444,0.05271 -0.124026,0.136421 -0.239779,0.252181 -0.248046,0.245977 -0.504361,0.48679 -0.768945,0.72347 v 0.190169 h 1.256771 v -0.181901 c 0,-0.0299 -0.0072,-0.05165 -0.02067,-0.06615 -0.01137,-0.0137 -0.02688,-0.02067 -0.04547,-0.02067 -0.01962,0 -0.03617,0.0073 -0.04961,0.02067 -0.01135,0.0144 -0.01654,0.03615 -0.01654,0.06615 v 0.05374 h -0.996321 v -0.0124 c 0.190169,-0.16537 0.438218,-0.397908 0.74414,-0.698665 0.120922,-0.11782 0.204641,-0.206684 0.252181,-0.264584 0.04651,-0.05994 0.07957,-0.115764 0.09922,-0.165364 0.01859,-0.05168 0.02894,-0.107465 0.02894,-0.165365 0,-0.14263 -0.05788,-0.270783 -0.173633,-0.384473 C 91.659003,56.694175 91.519477,56.63737 91.357214,56.63737 Z M 61.4717,56.65804 60.880522,56.844076 c -0.02789,0.0113 -0.04544,0.02094 -0.05374,0.02894 -0.0083,0.0144 -0.0124,0.02794 -0.0124,0.04134 0,0.0196 0.0052,0.03621 0.01654,0.04961 0.01345,0.0115 0.02894,0.01602 0.04548,0.01602 0.0083,0 0.02169,-0.0018 0.04134,-0.0078 l 0.425813,-0.132292 v 1.65778 h -0.446484 c -0.03101,0 -0.05271,0.0062 -0.06615,0.01654 -0.01447,0.0114 -0.02067,0.02688 -0.02067,0.04548 0,0.0196 0.0062,0.03621 0.02067,0.04961 0.01344,0.0115 0.03514,0.01654 0.06615,0.01654 h 1.021126 c 0.02998,0 0.05169,-0.0051 0.06615,-0.01654 0.01347,-0.0134 0.02067,-0.03001 0.02067,-0.04961 0,-0.0186 -0.0072,-0.03408 -0.02067,-0.04548 -0.01447,-0.0105 -0.03616,-0.01654 -0.06615,-0.01654 H 61.4717 Z m 14.986165,0 -0.591178,0.186036 c -0.02793,0.0113 -0.04544,0.02094 -0.05374,0.02894 -0.0083,0.0144 -0.0124,0.02794 -0.0124,0.04134 0,0.0196 0.0052,0.03621 0.01654,0.04961 0.01345,0.0115 0.02894,0.01602 0.04548,0.01602 0.0083,0 0.02169,-0.0018 0.04134,-0.0078 l 0.425814,-0.132292 v 1.65778 h -0.446485 c -0.03101,0 -0.05271,0.0062 -0.06615,0.01654 -0.01447,0.0114 -0.02067,0.02688 -0.02067,0.04548 0,0.0196 0.0062,0.03621 0.02067,0.04961 0.01344,0.0115 0.03514,0.01654 0.06615,0.01654 h 1.021127 c 0.02998,0 0.05169,-0.0051 0.06615,-0.01654 0.01347,-0.0134 0.02067,-0.03001 0.02067,-0.04961 0,-0.0186 -0.0072,-0.03408 -0.02067,-0.04548 -0.01447,-0.0105 -0.03616,-0.01654 -0.06615,-0.01654 h -0.446485 z m -16.476513,0.595313 c -0.06925,0 -0.146761,0.02275 -0.231511,0.06615 -0.08268,0.04444 -0.209805,0.142622 -0.380338,0.293522 V 57.28643 h -0.367936 c -0.03307,0 -0.05684,0.0073 -0.07028,0.02067 -0.01135,0.0114 -0.01654,0.02688 -0.01654,0.04548 0,0.0196 0.0062,0.03621 0.02067,0.04961 0.01344,0.0115 0.03514,0.01654 0.06615,0.01654 h 0.239778 v 1.083138 h -0.314192 c -0.03307,0 -0.05684,0.0062 -0.07028,0.01654 -0.01135,0.0114 -0.01654,0.02688 -0.01654,0.04548 0,0.0166 0.0062,0.03207 0.02067,0.04547 0.01344,0.0115 0.03514,0.01654 0.06615,0.01654 h 1.016992 c 0.03307,0 0.05582,-0.0051 0.07028,-0.01654 0.01347,-0.0134 0.02067,-0.03001 0.02067,-0.04961 0,-0.0186 -0.0072,-0.03408 -0.02067,-0.04548 -0.01447,-0.0105 -0.03723,-0.01654 -0.07028,-0.01654 h -0.574642 v -0.711067 c 0.198437,-0.1757 0.336925,-0.28633 0.417545,-0.33073 0.07958,-0.0465 0.146762,-0.07028 0.202572,-0.07028 0.02687,0 0.05375,0.0073 0.07855,0.02067 0.02687,0.0114 0.05891,0.03518 0.09508,0.07028 0.01862,0.0227 0.03101,0.03521 0.03721,0.03721 0.0083,0.003 0.01758,0.0041 0.02894,0.0041 0.0186,0 0.03515,-0.0051 0.04961,-0.01654 0.01347,-0.0134 0.02067,-0.03001 0.02067,-0.04961 0,-0.02689 -0.03514,-0.06719 -0.103353,-0.119889 -0.06615,-0.0517 -0.138494,-0.07855 -0.214974,-0.07855 z m 7.493082,0 c -0.06925,0 -0.14676,0.02275 -0.23151,0.06615 -0.08268,0.04444 -0.209807,0.142622 -0.380339,0.293522 V 57.28643 h -0.367936 c -0.03307,0 -0.05684,0.0073 -0.07028,0.02067 -0.01135,0.0114 -0.01654,0.02688 -0.01654,0.04548 0,0.0196 0.0062,0.03621 0.02067,0.04961 0.01344,0.0115 0.03514,0.01654 0.06615,0.01654 h 0.239779 v 1.083138 h -0.314193 c -0.03307,0 -0.05684,0.0062 -0.07028,0.01654 -0.01135,0.0114 -0.01654,0.02688 -0.01654,0.04548 0,0.0166 0.0062,0.03207 0.02067,0.04547 0.01344,0.0115 0.03514,0.01654 0.06615,0.01654 h 1.016992 c 0.03307,0 0.05582,-0.0051 0.07028,-0.01654 0.01347,-0.0134 0.02067,-0.03001 0.02067,-0.04961 0,-0.0186 -0.0072,-0.03408 -0.02067,-0.04548 -0.01447,-0.0105 -0.03723,-0.01654 -0.07028,-0.01654 h -0.574642 v -0.711067 c 0.198438,-0.1757 0.336936,-0.28633 0.417546,-0.33073 0.07958,-0.0465 0.146762,-0.07028 0.202572,-0.07028 0.02687,0 0.05375,0.0073 0.07855,0.02067 0.02687,0.0114 0.05891,0.03518 0.09508,0.07028 0.01862,0.0227 0.03101,0.03521 0.03721,0.03721 0.0083,0.003 0.01758,0.0041 0.02894,0.0041 0.0186,0 0.03515,-0.0051 0.04961,-0.01654 0.01347,-0.0134 0.02067,-0.03001 0.02067,-0.04961 0,-0.02689 -0.03514,-0.06719 -0.103353,-0.119889 -0.06615,-0.0517 -0.138494,-0.07855 -0.214974,-0.07855 z m 7.493083,0 c -0.06925,0 -0.14676,0.02275 -0.23151,0.06615 -0.08268,0.04444 -0.209806,0.142622 -0.380339,0.293522 V 57.28643 h -0.367936 c -0.03308,0 -0.05684,0.0073 -0.07028,0.02067 -0.01135,0.0114 -0.01654,0.02688 -0.01654,0.04548 0,0.0196 0.0062,0.03621 0.02067,0.04961 0.01344,0.0115 0.03514,0.01654 0.06615,0.01654 h 0.239779 v 1.083138 h -0.314193 c -0.03307,0 -0.05684,0.0062 -0.07028,0.01654 -0.01134,0.0114 -0.01654,0.02688 -0.01654,0.04548 0,0.0166 0.0062,0.03207 0.02067,0.04547 0.01344,0.0115 0.03514,0.01654 0.06615,0.01654 h 1.016992 c 0.03307,0 0.05582,-0.0051 0.07028,-0.01654 0.01347,-0.0134 0.02067,-0.03001 0.02067,-0.04961 0,-0.0186 -0.0072,-0.03408 -0.02067,-0.04548 -0.01447,-0.0105 -0.03722,-0.01654 -0.07028,-0.01654 h -0.574642 v -0.711067 c 0.198437,-0.1757 0.336926,-0.28633 0.417546,-0.33073 0.07958,-0.0465 0.146761,-0.07028 0.202571,-0.07028 0.02687,0 0.05375,0.0073 0.07855,0.02067 0.02687,0.0114 0.05891,0.03518 0.09508,0.07028 0.01862,0.0227 0.03101,0.03521 0.03721,0.03721 0.0083,0.003 0.01758,0.0041 0.02894,0.0041 0.0186,0 0.03515,-0.0051 0.04961,-0.01654 0.01347,-0.0134 0.02067,-0.03001 0.02067,-0.04961 0,-0.02689 -0.03514,-0.06719 -0.103353,-0.119889 -0.06615,-0.0517 -0.138494,-0.07855 -0.214974,-0.07855 z m 7.493083,0 c -0.06925,0 -0.146761,0.02275 -0.231511,0.06615 -0.08268,0.04444 -0.209805,0.142622 -0.380338,0.293522 V 57.28643 h -0.367936 c -0.03307,0 -0.05684,0.0073 -0.07028,0.02067 -0.01135,0.0114 -0.01654,0.02688 -0.01654,0.04548 0,0.0196 0.0062,0.03621 0.02067,0.04961 0.01344,0.0115 0.03514,0.01654 0.06615,0.01654 h 0.239778 v 1.083138 h -0.314192 c -0.03307,0 -0.05684,0.0062 -0.07028,0.01654 -0.01135,0.0114 -0.01654,0.02688 -0.01654,0.04548 0,0.0166 0.0062,0.03207 0.02067,0.04547 0.01344,0.0115 0.03514,0.01654 0.06615,0.01654 h 1.016992 c 0.03307,0 0.05582,-0.0051 0.07028,-0.01654 0.01347,-0.0134 0.02067,-0.03001 0.02067,-0.04961 0,-0.0186 -0.0072,-0.03408 -0.02067,-0.04548 -0.01447,-0.0105 -0.03723,-0.01654 -0.07028,-0.01654 h -0.574642 v -0.711067 c 0.198438,-0.1757 0.336935,-0.28633 0.417545,-0.33073 0.07958,-0.0465 0.146762,-0.07028 0.202572,-0.07028 0.02687,0 0.05375,0.0073 0.07855,0.02067 0.02687,0.0114 0.05891,0.03518 0.09508,0.07028 0.01862,0.0227 0.03101,0.03521 0.03721,0.03721 0.0083,0.003 0.01758,0.0041 0.02894,0.0041 0.0186,0 0.03515,-0.0051 0.04961,-0.01654 0.01347,-0.0134 0.02067,-0.03001 0.02067,-0.04961 0,-0.02689 -0.03514,-0.06719 -0.103353,-0.119889 -0.06615,-0.0517 -0.138494,-0.07855 -0.214974,-0.07855 z m 7.492049,0 c -0.06925,0 -0.146763,0.02275 -0.23151,0.06615 -0.08268,0.04444 -0.209806,0.142622 -0.380339,0.293522 V 57.28643 h -0.367936 c -0.03307,0 -0.05684,0.0073 -0.07028,0.02067 -0.01135,0.0114 -0.01654,0.02688 -0.01654,0.04548 0,0.0196 0.0062,0.03621 0.02067,0.04961 0.01343,0.0115 0.03514,0.01654 0.06615,0.01654 h 0.239778 v 1.083138 H 88.89845 c -0.03307,0 -0.05684,0.0062 -0.07028,0.01654 -0.01135,0.0114 -0.01654,0.02688 -0.01654,0.04548 0,0.0166 0.0062,0.03207 0.02067,0.04547 0.01344,0.0115 0.03514,0.01654 0.06615,0.01654 h 1.016992 c 0.03307,0 0.05582,-0.0051 0.07028,-0.01654 0.01347,-0.0134 0.02067,-0.03001 0.02067,-0.04961 0,-0.0186 -0.0072,-0.03408 -0.02067,-0.04548 -0.01447,-0.0105 -0.03722,-0.01654 -0.07028,-0.01654 H 89.3408 v -0.711067 c 0.198437,-0.1757 0.336926,-0.28633 0.417546,-0.33073 0.07958,-0.0465 0.146761,-0.07028 0.202571,-0.07028 0.02688,0 0.05375,0.0073 0.07855,0.02067 0.02687,0.0114 0.05891,0.03518 0.09508,0.07028 0.01862,0.0227 0.03101,0.03521 0.03721,0.03721 0.0083,0.003 0.01758,0.0041 0.02894,0.0041 0.0186,0 0.03515,-0.0051 0.04961,-0.01654 0.01347,-0.0134 0.02067,-0.03001 0.02067,-0.04961 0,-0.02689 -0.03514,-0.06719 -0.103353,-0.119889 -0.06615,-0.0517 -0.138494,-0.07855 -0.214974,-0.07855 z" />
    <path
       id="path51"
       d="m 60.459709,61.991584 v 9.99066 m -0.994833,-9.99066 h 2.010833 m -2.010833,9.99066 h 2.010833 m 6.477,-4.99533 v 9.9695 m -0.973667,-9.9695 h 1.989667 m -1.989667,9.9695 h 1.989667 m 6.476999,-4.97417 v 9.94834 m -0.973666,-9.94834 h 1.989666 m -1.989666,9.94834 h 1.989666 m 6.498167,-4.97417 v 9.9695 m -0.994834,-9.9695 h 1.989667 m -1.989667,9.9695 h 1.989667 m 6.498166,0 v 4.97417 m -0.994833,-4.97417 h 1.989667 m -1.989667,4.97417 h 1.989667"
       style="fill:none;stroke:#000000 icc-color(sRGB-IEC61966-2, 0.1, 0, 0, 0);stroke-width:0.432858;stroke-linecap:round;stroke-linejoin:round;stroke-miterlimit:10;stroke-dasharray:none;stroke-opacity:1" />
    <path
       id="path52"
       d="m 105.13199,61.625244 v 0.32659 c 0.17054,-0.15089 0.29766,-0.24908 0.38034,-0.29352 0.0847,-0.0434 0.16227,-0.0661 0.23151,-0.0661 0.0765,0 0.14883,0.0269 0.21498,0.0786 0.0682,0.0527 0.10335,0.093 0.10335,0.11989 0,0.0196 -0.007,0.0362 -0.0207,0.0496 -0.0145,0.0114 -0.031,0.0165 -0.0496,0.0165 -0.0114,0 -0.0207,-10e-4 -0.0289,-0.004 -0.006,-0.002 -0.0186,-0.0145 -0.0372,-0.0372 -0.0362,-0.0351 -0.0682,-0.0589 -0.0951,-0.0703 -0.0248,-0.0134 -0.0517,-0.0207 -0.0785,-0.0207 -0.0558,0 -0.12299,0.0238 -0.20257,0.0703 -0.0806,0.0444 -0.21911,0.15503 -0.41755,0.33073 v 0.71107 h 0.57465 c 0.0331,0 0.0558,0.006 0.0703,0.0165 0.0134,0.0114 0.0207,0.0269 0.0207,0.0455 0,0.0196 -0.007,0.0362 -0.0207,0.0496 -0.0145,0.0114 -0.0372,0.0165 -0.0703,0.0165 h -1.017 c -0.031,0 -0.0527,-0.005 -0.0661,-0.0165 -0.0145,-0.0134 -0.0207,-0.0289 -0.0207,-0.0455 0,-0.0186 0.005,-0.0341 0.0165,-0.0455 0.0134,-0.0103 0.0372,-0.0165 0.0703,-0.0165 h 0.3142 v -1.08313 h -0.23978 c -0.031,0 -0.0527,-0.005 -0.0662,-0.0165 -0.0145,-0.0134 -0.0207,-0.03 -0.0207,-0.0496 0,-0.0186 0.005,-0.0341 0.0165,-0.0455 0.0134,-0.0134 0.0372,-0.0207 0.0703,-0.0207 z m 2.12391,-0.62839 v 1.83968 h 0.44648 c 0.03,0 0.0517,0.006 0.0661,0.0165 0.0134,0.0114 0.0207,0.0269 0.0207,0.0455 0,0.0196 -0.007,0.0362 -0.0207,0.0496 -0.0145,0.0114 -0.0362,0.0165 -0.0661,0.0165 h -1.02113 c -0.031,0 -0.0527,-0.005 -0.0662,-0.0165 -0.0145,-0.0134 -0.0207,-0.03 -0.0207,-0.0496 0,-0.0186 0.006,-0.0341 0.0207,-0.0455 0.0134,-0.0103 0.0351,-0.0165 0.0662,-0.0165 h 0.44649 v -1.65778 l -0.42582,0.13229 c -0.0196,0.006 -0.0331,0.008 -0.0413,0.008 -0.0165,0 -0.032,-0.005 -0.0455,-0.0165 -0.0114,-0.0134 -0.0165,-0.03 -0.0165,-0.0496 0,-0.0134 0.004,-0.0269 0.0124,-0.0413 0.008,-0.008 0.0258,-0.0176 0.0537,-0.0289 z m 4.4328,0.89297 h -1.41387 c -0.031,0 -0.0527,-0.005 -0.0661,-0.0165 -0.0145,-0.0134 -0.0207,-0.03 -0.0207,-0.0496 0,-0.0186 0.006,-0.0341 0.0207,-0.0455 0.0134,-0.0134 0.0351,-0.0207 0.0661,-0.0207 h 1.41387 c 0.0331,0 0.0548,0.007 0.0662,0.0207 0.0134,0.0114 0.0207,0.0269 0.0207,0.0455 0,0.0196 -0.007,0.0362 -0.0207,0.0496 -0.0114,0.0114 -0.0331,0.0165 -0.0662,0.0165 z m 0,0.46715 h -1.41387 c -0.031,0 -0.0527,-0.005 -0.0661,-0.0165 -0.0145,-0.0134 -0.0207,-0.03 -0.0207,-0.0496 0,-0.0186 0.006,-0.0341 0.0207,-0.0455 0.0134,-0.0134 0.0351,-0.0207 0.0661,-0.0207 h 1.41387 c 0.0331,0 0.0548,0.007 0.0662,0.0207 0.0134,0.0114 0.0207,0.0269 0.0207,0.0455 0,0.0196 -0.007,0.0362 -0.0207,0.0496 -0.0114,0.0114 -0.0331,0.0165 -0.0662,0.0165 z m 3.14296,-1.36012 v 1.83968 h 0.44648 c 0.03,0 0.0517,0.006 0.0662,0.0165 0.0134,0.0114 0.0207,0.0269 0.0207,0.0455 0,0.0196 -0.007,0.0362 -0.0207,0.0496 -0.0145,0.0114 -0.0362,0.0165 -0.0662,0.0165 h -1.02112 c -0.031,0 -0.0527,-0.005 -0.0661,-0.0165 -0.0145,-0.0134 -0.0207,-0.03 -0.0207,-0.0496 0,-0.0186 0.006,-0.0341 0.0207,-0.0455 0.0134,-0.0103 0.0351,-0.0165 0.0661,-0.0165 h 0.44648 v -1.65778 l -0.42581,0.13229 c -0.0196,0.006 -0.0331,0.008 -0.0413,0.008 -0.0165,0 -0.032,-0.005 -0.0455,-0.0165 -0.0114,-0.0134 -0.0165,-0.03 -0.0165,-0.0496 0,-0.0134 0.004,-0.0269 0.0124,-0.0413 0.008,-0.008 0.0258,-0.0176 0.0537,-0.0289 z m 2.43809,0.83923 v 0.31832 c 0,0.28112 -0.0662,0.50333 -0.19843,0.66559 -0.10542,0.12713 -0.23771,0.19017 -0.39688,0.19017 -0.0744,0 -0.14676,-0.0155 -0.21497,-0.0455 -0.0661,-0.03 -0.12299,-0.0724 -0.1695,-0.12816 -0.031,-0.0331 -0.0641,-0.0868 -0.0992,-0.16123 -0.0362,-0.0765 -0.062,-0.14573 -0.0785,-0.20671 -0.0227,-0.0909 -0.0331,-0.19533 -0.0331,-0.31419 v -0.31832 c 0,-0.28112 0.0661,-0.5023 0.19844,-0.6656 0.10438,-0.12919 0.23564,-0.1943 0.39274,-0.1943 0.0765,0 0.14883,0.0155 0.21497,0.0455 0.0682,0.031 0.12609,0.0734 0.17363,0.12816 0.03,0.0362 0.0631,0.093 0.0992,0.1695 0.0351,0.0744 0.062,0.14263 0.0786,0.20257 0.0217,0.0889 0.0331,0.19327 0.0331,0.3142 z m -0.12815,0.0165 c 0,-0.12402 -0.0186,-0.23771 -0.0537,-0.34313 -0.0331,-0.10439 -0.0724,-0.1881 -0.11576,-0.25218 -0.0279,-0.0351 -0.061,-0.0672 -0.0992,-0.0951 -0.061,-0.0351 -0.12712,-0.0537 -0.19843,-0.0537 -0.14677,0 -0.26045,0.0744 -0.34314,0.22324 -0.0827,0.14883 -0.12402,0.32246 -0.12402,0.5209 v 0.28526 c 0,0.12195 0.0165,0.23564 0.0496,0.34313 0.0351,0.10542 0.0755,0.18913 0.11989,0.25218 0.0248,0.0362 0.0579,0.0661 0.0992,0.091 0.0579,0.0393 0.12402,0.0579 0.19844,0.0579 0.14572,0 0.26045,-0.0744 0.34313,-0.22325 0.0827,-0.14882 0.12402,-0.32246 0.12402,-0.52089 z m -12.00961,4.747 v 0.32659 c 0.17054,-0.15089 0.29766,-0.24908 0.38034,-0.29352 0.0847,-0.0434 0.16227,-0.0661 0.23151,-0.0661 0.0765,0 0.14883,0.0269 0.21498,0.0785 0.0682,0.0527 0.10335,0.093 0.10335,0.11989 0,0.0196 -0.007,0.0362 -0.0207,0.0496 -0.0145,0.0114 -0.031,0.0165 -0.0496,0.0165 -0.0114,0 -0.0207,-0.001 -0.0289,-0.004 -0.006,-0.002 -0.0186,-0.0145 -0.0372,-0.0372 -0.0362,-0.0351 -0.0682,-0.0589 -0.0951,-0.0703 -0.0248,-0.0134 -0.0517,-0.0207 -0.0785,-0.0207 -0.0558,0 -0.12299,0.0238 -0.20257,0.0703 -0.0806,0.0444 -0.21911,0.15503 -0.41755,0.33073 v 0.71106 h 0.57465 c 0.0331,0 0.0558,0.006 0.0703,0.0165 0.0134,0.0114 0.0207,0.0269 0.0207,0.0455 0,0.0196 -0.007,0.0362 -0.0207,0.0496 -0.0145,0.0114 -0.0372,0.0165 -0.0703,0.0165 h -1.017 c -0.031,0 -0.0527,-0.005 -0.0661,-0.0165 -0.0145,-0.0134 -0.0207,-0.0289 -0.0207,-0.0455 0,-0.0186 0.005,-0.0341 0.0165,-0.0455 0.0134,-0.0103 0.0372,-0.0165 0.0703,-0.0165 h 0.3142 v -1.08314 h -0.23978 c -0.031,0 -0.0527,-0.005 -0.0662,-0.0165 -0.0145,-0.0134 -0.0207,-0.03 -0.0207,-0.0496 0,-0.0186 0.005,-0.0341 0.0165,-0.0455 0.0134,-0.0134 0.0372,-0.0207 0.0703,-0.0207 z m 1.50379,1.21129 h 0.99632 v -0.0537 c 0,-0.03 0.005,-0.0517 0.0165,-0.0661 0.0134,-0.0134 0.03,-0.0207 0.0496,-0.0207 0.0186,0 0.0341,0.007 0.0455,0.0207 0.0134,0.0145 0.0207,0.0362 0.0207,0.0661 v 0.1819 h -1.25677 v -0.19017 c 0.26458,-0.23668 0.5209,-0.47749 0.76894,-0.72347 0.11576,-0.11575 0.19534,-0.19947 0.23978,-0.25218 0.0434,-0.0548 0.0724,-0.10128 0.0868,-0.14056 0.0165,-0.0413 0.0248,-0.0827 0.0248,-0.12402 0,-0.11266 -0.0455,-0.21188 -0.13642,-0.29766 -0.0889,-0.0848 -0.19637,-0.12816 -0.32246,-0.12816 -0.11369,0 -0.21394,0.0331 -0.30179,0.0992 -0.0858,0.0641 -0.14263,0.14366 -0.1695,0.23978 -0.006,0.0248 -0.0124,0.0413 -0.0207,0.0496 -0.0145,0.008 -0.0289,0.0124 -0.0455,0.0124 -0.0165,0 -0.032,-0.005 -0.0455,-0.0165 -0.0114,-0.0103 -0.0165,-0.0248 -0.0165,-0.0413 0,-0.0496 0.0269,-0.11576 0.0827,-0.19844 0.0548,-0.0847 0.12919,-0.15296 0.22324,-0.20257 0.0961,-0.0496 0.1943,-0.0744 0.29352,-0.0744 0.16227,0 0.30179,0.0568 0.41755,0.1695 0.11575,0.11369 0.17363,0.24185 0.17363,0.38447 0,0.0579 -0.0103,0.11369 -0.0289,0.16537 -0.0196,0.0496 -0.0527,0.10542 -0.0992,0.16536 -0.0475,0.0579 -0.13126,0.14676 -0.25218,0.26459 -0.30592,0.30075 -0.55397,0.5333 -0.74414,0.69866 z m 5.05292,-0.94671 h -1.41387 c -0.031,0 -0.0527,-0.005 -0.0661,-0.0165 -0.0145,-0.0134 -0.0207,-0.03 -0.0207,-0.0496 0,-0.0186 0.006,-0.0341 0.0207,-0.0455 0.0134,-0.0134 0.0351,-0.0207 0.0661,-0.0207 h 1.41387 c 0.0331,0 0.0548,0.007 0.0662,0.0207 0.0134,0.0114 0.0207,0.0269 0.0207,0.0455 0,0.0196 -0.007,0.0362 -0.0207,0.0496 -0.0114,0.0114 -0.0331,0.0165 -0.0662,0.0165 z m 0,0.46716 h -1.41387 c -0.031,0 -0.0527,-0.005 -0.0661,-0.0165 -0.0145,-0.0134 -0.0207,-0.03 -0.0207,-0.0496 0,-0.0186 0.006,-0.0341 0.0207,-0.0455 0.0134,-0.0134 0.0351,-0.0207 0.0661,-0.0207 h 1.41387 c 0.0331,0 0.0548,0.007 0.0662,0.0207 0.0134,0.0114 0.0207,0.0269 0.0207,0.0455 0,0.0196 -0.007,0.0362 -0.0207,0.0496 -0.0114,0.0114 -0.0331,0.0165 -0.0662,0.0165 z m 2.52284,0.47955 h 0.99633 v -0.0537 c 0,-0.03 0.005,-0.0517 0.0165,-0.0661 0.0134,-0.0134 0.03,-0.0207 0.0496,-0.0207 0.0186,0 0.0341,0.007 0.0455,0.0207 0.0134,0.0145 0.0207,0.0362 0.0207,0.0661 v 0.1819 h -1.25678 v -0.19017 c 0.26459,-0.23668 0.5209,-0.47749 0.76895,-0.72347 0.11576,-0.11575 0.19534,-0.19947 0.23978,-0.25218 0.0434,-0.0548 0.0724,-0.10128 0.0868,-0.14056 0.0165,-0.0413 0.0248,-0.0827 0.0248,-0.12402 0,-0.11266 -0.0455,-0.21188 -0.13643,-0.29766 -0.0889,-0.0848 -0.19637,-0.12816 -0.32246,-0.12816 -0.11369,0 -0.21394,0.0331 -0.30179,0.0992 -0.0858,0.0641 -0.14263,0.14366 -0.1695,0.23978 -0.006,0.0248 -0.0124,0.0413 -0.0207,0.0496 -0.0145,0.008 -0.0289,0.0124 -0.0455,0.0124 -0.0165,0 -0.032,-0.005 -0.0455,-0.0165 -0.0114,-0.0103 -0.0165,-0.0248 -0.0165,-0.0413 0,-0.0496 0.0269,-0.11576 0.0827,-0.19844 0.0548,-0.0847 0.12919,-0.15296 0.22324,-0.20257 0.0961,-0.0496 0.19431,-0.0744 0.29353,-0.0744 0.16226,0 0.30179,0.0568 0.41754,0.1695 0.11576,0.11369 0.17364,0.24185 0.17364,0.38447 0,0.0579 -0.0103,0.11369 -0.0289,0.16537 -0.0196,0.0496 -0.0527,0.10542 -0.0992,0.16536 -0.0475,0.0579 -0.13126,0.14676 -0.25219,0.26459 -0.30592,0.30075 -0.55397,0.5333 -0.74414,0.69866 z m 3.05821,-1.00045 v 0.31833 c 0,0.28112 -0.0662,0.50332 -0.19843,0.66559 -0.10542,0.12712 -0.23771,0.19017 -0.39688,0.19017 -0.0744,0 -0.14676,-0.0155 -0.21497,-0.0455 -0.0661,-0.03 -0.12299,-0.0724 -0.1695,-0.12816 -0.031,-0.0331 -0.0641,-0.0868 -0.0992,-0.16123 -0.0362,-0.0765 -0.062,-0.14572 -0.0785,-0.2067 -0.0227,-0.0909 -0.0331,-0.19534 -0.0331,-0.31419 v -0.31833 c 0,-0.28112 0.0661,-0.5023 0.19844,-0.66559 0.10438,-0.1292 0.23564,-0.19431 0.39274,-0.19431 0.0765,0 0.14883,0.0155 0.21497,0.0455 0.0682,0.031 0.12609,0.0734 0.17363,0.12816 0.03,0.0362 0.0631,0.093 0.0992,0.16949 0.0351,0.0744 0.062,0.14263 0.0786,0.20258 0.0217,0.0889 0.0331,0.19327 0.0331,0.31419 z m -0.12815,0.0165 c 0,-0.12402 -0.0186,-0.23771 -0.0537,-0.34313 -0.0331,-0.10438 -0.0724,-0.1881 -0.11576,-0.25218 -0.0279,-0.0351 -0.061,-0.0672 -0.0992,-0.0951 -0.061,-0.0351 -0.12712,-0.0538 -0.19843,-0.0538 -0.14677,0 -0.26045,0.0744 -0.34314,0.22324 -0.0827,0.14883 -0.12402,0.32247 -0.12402,0.5209 v 0.28526 c 0,0.12195 0.0165,0.23564 0.0496,0.34313 0.0351,0.10542 0.0755,0.18913 0.11989,0.25218 0.0248,0.0362 0.0579,0.0661 0.0992,0.0909 0.0579,0.0393 0.12402,0.0579 0.19844,0.0579 0.14572,0 0.26045,-0.0744 0.34313,-0.22324 0.0827,-0.14883 0.12402,-0.32247 0.12402,-0.5209 z m -12.00961,4.747 v 0.3266 c 0.17054,-0.1509 0.29766,-0.24908 0.38034,-0.29353 0.0847,-0.0434 0.16227,-0.0661 0.23151,-0.0661 0.0765,0 0.14883,0.0269 0.21498,0.0785 0.0682,0.0527 0.10335,0.093 0.10335,0.11989 0,0.0196 -0.007,0.0362 -0.0207,0.0496 -0.0145,0.0114 -0.031,0.0165 -0.0496,0.0165 -0.0114,0 -0.0207,-0.001 -0.0289,-0.004 -0.006,-0.002 -0.0186,-0.0145 -0.0372,-0.0372 -0.0362,-0.0351 -0.0682,-0.0589 -0.0951,-0.0703 -0.0248,-0.0134 -0.0517,-0.0207 -0.0785,-0.0207 -0.0558,0 -0.12299,0.0238 -0.20257,0.0703 -0.0806,0.0444 -0.21911,0.15503 -0.41755,0.33073 v 0.71107 h 0.57465 c 0.0331,0 0.0558,0.006 0.0703,0.0165 0.0134,0.0114 0.0207,0.0269 0.0207,0.0455 0,0.0196 -0.007,0.0362 -0.0207,0.0496 -0.0145,0.0114 -0.0372,0.0165 -0.0703,0.0165 h -1.017 c -0.031,0 -0.0527,-0.005 -0.0661,-0.0165 -0.0145,-0.0134 -0.0207,-0.0289 -0.0207,-0.0455 0,-0.0186 0.005,-0.0341 0.0165,-0.0455 0.0134,-0.0103 0.0372,-0.0165 0.0703,-0.0165 h 0.3142 v -1.08314 h -0.23978 c -0.031,0 -0.0527,-0.005 -0.0662,-0.0165 -0.0145,-0.0134 -0.0207,-0.03 -0.0207,-0.0496 0,-0.0186 0.005,-0.0341 0.0165,-0.0455 0.0134,-0.0134 0.0372,-0.0207 0.0703,-0.0207 z m 2.12391,-0.62838 v 1.83968 h 0.44648 c 0.03,0 0.0517,0.006 0.0661,0.0165 0.0134,0.0114 0.0207,0.0269 0.0207,0.0455 0,0.0196 -0.007,0.0362 -0.0207,0.0496 -0.0145,0.0114 -0.0362,0.0165 -0.0661,0.0165 h -1.02113 c -0.031,0 -0.0527,-0.005 -0.0662,-0.0165 -0.0145,-0.0134 -0.0207,-0.03 -0.0207,-0.0496 0,-0.0186 0.006,-0.0341 0.0207,-0.0455 0.0134,-0.0103 0.0351,-0.0165 0.0662,-0.0165 h 0.44649 v -1.65778 l -0.42582,0.13229 c -0.0196,0.006 -0.0331,0.008 -0.0413,0.008 -0.0165,0 -0.032,-0.005 -0.0455,-0.0165 -0.0114,-0.0134 -0.0165,-0.03 -0.0165,-0.0496 0,-0.0134 0.004,-0.0269 0.0124,-0.0413 0.008,-0.008 0.0258,-0.0176 0.0537,-0.0289 z m 4.4328,0.89296 h -1.41387 c -0.031,0 -0.0527,-0.005 -0.0661,-0.0165 -0.0145,-0.0134 -0.0207,-0.03 -0.0207,-0.0496 0,-0.0186 0.006,-0.0341 0.0207,-0.0455 0.0134,-0.0134 0.0351,-0.0207 0.0661,-0.0207 h 1.41387 c 0.0331,0 0.0548,0.007 0.0662,0.0207 0.0134,0.0114 0.0207,0.0269 0.0207,0.0455 0,0.0196 -0.007,0.0362 -0.0207,0.0496 -0.0114,0.0114 -0.0331,0.0165 -0.0662,0.0165 z m 0,0.46716 h -1.41387 c -0.031,0 -0.0527,-0.005 -0.0661,-0.0165 -0.0145,-0.0134 -0.0207,-0.03 -0.0207,-0.0496 0,-0.0186 0.006,-0.0341 0.0207,-0.0455 0.0134,-0.0134 0.0351,-0.0207 0.0661,-0.0207 h 1.41387 c 0.0331,0 0.0548,0.007 0.0662,0.0207 0.0134,0.0114 0.0207,0.0269 0.0207,0.0455 0,0.0196 -0.007,0.0362 -0.0207,0.0496 -0.0114,0.0114 -0.0331,0.0165 -0.0662,0.0165 z m 2.92385,-0.73174 v 0.3266 c 0.17053,-0.1509 0.29766,-0.24908 0.38034,-0.29353 0.0847,-0.0434 0.16227,-0.0661 0.23151,-0.0661 0.0765,0 0.14883,0.0269 0.21498,0.0785 0.0682,0.0527 0.10335,0.093 0.10335,0.11989 0,0.0196 -0.007,0.0362 -0.0207,0.0496 -0.0145,0.0114 -0.031,0.0165 -0.0496,0.0165 -0.0114,0 -0.0207,-0.001 -0.0289,-0.004 -0.006,-0.002 -0.0186,-0.0145 -0.0372,-0.0372 -0.0362,-0.0351 -0.0682,-0.0589 -0.0951,-0.0703 -0.0248,-0.0134 -0.0517,-0.0207 -0.0786,-0.0207 -0.0558,0 -0.12299,0.0238 -0.20257,0.0703 -0.0806,0.0444 -0.21911,0.15503 -0.41755,0.33073 v 0.71107 h 0.57464 c 0.0331,0 0.0558,0.006 0.0703,0.0165 0.0134,0.0114 0.0207,0.0269 0.0207,0.0455 0,0.0196 -0.007,0.0362 -0.0207,0.0496 -0.0145,0.0114 -0.0372,0.0165 -0.0703,0.0165 h -1.01699 c -0.031,0 -0.0527,-0.005 -0.0661,-0.0165 -0.0145,-0.0134 -0.0207,-0.0289 -0.0207,-0.0455 0,-0.0186 0.005,-0.0341 0.0165,-0.0455 0.0134,-0.0103 0.0372,-0.0165 0.0703,-0.0165 h 0.31419 v -1.08314 h -0.23978 c -0.031,0 -0.0527,-0.005 -0.0661,-0.0165 -0.0145,-0.0134 -0.0207,-0.03 -0.0207,-0.0496 0,-0.0186 0.005,-0.0341 0.0165,-0.0455 0.0134,-0.0134 0.0372,-0.0207 0.0703,-0.0207 z m 2.1239,-0.62838 v 1.83968 h 0.44649 c 0.03,0 0.0517,0.006 0.0661,0.0165 0.0134,0.0114 0.0207,0.0269 0.0207,0.0455 0,0.0196 -0.007,0.0362 -0.0207,0.0496 -0.0145,0.0114 -0.0362,0.0165 -0.0661,0.0165 h -1.02113 c -0.031,0 -0.0527,-0.005 -0.0661,-0.0165 -0.0145,-0.0134 -0.0207,-0.03 -0.0207,-0.0496 0,-0.0186 0.006,-0.0341 0.0207,-0.0455 0.0134,-0.0103 0.0351,-0.0165 0.0661,-0.0165 h 0.44649 v -1.65778 l -0.42582,0.13229 c -0.0196,0.006 -0.0331,0.008 -0.0413,0.008 -0.0165,0 -0.032,-0.005 -0.0455,-0.0165 -0.0114,-0.0134 -0.0165,-0.03 -0.0165,-0.0496 0,-0.0134 0.004,-0.0269 0.0124,-0.0413 0.008,-0.008 0.0258,-0.0176 0.0537,-0.0289 z m 3.79202,1.12861 v 0.64906 c 0,0.031 -0.007,0.0527 -0.0207,0.0661 -0.0114,0.0145 -0.0269,0.0207 -0.0455,0.0207 -0.0196,0 -0.0362,-0.006 -0.0496,-0.0207 -0.0114,-0.0134 -0.0165,-0.0351 -0.0165,-0.0661 v -0.64906 h -0.57464 c -0.031,0 -0.0527,-0.005 -0.0661,-0.0165 -0.0145,-0.0134 -0.0207,-0.03 -0.0207,-0.0496 0,-0.0186 0.006,-0.0341 0.0207,-0.0455 0.0134,-0.0134 0.0351,-0.0207 0.0661,-0.0207 h 0.57464 v -0.64492 c 0,-0.03 0.005,-0.0517 0.0165,-0.0662 0.0134,-0.0134 0.03,-0.0207 0.0496,-0.0207 0.0186,0 0.0341,0.007 0.0455,0.0207 0.0134,0.0145 0.0207,0.0362 0.0207,0.0662 v 0.64492 h 0.57464 c 0.03,0 0.0517,0.007 0.0661,0.0207 0.0134,0.0114 0.0207,0.0269 0.0207,0.0455 0,0.0196 -0.007,0.0362 -0.0207,0.0496 -0.0145,0.0114 -0.0362,0.0165 -0.0661,0.0165 z m 3.56464,-0.50023 v 0.3266 c 0.17053,-0.1509 0.29766,-0.24908 0.38034,-0.29353 0.0847,-0.0434 0.16226,-0.0661 0.23151,-0.0661 0.0765,0 0.14883,0.0269 0.21497,0.0785 0.0682,0.0527 0.10336,0.093 0.10336,0.11989 0,0.0196 -0.007,0.0362 -0.0207,0.0496 -0.0145,0.0114 -0.031,0.0165 -0.0496,0.0165 -0.0114,0 -0.0207,-0.001 -0.0289,-0.004 -0.006,-0.002 -0.0186,-0.0145 -0.0372,-0.0372 -0.0362,-0.0351 -0.0682,-0.0589 -0.0951,-0.0703 -0.0248,-0.0134 -0.0517,-0.0207 -0.0786,-0.0207 -0.0558,0 -0.12299,0.0238 -0.20258,0.0703 -0.0806,0.0444 -0.2191,0.15503 -0.41754,0.33073 v 0.71107 h 0.57464 c 0.0331,0 0.0558,0.006 0.0703,0.0165 0.0134,0.0114 0.0207,0.0269 0.0207,0.0455 0,0.0196 -0.007,0.0362 -0.0207,0.0496 -0.0145,0.0114 -0.0372,0.0165 -0.0703,0.0165 h -1.01699 c -0.031,0 -0.0527,-0.005 -0.0661,-0.0165 -0.0145,-0.0134 -0.0207,-0.0289 -0.0207,-0.0455 0,-0.0186 0.005,-0.0341 0.0165,-0.0455 0.0134,-0.0103 0.0372,-0.0165 0.0703,-0.0165 h 0.31419 v -1.08314 h -0.23977 c -0.031,0 -0.0527,-0.005 -0.0661,-0.0165 -0.0145,-0.0134 -0.0207,-0.03 -0.0207,-0.0496 0,-0.0186 0.005,-0.0341 0.0165,-0.0455 0.0134,-0.0134 0.0372,-0.0207 0.0703,-0.0207 z m 1.48311,1.2113 h 0.99633 v -0.0537 c 0,-0.03 0.005,-0.0517 0.0165,-0.0661 0.0134,-0.0134 0.03,-0.0207 0.0496,-0.0207 0.0186,0 0.0341,0.007 0.0455,0.0207 0.0134,0.0145 0.0207,0.0362 0.0207,0.0661 v 0.1819 h -1.25678 v -0.19016 c 0.26459,-0.23668 0.5209,-0.47749 0.76895,-0.72347 0.11576,-0.11576 0.19534,-0.19948 0.23978,-0.25219 0.0434,-0.0548 0.0724,-0.10128 0.0868,-0.14056 0.0165,-0.0413 0.0248,-0.0827 0.0248,-0.12402 0,-0.11265 -0.0455,-0.21187 -0.13643,-0.29766 -0.0889,-0.0847 -0.19637,-0.12815 -0.32246,-0.12815 -0.11369,0 -0.21394,0.0331 -0.30179,0.0992 -0.0858,0.0641 -0.14263,0.14366 -0.1695,0.23977 -0.006,0.0248 -0.0124,0.0413 -0.0207,0.0496 -0.0145,0.008 -0.0289,0.0124 -0.0455,0.0124 -0.0165,0 -0.032,-0.005 -0.0455,-0.0165 -0.0114,-0.0103 -0.0165,-0.0248 -0.0165,-0.0413 0,-0.0496 0.0269,-0.11575 0.0827,-0.19844 0.0548,-0.0847 0.12919,-0.15296 0.22324,-0.20257 0.0961,-0.0496 0.19431,-0.0744 0.29353,-0.0744 0.16226,0 0.30179,0.0568 0.41754,0.1695 0.11576,0.11369 0.17364,0.24184 0.17364,0.38447 0,0.0579 -0.0103,0.11369 -0.0289,0.16536 -0.0196,0.0496 -0.0527,0.10542 -0.0992,0.16537 -0.0475,0.0579 -0.13126,0.14676 -0.25219,0.26458 -0.30592,0.30076 -0.55397,0.5333 -0.74414,0.69867 z m -20.44423,3.78375 v 0.32659 c 0.17054,-0.15089 0.29766,-0.24908 0.38034,-0.29352 0.0847,-0.0434 0.16227,-0.0661 0.23151,-0.0661 0.0765,0 0.14883,0.0269 0.21498,0.0786 0.0682,0.0527 0.10335,0.093 0.10335,0.11989 0,0.0196 -0.007,0.0362 -0.0207,0.0496 -0.0145,0.0114 -0.031,0.0165 -0.0496,0.0165 -0.0114,0 -0.0207,-0.001 -0.0289,-0.004 -0.006,-0.002 -0.0186,-0.0145 -0.0372,-0.0372 -0.0362,-0.0351 -0.0682,-0.0589 -0.0951,-0.0703 -0.0248,-0.0134 -0.0517,-0.0207 -0.0785,-0.0207 -0.0558,0 -0.12299,0.0238 -0.20257,0.0703 -0.0806,0.0444 -0.21911,0.15503 -0.41755,0.33073 v 0.71107 h 0.57465 c 0.0331,0 0.0558,0.006 0.0703,0.0165 0.0134,0.0114 0.0207,0.0269 0.0207,0.0455 0,0.0196 -0.007,0.0362 -0.0207,0.0496 -0.0145,0.0114 -0.0372,0.0165 -0.0703,0.0165 h -1.017 c -0.031,0 -0.0527,-0.005 -0.0661,-0.0165 -0.0145,-0.0134 -0.0207,-0.0289 -0.0207,-0.0455 0,-0.0186 0.005,-0.0341 0.0165,-0.0455 0.0134,-0.0103 0.0372,-0.0165 0.0703,-0.0165 h 0.3142 v -1.08313 h -0.23978 c -0.031,0 -0.0527,-0.005 -0.0662,-0.0165 -0.0145,-0.0134 -0.0207,-0.03 -0.0207,-0.0496 0,-0.0186 0.005,-0.0341 0.0165,-0.0455 0.0134,-0.0134 0.0372,-0.0207 0.0703,-0.0207 z m 1.50379,1.21129 h 0.99632 v -0.0537 c 0,-0.03 0.005,-0.0517 0.0165,-0.0661 0.0134,-0.0134 0.03,-0.0207 0.0496,-0.0207 0.0186,0 0.0341,0.007 0.0455,0.0207 0.0134,0.0145 0.0207,0.0362 0.0207,0.0661 v 0.1819 h -1.25677 v -0.19017 c 0.26458,-0.23668 0.5209,-0.47749 0.76894,-0.72347 0.11576,-0.11576 0.19534,-0.19947 0.23978,-0.25218 0.0434,-0.0548 0.0724,-0.10129 0.0868,-0.14056 0.0165,-0.0413 0.0248,-0.0827 0.0248,-0.12403 0,-0.11265 -0.0455,-0.21187 -0.13642,-0.29765 -0.0889,-0.0848 -0.19637,-0.12816 -0.32246,-0.12816 -0.11369,0 -0.21394,0.0331 -0.30179,0.0992 -0.0858,0.0641 -0.14263,0.14366 -0.1695,0.23978 -0.006,0.0248 -0.0124,0.0413 -0.0207,0.0496 -0.0145,0.008 -0.0289,0.0124 -0.0455,0.0124 -0.0165,0 -0.032,-0.005 -0.0455,-0.0165 -0.0114,-0.0103 -0.0165,-0.0248 -0.0165,-0.0413 0,-0.0496 0.0269,-0.11576 0.0827,-0.19844 0.0548,-0.0848 0.12919,-0.15296 0.22324,-0.20257 0.0961,-0.0496 0.1943,-0.0744 0.29352,-0.0744 0.16227,0 0.30179,0.0568 0.41755,0.1695 0.11575,0.11369 0.17363,0.24185 0.17363,0.38447 0,0.0579 -0.0103,0.11369 -0.0289,0.16537 -0.0196,0.0496 -0.0527,0.10542 -0.0992,0.16536 -0.0475,0.0579 -0.13126,0.14676 -0.25218,0.26459 -0.30593,0.30075 -0.55397,0.53329 -0.74414,0.69866 z m 5.05292,-0.94671 h -1.41387 c -0.031,0 -0.0527,-0.005 -0.0661,-0.0165 -0.0145,-0.0134 -0.0207,-0.03 -0.0207,-0.0496 0,-0.0186 0.006,-0.0341 0.0207,-0.0455 0.0134,-0.0134 0.0351,-0.0207 0.0661,-0.0207 h 1.41387 c 0.0331,0 0.0548,0.007 0.0662,0.0207 0.0134,0.0114 0.0207,0.0269 0.0207,0.0455 0,0.0196 -0.007,0.0362 -0.0207,0.0496 -0.0114,0.0114 -0.0331,0.0165 -0.0662,0.0165 z m 0,0.46715 h -1.41387 c -0.031,0 -0.0527,-0.005 -0.0661,-0.0165 -0.0145,-0.0134 -0.0207,-0.03 -0.0207,-0.0496 0,-0.0186 0.006,-0.0341 0.0207,-0.0455 0.0134,-0.0134 0.0351,-0.0207 0.0661,-0.0207 h 1.41387 c 0.0331,0 0.0548,0.007 0.0662,0.0207 0.0134,0.0114 0.0207,0.0269 0.0207,0.0455 0,0.0196 -0.007,0.0362 -0.0207,0.0496 -0.0114,0.0114 -0.0331,0.0165 -0.0662,0.0165 z m 2.92385,-0.73173 v 0.32659 c 0.17053,-0.15089 0.29766,-0.24908 0.38034,-0.29352 0.0847,-0.0434 0.16227,-0.0661 0.23151,-0.0661 0.0765,0 0.14883,0.0269 0.21498,0.0786 0.0682,0.0527 0.10335,0.093 0.10335,0.11989 0,0.0196 -0.007,0.0362 -0.0207,0.0496 -0.0145,0.0114 -0.031,0.0165 -0.0496,0.0165 -0.0114,0 -0.0207,-0.001 -0.0289,-0.004 -0.006,-0.002 -0.0186,-0.0145 -0.0372,-0.0372 -0.0362,-0.0351 -0.0682,-0.0589 -0.0951,-0.0703 -0.0248,-0.0134 -0.0517,-0.0207 -0.0786,-0.0207 -0.0558,0 -0.12299,0.0238 -0.20257,0.0703 -0.0806,0.0444 -0.21911,0.15503 -0.41755,0.33073 v 0.71107 h 0.57464 c 0.0331,0 0.0558,0.006 0.0703,0.0165 0.0134,0.0114 0.0207,0.0269 0.0207,0.0455 0,0.0196 -0.007,0.0362 -0.0207,0.0496 -0.0145,0.0114 -0.0372,0.0165 -0.0703,0.0165 h -1.01699 c -0.031,0 -0.0527,-0.005 -0.0661,-0.0165 -0.0145,-0.0134 -0.0207,-0.0289 -0.0207,-0.0455 0,-0.0186 0.005,-0.0341 0.0165,-0.0455 0.0134,-0.0103 0.0372,-0.0165 0.0703,-0.0165 h 0.31419 v -1.08313 h -0.23978 c -0.031,0 -0.0527,-0.005 -0.0661,-0.0165 -0.0145,-0.0134 -0.0207,-0.03 -0.0207,-0.0496 0,-0.0186 0.005,-0.0341 0.0165,-0.0455 0.0134,-0.0134 0.0372,-0.0207 0.0703,-0.0207 z m 1.50379,1.21129 h 0.99632 v -0.0537 c 0,-0.03 0.005,-0.0517 0.0165,-0.0661 0.0134,-0.0134 0.03,-0.0207 0.0496,-0.0207 0.0186,0 0.0341,0.007 0.0455,0.0207 0.0134,0.0145 0.0207,0.0362 0.0207,0.0661 v 0.1819 h -1.25677 v -0.19017 c 0.26458,-0.23668 0.5209,-0.47749 0.76894,-0.72347 0.11576,-0.11576 0.19534,-0.19947 0.23978,-0.25218 0.0434,-0.0548 0.0724,-0.10129 0.0868,-0.14056 0.0165,-0.0413 0.0248,-0.0827 0.0248,-0.12403 0,-0.11265 -0.0455,-0.21187 -0.13642,-0.29765 -0.0889,-0.0848 -0.19637,-0.12816 -0.32246,-0.12816 -0.11369,0 -0.21395,0.0331 -0.3018,0.0992 -0.0858,0.0641 -0.14262,0.14366 -0.16949,0.23978 -0.006,0.0248 -0.0124,0.0413 -0.0207,0.0496 -0.0145,0.008 -0.0289,0.0124 -0.0455,0.0124 -0.0165,0 -0.032,-0.005 -0.0455,-0.0165 -0.0114,-0.0103 -0.0165,-0.0248 -0.0165,-0.0413 0,-0.0496 0.0269,-0.11576 0.0827,-0.19844 0.0548,-0.0848 0.12919,-0.15296 0.22324,-0.20257 0.0961,-0.0496 0.1943,-0.0744 0.29352,-0.0744 0.16226,0 0.30179,0.0568 0.41755,0.1695 0.11575,0.11369 0.17363,0.24185 0.17363,0.38447 0,0.0579 -0.0103,0.11369 -0.0289,0.16537 -0.0196,0.0496 -0.0527,0.10542 -0.0992,0.16536 -0.0475,0.0579 -0.13126,0.14676 -0.25218,0.26459 -0.30593,0.30075 -0.55397,0.5333 -0.74414,0.69866 z m 4.41213,-0.71107 v 0.64906 c 0,0.031 -0.007,0.0527 -0.0207,0.0662 -0.0114,0.0145 -0.0269,0.0207 -0.0455,0.0207 -0.0196,0 -0.0362,-0.006 -0.0496,-0.0207 -0.0114,-0.0134 -0.0165,-0.0352 -0.0165,-0.0662 v -0.64906 h -0.57464 c -0.031,0 -0.0527,-0.005 -0.0661,-0.0165 -0.0145,-0.0134 -0.0207,-0.03 -0.0207,-0.0496 0,-0.0186 0.006,-0.0341 0.0207,-0.0455 0.0134,-0.0134 0.0351,-0.0207 0.0661,-0.0207 h 0.57464 v -0.64492 c 0,-0.03 0.005,-0.0517 0.0165,-0.0661 0.0134,-0.0134 0.03,-0.0207 0.0496,-0.0207 0.0186,0 0.0341,0.007 0.0455,0.0207 0.0134,0.0145 0.0207,0.0362 0.0207,0.0661 v 0.64492 h 0.57464 c 0.03,0 0.0517,0.007 0.0661,0.0207 0.0134,0.0114 0.0207,0.0269 0.0207,0.0455 0,0.0196 -0.007,0.0362 -0.0207,0.0496 -0.0145,0.0114 -0.0362,0.0165 -0.0661,0.0165 z m 3.56464,-0.50022 v 0.32659 c 0.17053,-0.15089 0.29766,-0.24908 0.38034,-0.29352 0.0847,-0.0434 0.16226,-0.0661 0.23151,-0.0661 0.0765,0 0.14883,0.0269 0.21497,0.0786 0.0682,0.0527 0.10336,0.093 0.10336,0.11989 0,0.0196 -0.007,0.0362 -0.0207,0.0496 -0.0145,0.0114 -0.031,0.0165 -0.0496,0.0165 -0.0114,0 -0.0207,-0.001 -0.0289,-0.004 -0.006,-0.002 -0.0186,-0.0145 -0.0372,-0.0372 -0.0362,-0.0351 -0.0682,-0.0589 -0.0951,-0.0703 -0.0248,-0.0134 -0.0517,-0.0207 -0.0786,-0.0207 -0.0558,0 -0.12299,0.0238 -0.20258,0.0703 -0.0806,0.0444 -0.2191,0.15503 -0.41754,0.33073 v 0.71107 h 0.57464 c 0.0331,0 0.0558,0.006 0.0703,0.0165 0.0134,0.0114 0.0207,0.0269 0.0207,0.0455 0,0.0196 -0.007,0.0362 -0.0207,0.0496 -0.0145,0.0114 -0.0372,0.0165 -0.0703,0.0165 h -1.01699 c -0.031,0 -0.0527,-0.005 -0.0661,-0.0165 -0.0145,-0.0134 -0.0207,-0.0289 -0.0207,-0.0455 0,-0.0186 0.005,-0.0341 0.0165,-0.0455 0.0134,-0.0103 0.0372,-0.0165 0.0703,-0.0165 h 0.31419 v -1.08313 h -0.23977 c -0.031,0 -0.0527,-0.005 -0.0661,-0.0165 -0.0145,-0.0134 -0.0207,-0.03 -0.0207,-0.0496 0,-0.0186 0.005,-0.0341 0.0165,-0.0455 0.0134,-0.0134 0.0372,-0.0207 0.0703,-0.0207 z m 2.10323,-0.62839 v 1.83968 h 0.44649 c 0.03,0 0.0517,0.006 0.0661,0.0165 0.0134,0.0114 0.0207,0.0269 0.0207,0.0455 0,0.0196 -0.007,0.0362 -0.0207,0.0496 -0.0145,0.0114 -0.0362,0.0165 -0.0661,0.0165 h -1.02113 c -0.031,0 -0.0527,-0.005 -0.0662,-0.0165 -0.0145,-0.0134 -0.0207,-0.03 -0.0207,-0.0496 0,-0.0186 0.006,-0.0341 0.0207,-0.0455 0.0134,-0.0103 0.0351,-0.0165 0.0662,-0.0165 h 0.44648 v -1.65778 l -0.42581,0.13229 c -0.0196,0.006 -0.0331,0.008 -0.0413,0.008 -0.0165,0 -0.032,-0.005 -0.0455,-0.0165 -0.0114,-0.0134 -0.0165,-0.03 -0.0165,-0.0496 0,-0.0134 0.004,-0.0269 0.0124,-0.0413 0.008,-0.008 0.0258,-0.0176 0.0537,-0.0289 z m -21.06435,5.60276 v 0.32659 c 0.17054,-0.15089 0.29766,-0.24908 0.38034,-0.29352 0.0847,-0.0434 0.16227,-0.0661 0.23151,-0.0661 0.0765,0 0.14883,0.0269 0.21498,0.0785 0.0682,0.0527 0.10335,0.093 0.10335,0.11989 0,0.0196 -0.007,0.0362 -0.0207,0.0496 -0.0145,0.0114 -0.031,0.0165 -0.0496,0.0165 -0.0114,0 -0.0207,-0.001 -0.0289,-0.004 -0.006,-0.002 -0.0186,-0.0145 -0.0372,-0.0372 -0.0362,-0.0351 -0.0682,-0.0589 -0.0951,-0.0703 -0.0248,-0.0134 -0.0517,-0.0207 -0.0785,-0.0207 -0.0558,0 -0.12299,0.0238 -0.20257,0.0703 -0.0806,0.0444 -0.21911,0.15503 -0.41755,0.33073 v 0.71106 h 0.57465 c 0.0331,0 0.0558,0.006 0.0703,0.0165 0.0134,0.0114 0.0207,0.0269 0.0207,0.0455 0,0.0196 -0.007,0.0362 -0.0207,0.0496 -0.0145,0.0114 -0.0372,0.0165 -0.0703,0.0165 h -1.017 c -0.031,0 -0.0527,-0.005 -0.0661,-0.0165 -0.0145,-0.0134 -0.0207,-0.0289 -0.0207,-0.0455 0,-0.0186 0.005,-0.0341 0.0165,-0.0455 0.0134,-0.0103 0.0372,-0.0165 0.0703,-0.0165 h 0.3142 v -1.08314 h -0.23978 c -0.031,0 -0.0527,-0.005 -0.0662,-0.0165 -0.0145,-0.0134 -0.0207,-0.03 -0.0207,-0.0496 0,-0.0186 0.005,-0.0341 0.0165,-0.0455 0.0134,-0.0134 0.0372,-0.0207 0.0703,-0.0207 z m 2.12391,-0.62839 v 1.83968 h 0.44648 c 0.03,0 0.0517,0.006 0.0661,0.0165 0.0134,0.0114 0.0207,0.0269 0.0207,0.0455 0,0.0196 -0.007,0.0362 -0.0207,0.0496 -0.0145,0.0114 -0.0362,0.0165 -0.0661,0.0165 h -1.02113 c -0.031,0 -0.0527,-0.005 -0.0662,-0.0165 -0.0145,-0.0134 -0.0207,-0.03 -0.0207,-0.0496 0,-0.0186 0.006,-0.0341 0.0207,-0.0455 0.0134,-0.0103 0.0351,-0.0165 0.0662,-0.0165 h 0.44649 v -1.65778 l -0.42582,0.1323 c -0.0196,0.006 -0.0331,0.008 -0.0413,0.008 -0.0165,0 -0.032,-0.005 -0.0455,-0.0165 -0.0114,-0.0134 -0.0165,-0.03 -0.0165,-0.0496 0,-0.0134 0.004,-0.0269 0.0124,-0.0413 0.008,-0.008 0.0258,-0.0176 0.0537,-0.0289 z m 4.4328,0.89297 h -1.41387 c -0.031,0 -0.0527,-0.005 -0.0661,-0.0165 -0.0145,-0.0134 -0.0207,-0.03 -0.0207,-0.0496 0,-0.0186 0.006,-0.0341 0.0207,-0.0455 0.0134,-0.0134 0.0351,-0.0207 0.0661,-0.0207 h 1.41387 c 0.0331,0 0.0548,0.007 0.0662,0.0207 0.0134,0.0114 0.0207,0.0269 0.0207,0.0455 0,0.0196 -0.007,0.0362 -0.0207,0.0496 -0.0114,0.0114 -0.0331,0.0165 -0.0662,0.0165 z m 0,0.46716 h -1.41387 c -0.031,0 -0.0527,-0.005 -0.0661,-0.0165 -0.0145,-0.0134 -0.0207,-0.03 -0.0207,-0.0496 0,-0.0186 0.006,-0.0341 0.0207,-0.0455 0.0134,-0.0134 0.0351,-0.0207 0.0661,-0.0207 h 1.41387 c 0.0331,0 0.0548,0.007 0.0662,0.0207 0.0134,0.0114 0.0207,0.0269 0.0207,0.0455 0,0.0196 -0.007,0.0362 -0.0207,0.0496 -0.0114,0.0114 -0.0331,0.0165 -0.0662,0.0165 z m 2.92385,-0.73174 v 0.32659 c 0.17053,-0.15089 0.29766,-0.24908 0.38034,-0.29352 0.0847,-0.0434 0.16227,-0.0661 0.23151,-0.0661 0.0765,0 0.14883,0.0269 0.21498,0.0785 0.0682,0.0527 0.10335,0.093 0.10335,0.11989 0,0.0196 -0.007,0.0362 -0.0207,0.0496 -0.0145,0.0114 -0.031,0.0165 -0.0496,0.0165 -0.0114,0 -0.0207,-0.001 -0.0289,-0.004 -0.006,-0.002 -0.0186,-0.0145 -0.0372,-0.0372 -0.0362,-0.0351 -0.0682,-0.0589 -0.0951,-0.0703 -0.0248,-0.0134 -0.0517,-0.0207 -0.0786,-0.0207 -0.0558,0 -0.12299,0.0238 -0.20257,0.0703 -0.0806,0.0444 -0.21911,0.15503 -0.41755,0.33073 v 0.71106 h 0.57464 c 0.0331,0 0.0558,0.006 0.0703,0.0165 0.0134,0.0114 0.0207,0.0269 0.0207,0.0455 0,0.0196 -0.007,0.0362 -0.0207,0.0496 -0.0145,0.0114 -0.0372,0.0165 -0.0703,0.0165 h -1.01699 c -0.031,0 -0.0527,-0.005 -0.0661,-0.0165 -0.0145,-0.0134 -0.0207,-0.0289 -0.0207,-0.0455 0,-0.0186 0.005,-0.0341 0.0165,-0.0455 0.0134,-0.0103 0.0372,-0.0165 0.0703,-0.0165 h 0.31419 v -1.08314 h -0.23978 c -0.031,0 -0.0527,-0.005 -0.0661,-0.0165 -0.0145,-0.0134 -0.0207,-0.03 -0.0207,-0.0496 0,-0.0186 0.005,-0.0341 0.0165,-0.0455 0.0134,-0.0134 0.0372,-0.0207 0.0703,-0.0207 z m 2.1239,-0.62839 v 1.83968 h 0.44649 c 0.03,0 0.0517,0.006 0.0661,0.0165 0.0134,0.0114 0.0207,0.0269 0.0207,0.0455 0,0.0196 -0.007,0.0362 -0.0207,0.0496 -0.0145,0.0114 -0.0362,0.0165 -0.0661,0.0165 h -1.02113 c -0.031,0 -0.0527,-0.005 -0.0661,-0.0165 -0.0145,-0.0134 -0.0207,-0.03 -0.0207,-0.0496 0,-0.0186 0.006,-0.0341 0.0207,-0.0455 0.0134,-0.0103 0.0351,-0.0165 0.0661,-0.0165 h 0.44649 v -1.65778 l -0.42582,0.1323 c -0.0196,0.006 -0.0331,0.008 -0.0413,0.008 -0.0165,0 -0.032,-0.005 -0.0455,-0.0165 -0.0114,-0.0134 -0.0165,-0.03 -0.0165,-0.0496 0,-0.0134 0.004,-0.0269 0.0124,-0.0413 0.008,-0.008 0.0258,-0.0176 0.0537,-0.0289 z m 3.79202,1.12862 v 0.64905 c 0,0.031 -0.007,0.0527 -0.0207,0.0661 -0.0114,0.0145 -0.0269,0.0207 -0.0455,0.0207 -0.0196,0 -0.0362,-0.006 -0.0496,-0.0207 -0.0114,-0.0134 -0.0165,-0.0351 -0.0165,-0.0661 v -0.64905 h -0.57464 c -0.031,0 -0.0527,-0.005 -0.0661,-0.0165 -0.0145,-0.0134 -0.0207,-0.03 -0.0207,-0.0496 0,-0.0186 0.006,-0.0341 0.0207,-0.0455 0.0134,-0.0134 0.0351,-0.0207 0.0661,-0.0207 h 0.57464 v -0.64492 c 0,-0.03 0.005,-0.0517 0.0165,-0.0661 0.0134,-0.0134 0.03,-0.0207 0.0496,-0.0207 0.0186,0 0.0341,0.007 0.0455,0.0207 0.0134,0.0145 0.0207,0.0362 0.0207,0.0661 v 0.64492 h 0.57464 c 0.03,0 0.0517,0.007 0.0661,0.0207 0.0134,0.0114 0.0207,0.0269 0.0207,0.0455 0,0.0196 -0.007,0.0362 -0.0207,0.0496 -0.0145,0.0114 -0.0362,0.0165 -0.0661,0.0165 z m 3.56464,-0.50023 v 0.32659 c 0.17053,-0.15089 0.29766,-0.24908 0.38034,-0.29352 0.0847,-0.0434 0.16226,-0.0661 0.23151,-0.0661 0.0765,0 0.14883,0.0269 0.21497,0.0785 0.0682,0.0527 0.10336,0.093 0.10336,0.11989 0,0.0196 -0.007,0.0362 -0.0207,0.0496 -0.0145,0.0114 -0.031,0.0165 -0.0496,0.0165 -0.0114,0 -0.0207,-0.001 -0.0289,-0.004 -0.006,-0.002 -0.0186,-0.0145 -0.0372,-0.0372 -0.0362,-0.0351 -0.0682,-0.0589 -0.0951,-0.0703 -0.0248,-0.0134 -0.0517,-0.0207 -0.0786,-0.0207 -0.0558,0 -0.12299,0.0238 -0.20258,0.0703 -0.0806,0.0444 -0.2191,0.15503 -0.41754,0.33073 v 0.71106 h 0.57464 c 0.0331,0 0.0558,0.006 0.0703,0.0165 0.0134,0.0114 0.0207,0.0269 0.0207,0.0455 0,0.0196 -0.007,0.0362 -0.0207,0.0496 -0.0145,0.0114 -0.0372,0.0165 -0.0703,0.0165 h -1.01699 c -0.031,0 -0.0527,-0.005 -0.0661,-0.0165 -0.0145,-0.0134 -0.0207,-0.0289 -0.0207,-0.0455 0,-0.0186 0.005,-0.0341 0.0165,-0.0455 0.0134,-0.0103 0.0372,-0.0165 0.0703,-0.0165 h 0.31419 v -1.08314 h -0.23977 c -0.031,0 -0.0527,-0.005 -0.0661,-0.0165 -0.0145,-0.0134 -0.0207,-0.03 -0.0207,-0.0496 0,-0.0186 0.005,-0.0341 0.0165,-0.0455 0.0134,-0.0134 0.0372,-0.0207 0.0703,-0.0207 z m 1.48311,1.21129 h 0.99633 v -0.0537 c 0,-0.03 0.005,-0.0517 0.0165,-0.0661 0.0134,-0.0134 0.03,-0.0207 0.0496,-0.0207 0.0186,0 0.0341,0.007 0.0455,0.0207 0.0134,0.0145 0.0207,0.0362 0.0207,0.0661 v 0.1819 h -1.25678 v -0.19017 c 0.26459,-0.23668 0.5209,-0.47749 0.76895,-0.72347 0.11576,-0.11575 0.19534,-0.19947 0.23978,-0.25218 0.0434,-0.0548 0.0724,-0.10128 0.0868,-0.14056 0.0165,-0.0413 0.0248,-0.0827 0.0248,-0.12402 0,-0.11266 -0.0455,-0.21188 -0.13643,-0.29766 -0.0889,-0.0848 -0.19637,-0.12816 -0.32246,-0.12816 -0.11369,0 -0.21394,0.0331 -0.30179,0.0992 -0.0858,0.0641 -0.14263,0.14366 -0.1695,0.23978 -0.006,0.0248 -0.0124,0.0413 -0.0207,0.0496 -0.0145,0.008 -0.0289,0.0124 -0.0455,0.0124 -0.0165,0 -0.032,-0.005 -0.0455,-0.0165 -0.0114,-0.0103 -0.0165,-0.0248 -0.0165,-0.0413 0,-0.0496 0.0269,-0.11576 0.0827,-0.19844 0.0548,-0.0847 0.12919,-0.15296 0.22324,-0.20257 0.0961,-0.0496 0.19431,-0.0744 0.29353,-0.0744 0.16226,0 0.30179,0.0568 0.41754,0.16949 0.11576,0.11369 0.17364,0.24185 0.17364,0.38448 0,0.0579 -0.0103,0.11368 -0.0289,0.16536 -0.0196,0.0496 -0.0527,0.10542 -0.0992,0.16537 -0.0475,0.0579 -0.13126,0.14676 -0.25219,0.26458 -0.30592,0.30076 -0.55397,0.5333 -0.74414,0.69866 z m -20.44423,3.78375 v 0.3266 c 0.17054,-0.1509 0.29766,-0.24908 0.38034,-0.29352 0.0847,-0.0434 0.16227,-0.0662 0.23151,-0.0662 0.0765,0 0.14883,0.0269 0.21498,0.0786 0.0682,0.0527 0.10335,0.093 0.10335,0.11989 0,0.0196 -0.007,0.0362 -0.0207,0.0496 -0.0145,0.0114 -0.031,0.0165 -0.0496,0.0165 -0.0114,0 -0.0207,-10e-4 -0.0289,-0.004 -0.006,-0.002 -0.0186,-0.0145 -0.0372,-0.0372 -0.0362,-0.0351 -0.0682,-0.0589 -0.0951,-0.0703 -0.0248,-0.0134 -0.0517,-0.0207 -0.0785,-0.0207 -0.0558,0 -0.12299,0.0238 -0.20257,0.0703 -0.0806,0.0444 -0.21911,0.15503 -0.41755,0.33073 v 0.71107 h 0.57465 c 0.0331,0 0.0558,0.006 0.0703,0.0165 0.0134,0.0114 0.0207,0.0269 0.0207,0.0455 0,0.0196 -0.007,0.0362 -0.0207,0.0496 -0.0145,0.0114 -0.0372,0.0165 -0.0703,0.0165 h -1.017 c -0.031,0 -0.0527,-0.005 -0.0661,-0.0165 -0.0145,-0.0134 -0.0207,-0.0289 -0.0207,-0.0455 0,-0.0186 0.005,-0.0341 0.0165,-0.0455 0.0134,-0.0103 0.0372,-0.0165 0.0703,-0.0165 h 0.3142 v -1.08314 h -0.23978 c -0.031,0 -0.0527,-0.005 -0.0662,-0.0165 -0.0145,-0.0134 -0.0207,-0.03 -0.0207,-0.0496 0,-0.0186 0.005,-0.0341 0.0165,-0.0455 0.0134,-0.0134 0.0372,-0.0207 0.0703,-0.0207 z m 1.50379,1.2113 h 0.99632 v -0.0537 c 0,-0.03 0.005,-0.0517 0.0165,-0.0661 0.0134,-0.0134 0.03,-0.0207 0.0496,-0.0207 0.0186,0 0.0341,0.007 0.0455,0.0207 0.0134,0.0145 0.0207,0.0362 0.0207,0.0661 v 0.18191 h -1.25677 v -0.19017 c 0.26458,-0.23668 0.5209,-0.47749 0.76894,-0.72347 0.11576,-0.11576 0.19534,-0.19948 0.23978,-0.25219 0.0434,-0.0548 0.0724,-0.10128 0.0868,-0.14055 0.0165,-0.0413 0.0248,-0.0827 0.0248,-0.12403 0,-0.11265 -0.0455,-0.21187 -0.13642,-0.29765 -0.0889,-0.0847 -0.19637,-0.12816 -0.32246,-0.12816 -0.11369,0 -0.21394,0.0331 -0.30179,0.0992 -0.0858,0.0641 -0.14263,0.14366 -0.1695,0.23978 -0.006,0.0248 -0.0124,0.0413 -0.0207,0.0496 -0.0145,0.008 -0.0289,0.0124 -0.0455,0.0124 -0.0165,0 -0.032,-0.005 -0.0455,-0.0165 -0.0114,-0.0103 -0.0165,-0.0248 -0.0165,-0.0413 0,-0.0496 0.0269,-0.11575 0.0827,-0.19844 0.0548,-0.0847 0.12919,-0.15296 0.22324,-0.20257 0.0961,-0.0496 0.1943,-0.0744 0.29352,-0.0744 0.16227,0 0.30179,0.0568 0.41755,0.1695 0.11575,0.11369 0.17363,0.24184 0.17363,0.38447 0,0.0579 -0.0103,0.11369 -0.0289,0.16537 -0.0196,0.0496 -0.0527,0.10542 -0.0992,0.16536 -0.0475,0.0579 -0.13126,0.14676 -0.25218,0.26458 -0.30593,0.30076 -0.55397,0.5333 -0.74414,0.69867 z m 5.05292,-0.94671 h -1.41387 c -0.031,0 -0.0527,-0.005 -0.0661,-0.0165 -0.0145,-0.0134 -0.0207,-0.03 -0.0207,-0.0496 0,-0.0186 0.006,-0.0341 0.0207,-0.0455 0.0134,-0.0134 0.0351,-0.0207 0.0661,-0.0207 h 1.41387 c 0.0331,0 0.0548,0.007 0.0662,0.0207 0.0134,0.0114 0.0207,0.0269 0.0207,0.0455 0,0.0196 -0.007,0.0362 -0.0207,0.0496 -0.0114,0.0114 -0.0331,0.0165 -0.0662,0.0165 z m 0,0.46715 h -1.41387 c -0.031,0 -0.0527,-0.005 -0.0661,-0.0165 -0.0145,-0.0134 -0.0207,-0.03 -0.0207,-0.0496 0,-0.0186 0.006,-0.0341 0.0207,-0.0455 0.0134,-0.0134 0.0351,-0.0207 0.0661,-0.0207 h 1.41387 c 0.0331,0 0.0548,0.007 0.0662,0.0207 0.0134,0.0114 0.0207,0.0269 0.0207,0.0455 0,0.0196 -0.007,0.0362 -0.0207,0.0496 -0.0114,0.0114 -0.0331,0.0165 -0.0662,0.0165 z m 2.92385,-0.73174 v 0.3266 c 0.17053,-0.1509 0.29766,-0.24908 0.38034,-0.29352 0.0847,-0.0434 0.16227,-0.0662 0.23151,-0.0662 0.0765,0 0.14883,0.0269 0.21498,0.0786 0.0682,0.0527 0.10335,0.093 0.10335,0.11989 0,0.0196 -0.007,0.0362 -0.0207,0.0496 -0.0145,0.0114 -0.031,0.0165 -0.0496,0.0165 -0.0114,0 -0.0207,-10e-4 -0.0289,-0.004 -0.006,-0.002 -0.0186,-0.0145 -0.0372,-0.0372 -0.0362,-0.0351 -0.0682,-0.0589 -0.0951,-0.0703 -0.0248,-0.0134 -0.0517,-0.0207 -0.0786,-0.0207 -0.0558,0 -0.12299,0.0238 -0.20257,0.0703 -0.0806,0.0444 -0.21911,0.15503 -0.41755,0.33073 v 0.71107 h 0.57464 c 0.0331,0 0.0558,0.006 0.0703,0.0165 0.0134,0.0114 0.0207,0.0269 0.0207,0.0455 0,0.0196 -0.007,0.0362 -0.0207,0.0496 -0.0145,0.0114 -0.0372,0.0165 -0.0703,0.0165 h -1.01699 c -0.031,0 -0.0527,-0.005 -0.0661,-0.0165 -0.0145,-0.0134 -0.0207,-0.0289 -0.0207,-0.0455 0,-0.0186 0.005,-0.0341 0.0165,-0.0455 0.0134,-0.0103 0.0372,-0.0165 0.0703,-0.0165 h 0.31419 v -1.08314 h -0.23978 c -0.031,0 -0.0527,-0.005 -0.0661,-0.0165 -0.0145,-0.0134 -0.0207,-0.03 -0.0207,-0.0496 0,-0.0186 0.005,-0.0341 0.0165,-0.0455 0.0134,-0.0134 0.0372,-0.0207 0.0703,-0.0207 z m 1.50379,1.2113 h 0.99632 v -0.0537 c 0,-0.03 0.005,-0.0517 0.0165,-0.0661 0.0134,-0.0134 0.03,-0.0207 0.0496,-0.0207 0.0186,0 0.0341,0.007 0.0455,0.0207 0.0134,0.0145 0.0207,0.0362 0.0207,0.0661 v 0.18191 h -1.25677 v -0.19017 c 0.26458,-0.23668 0.5209,-0.47749 0.76894,-0.72347 0.11576,-0.11576 0.19534,-0.19948 0.23978,-0.25219 0.0434,-0.0548 0.0724,-0.10128 0.0868,-0.14055 0.0165,-0.0413 0.0248,-0.0827 0.0248,-0.12403 0,-0.11265 -0.0455,-0.21187 -0.13642,-0.29765 -0.0889,-0.0847 -0.19637,-0.12816 -0.32246,-0.12816 -0.11369,0 -0.21395,0.0331 -0.3018,0.0992 -0.0858,0.0641 -0.14262,0.14366 -0.16949,0.23978 -0.006,0.0248 -0.0124,0.0413 -0.0207,0.0496 -0.0145,0.008 -0.0289,0.0124 -0.0455,0.0124 -0.0165,0 -0.032,-0.005 -0.0455,-0.0165 -0.0114,-0.0103 -0.0165,-0.0248 -0.0165,-0.0413 0,-0.0496 0.0269,-0.11575 0.0827,-0.19844 0.0548,-0.0847 0.12919,-0.15296 0.22324,-0.20257 0.0961,-0.0496 0.1943,-0.0744 0.29352,-0.0744 0.16226,0 0.30179,0.0568 0.41755,0.1695 0.11575,0.11369 0.17363,0.24184 0.17363,0.38447 0,0.0579 -0.0103,0.11369 -0.0289,0.16537 -0.0196,0.0496 -0.0527,0.10542 -0.0992,0.16536 -0.0475,0.0579 -0.13126,0.14676 -0.25218,0.26458 -0.30593,0.30076 -0.55397,0.5333 -0.74414,0.69867 z m 4.41213,-0.71107 v 0.64906 c 0,0.031 -0.007,0.0527 -0.0207,0.0661 -0.0114,0.0145 -0.0269,0.0207 -0.0455,0.0207 -0.0196,0 -0.0362,-0.006 -0.0496,-0.0207 -0.0114,-0.0134 -0.0165,-0.0351 -0.0165,-0.0661 v -0.64906 h -0.57464 c -0.031,0 -0.0527,-0.005 -0.0661,-0.0165 -0.0145,-0.0134 -0.0207,-0.03 -0.0207,-0.0496 0,-0.0186 0.006,-0.0341 0.0207,-0.0455 0.0134,-0.0134 0.0351,-0.0207 0.0661,-0.0207 h 0.57464 v -0.64492 c 0,-0.03 0.005,-0.0517 0.0165,-0.0661 0.0134,-0.0134 0.03,-0.0207 0.0496,-0.0207 0.0186,0 0.0341,0.007 0.0455,0.0207 0.0134,0.0145 0.0207,0.0362 0.0207,0.0661 v 0.64492 h 0.57464 c 0.03,0 0.0517,0.007 0.0661,0.0207 0.0134,0.0114 0.0207,0.0269 0.0207,0.0455 0,0.0196 -0.007,0.0362 -0.0207,0.0496 -0.0145,0.0114 -0.0362,0.0165 -0.0661,0.0165 z m 3.56464,-0.50023 v 0.3266 c 0.17053,-0.1509 0.29766,-0.24908 0.38034,-0.29352 0.0847,-0.0434 0.16226,-0.0662 0.23151,-0.0662 0.0765,0 0.14883,0.0269 0.21497,0.0786 0.0682,0.0527 0.10336,0.093 0.10336,0.11989 0,0.0196 -0.007,0.0362 -0.0207,0.0496 -0.0145,0.0114 -0.031,0.0165 -0.0496,0.0165 -0.0114,0 -0.0207,-10e-4 -0.0289,-0.004 -0.006,-0.002 -0.0186,-0.0145 -0.0372,-0.0372 -0.0362,-0.0351 -0.0682,-0.0589 -0.0951,-0.0703 -0.0248,-0.0134 -0.0517,-0.0207 -0.0786,-0.0207 -0.0558,0 -0.12299,0.0238 -0.20258,0.0703 -0.0806,0.0444 -0.2191,0.15503 -0.41754,0.33073 v 0.71107 h 0.57464 c 0.0331,0 0.0558,0.006 0.0703,0.0165 0.0134,0.0114 0.0207,0.0269 0.0207,0.0455 0,0.0196 -0.007,0.0362 -0.0207,0.0496 -0.0145,0.0114 -0.0372,0.0165 -0.0703,0.0165 h -1.01699 c -0.031,0 -0.0527,-0.005 -0.0661,-0.0165 -0.0145,-0.0134 -0.0207,-0.0289 -0.0207,-0.0455 0,-0.0186 0.005,-0.0341 0.0165,-0.0455 0.0134,-0.0103 0.0372,-0.0165 0.0703,-0.0165 h 0.31419 v -1.08314 h -0.23977 c -0.031,0 -0.0527,-0.005 -0.0661,-0.0165 -0.0145,-0.0134 -0.0207,-0.03 -0.0207,-0.0496 0,-0.0186 0.005,-0.0341 0.0165,-0.0455 0.0134,-0.0134 0.0372,-0.0207 0.0703,-0.0207 z m 2.10323,-0.62838 v 1.83968 h 0.44649 c 0.03,0 0.0517,0.006 0.0661,0.0165 0.0134,0.0114 0.0207,0.0269 0.0207,0.0455 0,0.0196 -0.007,0.0362 -0.0207,0.0496 -0.0145,0.0114 -0.0362,0.0165 -0.0661,0.0165 h -1.02113 c -0.031,0 -0.0527,-0.005 -0.0662,-0.0165 -0.0145,-0.0134 -0.0207,-0.03 -0.0207,-0.0496 0,-0.0186 0.006,-0.0341 0.0207,-0.0455 0.0134,-0.0103 0.0351,-0.0165 0.0662,-0.0165 h 0.44648 v -1.65778 l -0.42581,0.13229 c -0.0196,0.006 -0.0331,0.008 -0.0413,0.008 -0.0165,0 -0.032,-0.005 -0.0455,-0.0165 -0.0114,-0.0134 -0.0165,-0.03 -0.0165,-0.0496 0,-0.0134 0.004,-0.0269 0.0124,-0.0413 0.008,-0.008 0.0258,-0.0176 0.0537,-0.0289 z m -21.06435,5.58105 v 0.3266 c 0.17054,-0.1509 0.29766,-0.24908 0.38034,-0.29353 0.0847,-0.0434 0.16227,-0.0661 0.23151,-0.0661 0.0765,0 0.14883,0.0269 0.21498,0.0786 0.0682,0.0527 0.10335,0.093 0.10335,0.11989 0,0.0196 -0.007,0.0362 -0.0207,0.0496 -0.0145,0.0114 -0.031,0.0165 -0.0496,0.0165 -0.0114,0 -0.0207,-10e-4 -0.0289,-0.004 -0.006,-0.002 -0.0186,-0.0145 -0.0372,-0.0372 -0.0362,-0.0351 -0.0682,-0.0589 -0.0951,-0.0703 -0.0248,-0.0134 -0.0517,-0.0207 -0.0785,-0.0207 -0.0558,0 -0.12299,0.0238 -0.20257,0.0703 -0.0806,0.0444 -0.21911,0.15503 -0.41755,0.33073 v 0.71107 h 0.57465 c 0.0331,0 0.0558,0.006 0.0703,0.0165 0.0134,0.0114 0.0207,0.0269 0.0207,0.0455 0,0.0196 -0.007,0.0362 -0.0207,0.0496 -0.0145,0.0114 -0.0372,0.0165 -0.0703,0.0165 h -1.017 c -0.031,0 -0.0527,-0.005 -0.0661,-0.0165 -0.0145,-0.0134 -0.0207,-0.0289 -0.0207,-0.0455 0,-0.0186 0.005,-0.0341 0.0165,-0.0455 0.0134,-0.0103 0.0372,-0.0165 0.0703,-0.0165 h 0.3142 v -1.08314 h -0.23978 c -0.031,0 -0.0527,-0.005 -0.0662,-0.0165 -0.0145,-0.0134 -0.0207,-0.03 -0.0207,-0.0496 0,-0.0186 0.005,-0.0341 0.0165,-0.0455 0.0134,-0.0134 0.0372,-0.0207 0.0703,-0.0207 z m 2.76469,0.7028 h -1.32291 c 0.0217,0.16537 0.092,0.30076 0.21084,0.40514 0.11782,0.10232 0.26458,0.15297 0.43821,0.15297 0.0961,0 0.19637,-0.0145 0.30179,-0.0455 0.10749,-0.0331 0.19431,-0.0755 0.26045,-0.12816 0.0186,-0.0165 0.0372,-0.0248 0.0537,-0.0248 0.0165,0 0.03,0.007 0.0413,0.0207 0.0134,0.0114 0.0207,0.0269 0.0207,0.0455 0,0.0165 -0.008,0.0331 -0.0248,0.0496 -0.0496,0.0527 -0.13849,0.10129 -0.26458,0.1447 -0.12712,0.0434 -0.25632,0.0661 -0.38861,0.0661 -0.22324,0 -0.40927,-0.0723 -0.5581,-0.2191 -0.14883,-0.14573 -0.22325,-0.32247 -0.22325,-0.52917 0,-0.18707 0.0682,-0.3483 0.20671,-0.48369 0.14056,-0.13436 0.31419,-0.20257 0.5209,-0.20257 0.21187,0 0.38654,0.0692 0.52503,0.2067 0.13746,0.13849 0.20464,0.31833 0.20257,0.54157 z m -0.13229,-0.13229 c -0.0248,-0.14263 -0.093,-0.25838 -0.20257,-0.34727 -0.11059,-0.091 -0.24185,-0.13642 -0.39274,-0.13642 -0.15193,0 -0.28319,0.0444 -0.39274,0.13229 -0.10749,0.0889 -0.1757,0.20567 -0.20257,0.3514 z m 1.04387,-0.57051 h 0.70693 c 0.03,0 0.0517,0.007 0.0661,0.0207 0.0134,0.0114 0.0207,0.0269 0.0207,0.0455 0,0.0196 -0.007,0.0362 -0.0207,0.0496 -0.0145,0.0114 -0.0362,0.0165 -0.0661,0.0165 h -0.70693 v 0.86403 c 0,0.0744 0.03,0.1385 0.0909,0.19017 0.0599,0.0496 0.14882,0.0744 0.26458,0.0744 0.0878,0 0.18293,-0.0124 0.28525,-0.0372 0.10129,-0.0269 0.1819,-0.0579 0.23978,-0.0909 0.0186,-0.0134 0.0351,-0.0207 0.0496,-0.0207 0.0165,0 0.03,0.007 0.0413,0.0207 0.0134,0.0114 0.0207,0.0269 0.0207,0.0455 0,0.0145 -0.007,0.0279 -0.0207,0.0414 -0.0331,0.0362 -0.11369,0.0734 -0.23978,0.11162 -0.12712,0.0382 -0.24804,0.0579 -0.3638,0.0579 -0.15193,0 -0.27285,-0.0351 -0.3638,-0.10335 -0.0889,-0.0713 -0.13229,-0.16743 -0.13229,-0.28939 v -0.86403 h -0.23978 c -0.0331,0 -0.0568,-0.005 -0.0703,-0.0165 -0.0114,-0.0134 -0.0165,-0.03 -0.0165,-0.0496 0,-0.0186 0.005,-0.0341 0.0165,-0.0455 0.0134,-0.0134 0.0372,-0.0207 0.0703,-0.0207 H 108.68 v -0.38447 c 0,-0.03 0.005,-0.0517 0.0165,-0.0661 0.0134,-0.0134 0.0289,-0.0207 0.0455,-0.0207 0.0186,0 0.0341,0.007 0.0455,0.0207 0.0134,0.0145 0.0207,0.0362 0.0207,0.0661 z m 2.61586,1.33945 v -0.19017 c -0.17674,0.1602 -0.36794,0.23978 -0.57465,0.23978 -0.12712,0 -0.22324,-0.0351 -0.28938,-0.10335 -0.0858,-0.0909 -0.12816,-0.19534 -0.12816,-0.31419 v -0.83923 h -0.17363 c -0.031,0 -0.0527,-0.005 -0.0662,-0.0165 -0.0145,-0.0134 -0.0207,-0.03 -0.0207,-0.0496 0,-0.0186 0.006,-0.0341 0.0207,-0.0455 0.0134,-0.0134 0.0351,-0.0207 0.0662,-0.0207 h 0.30592 v 0.97152 c 0,0.0827 0.0258,0.15193 0.0785,0.20671 0.0548,0.0558 0.12196,0.0827 0.20257,0.0827 0.20878,0 0.40205,-0.0961 0.57878,-0.28939 v -0.83922 h -0.23978 c -0.031,0 -0.0527,-0.005 -0.0662,-0.0165 -0.0145,-0.0134 -0.0207,-0.03 -0.0207,-0.0496 0,-0.0186 0.006,-0.0341 0.0207,-0.0455 0.0134,-0.0134 0.0351,-0.0207 0.0662,-0.0207 h 0.37207 v 1.21129 h 0.10749 c 0.0331,0 0.0548,0.006 0.0662,0.0165 0.0134,0.0114 0.0207,0.0269 0.0207,0.0455 0,0.0196 -0.007,0.0362 -0.0207,0.0496 -0.0114,0.0114 -0.0331,0.0165 -0.0662,0.0165 z m 1.30534,-1.33945 v 0.3266 c 0.17054,-0.1509 0.29766,-0.24908 0.38034,-0.29353 0.0847,-0.0434 0.16227,-0.0661 0.23151,-0.0661 0.0765,0 0.14883,0.0269 0.21498,0.0786 0.0682,0.0527 0.10335,0.093 0.10335,0.11989 0,0.0196 -0.007,0.0362 -0.0207,0.0496 -0.0145,0.0114 -0.031,0.0165 -0.0496,0.0165 -0.0114,0 -0.0207,-10e-4 -0.0289,-0.004 -0.006,-0.002 -0.0186,-0.0145 -0.0372,-0.0372 -0.0362,-0.0351 -0.0682,-0.0589 -0.0951,-0.0703 -0.0248,-0.0134 -0.0517,-0.0207 -0.0785,-0.0207 -0.0558,0 -0.12299,0.0238 -0.20257,0.0703 -0.0806,0.0444 -0.21911,0.15503 -0.41755,0.33073 v 0.71107 h 0.57464 c 0.0331,0 0.0558,0.006 0.0703,0.0165 0.0134,0.0114 0.0207,0.0269 0.0207,0.0455 0,0.0196 -0.007,0.0362 -0.0207,0.0496 -0.0145,0.0114 -0.0372,0.0165 -0.0703,0.0165 h -1.01698 c -0.031,0 -0.0527,-0.005 -0.0662,-0.0165 -0.0145,-0.0134 -0.0207,-0.0289 -0.0207,-0.0455 0,-0.0186 0.005,-0.0341 0.0165,-0.0455 0.0134,-0.0103 0.0372,-0.0165 0.0703,-0.0165 h 0.31419 v -1.08314 h -0.23978 c -0.031,0 -0.0527,-0.005 -0.0661,-0.0165 -0.0145,-0.0134 -0.0207,-0.03 -0.0207,-0.0496 0,-0.0186 0.005,-0.0341 0.0165,-0.0455 0.0134,-0.0134 0.0372,-0.0207 0.0703,-0.0207 z m 1.61851,0 v 0.19844 c 0.0909,-0.093 0.17157,-0.1571 0.24391,-0.19017 0.0744,-0.0351 0.15813,-0.0537 0.25218,-0.0537 0.0992,0 0.18811,0.0207 0.26872,0.062 0.0579,0.031 0.10955,0.0816 0.1571,0.15296 0.0465,0.0724 0.0703,0.14676 0.0703,0.22324 v 0.81856 h 0.11162 c 0.03,0 0.0517,0.006 0.0662,0.0165 0.0134,0.0114 0.0207,0.0269 0.0207,0.0455 0,0.0196 -0.007,0.0362 -0.0207,0.0496 -0.0145,0.0114 -0.0362,0.0165 -0.0662,0.0165 h -0.3514 c -0.031,0 -0.0527,-0.005 -0.0662,-0.0165 -0.0145,-0.0134 -0.0207,-0.03 -0.0207,-0.0496 0,-0.0186 0.006,-0.0341 0.0207,-0.0455 0.0134,-0.0103 0.0351,-0.0165 0.0662,-0.0165 h 0.11162 v -0.79789 c 0,-0.091 -0.0351,-0.16743 -0.10335,-0.23151 -0.0661,-0.063 -0.15607,-0.0951 -0.26872,-0.0951 -0.0858,0 -0.1602,0.0186 -0.22324,0.0537 -0.061,0.0331 -0.1509,0.11782 -0.26872,0.25218 v 0.81856 h 0.14883 c 0.03,0 0.0517,0.006 0.0662,0.0165 0.0134,0.0114 0.0207,0.0269 0.0207,0.0455 0,0.0196 -0.007,0.0362 -0.0207,0.0496 -0.0145,0.0114 -0.0362,0.0165 -0.0662,0.0165 H 114.071 c -0.031,0 -0.0527,-0.005 -0.0662,-0.0165 -0.0145,-0.0134 -0.0207,-0.03 -0.0207,-0.0496 0,-0.0186 0.006,-0.0341 0.0207,-0.0455 0.0134,-0.0103 0.0351,-0.0165 0.0662,-0.0165 h 0.14883 v -1.07901 h -0.11162 c -0.031,0 -0.0527,-0.005 -0.0661,-0.0165 -0.0145,-0.0134 -0.0207,-0.03 -0.0207,-0.0496 0,-0.0186 0.006,-0.0341 0.0207,-0.0455 0.0134,-0.0134 0.0351,-0.0207 0.0661,-0.0207 z m 4.05246,0 v 0.3266 c 0.17054,-0.1509 0.29766,-0.24908 0.38034,-0.29353 0.0847,-0.0434 0.16227,-0.0661 0.23151,-0.0661 0.0765,0 0.14883,0.0269 0.21498,0.0786 0.0682,0.0527 0.10335,0.093 0.10335,0.11989 0,0.0196 -0.007,0.0362 -0.0207,0.0496 -0.0145,0.0114 -0.031,0.0165 -0.0496,0.0165 -0.0114,0 -0.0207,-10e-4 -0.0289,-0.004 -0.006,-0.002 -0.0186,-0.0145 -0.0372,-0.0372 -0.0362,-0.0351 -0.0682,-0.0589 -0.0951,-0.0703 -0.0248,-0.0134 -0.0517,-0.0207 -0.0786,-0.0207 -0.0558,0 -0.12299,0.0238 -0.20257,0.0703 -0.0806,0.0444 -0.21911,0.15503 -0.41755,0.33073 v 0.71107 h 0.57465 c 0.0331,0 0.0558,0.006 0.0703,0.0165 0.0134,0.0114 0.0207,0.0269 0.0207,0.0455 0,0.0196 -0.007,0.0362 -0.0207,0.0496 -0.0145,0.0114 -0.0372,0.0165 -0.0703,0.0165 h -1.017 c -0.031,0 -0.0527,-0.005 -0.0661,-0.0165 -0.0145,-0.0134 -0.0207,-0.0289 -0.0207,-0.0455 0,-0.0186 0.005,-0.0341 0.0165,-0.0455 0.0134,-0.0103 0.0372,-0.0165 0.0703,-0.0165 h 0.3142 v -1.08314 h -0.23978 c -0.031,0 -0.0527,-0.005 -0.0661,-0.0165 -0.0145,-0.0134 -0.0207,-0.03 -0.0207,-0.0496 0,-0.0186 0.005,-0.0341 0.0165,-0.0455 0.0134,-0.0134 0.0372,-0.0207 0.0703,-0.0207 z m 2.12391,-0.62838 v 1.83968 h 0.44648 c 0.03,0 0.0517,0.006 0.0661,0.0165 0.0134,0.0114 0.0207,0.0269 0.0207,0.0455 0,0.0196 -0.007,0.0362 -0.0207,0.0496 -0.0145,0.0114 -0.0362,0.0165 -0.0661,0.0165 h -1.02113 c -0.031,0 -0.0527,-0.005 -0.0662,-0.0165 -0.0145,-0.0134 -0.0207,-0.03 -0.0207,-0.0496 0,-0.0186 0.006,-0.0341 0.0207,-0.0455 0.0134,-0.0103 0.0351,-0.0165 0.0662,-0.0165 h 0.44649 v -1.65778 l -0.42582,0.13229 c -0.0196,0.006 -0.0331,0.008 -0.0413,0.008 -0.0165,0 -0.032,-0.005 -0.0455,-0.0165 -0.0114,-0.0134 -0.0165,-0.03 -0.0165,-0.0496 0,-0.0134 0.004,-0.0269 0.0124,-0.0413 0.008,-0.008 0.0258,-0.0176 0.0537,-0.0289 z m 3.79201,1.12861 v 0.64905 c 0,0.031 -0.007,0.0527 -0.0207,0.0661 -0.0114,0.0145 -0.0269,0.0207 -0.0455,0.0207 -0.0196,0 -0.0362,-0.006 -0.0496,-0.0207 -0.0114,-0.0134 -0.0165,-0.0351 -0.0165,-0.0661 v -0.64905 h -0.57464 c -0.031,0 -0.0527,-0.005 -0.0661,-0.0165 -0.0145,-0.0134 -0.0207,-0.03 -0.0207,-0.0496 0,-0.0186 0.006,-0.0341 0.0207,-0.0455 0.0134,-0.0134 0.0351,-0.0207 0.0661,-0.0207 h 0.57464 v -0.64492 c 0,-0.03 0.005,-0.0517 0.0165,-0.0661 0.0134,-0.0134 0.03,-0.0207 0.0496,-0.0207 0.0186,0 0.0341,0.007 0.0455,0.0207 0.0134,0.0145 0.0207,0.0362 0.0207,0.0661 v 0.64492 h 0.57464 c 0.03,0 0.0517,0.007 0.0661,0.0207 0.0134,0.0114 0.0207,0.0269 0.0207,0.0455 0,0.0196 -0.007,0.0362 -0.0207,0.0496 -0.0145,0.0114 -0.0362,0.0165 -0.0661,0.0165 z m 3.56568,-0.50023 v 0.3266 c 0.17053,-0.1509 0.29765,-0.24908 0.38033,-0.29353 0.0847,-0.0434 0.16227,-0.0661 0.23151,-0.0661 0.0765,0 0.14883,0.0269 0.21498,0.0786 0.0682,0.0527 0.10335,0.093 0.10335,0.11989 0,0.0196 -0.007,0.0362 -0.0207,0.0496 -0.0145,0.0114 -0.031,0.0165 -0.0496,0.0165 -0.0114,0 -0.0207,-10e-4 -0.0289,-0.004 -0.006,-0.002 -0.0186,-0.0145 -0.0372,-0.0372 -0.0362,-0.0351 -0.0682,-0.0589 -0.0951,-0.0703 -0.0248,-0.0134 -0.0517,-0.0207 -0.0786,-0.0207 -0.0558,0 -0.12299,0.0238 -0.20257,0.0703 -0.0806,0.0444 -0.21911,0.15503 -0.41755,0.33073 v 0.71107 h 0.57465 c 0.0331,0 0.0558,0.006 0.0703,0.0165 0.0134,0.0114 0.0207,0.0269 0.0207,0.0455 0,0.0196 -0.007,0.0362 -0.0207,0.0496 -0.0145,0.0114 -0.0372,0.0165 -0.0703,0.0165 h -1.017 c -0.031,0 -0.0527,-0.005 -0.0662,-0.0165 -0.0145,-0.0134 -0.0207,-0.0289 -0.0207,-0.0455 0,-0.0186 0.005,-0.0341 0.0165,-0.0455 0.0134,-0.0103 0.0372,-0.0165 0.0703,-0.0165 h 0.3142 v -1.08314 h -0.23978 c -0.031,0 -0.0527,-0.005 -0.0662,-0.0165 -0.0145,-0.0134 -0.0207,-0.03 -0.0207,-0.0496 0,-0.0186 0.005,-0.0341 0.0165,-0.0455 0.0134,-0.0134 0.0372,-0.0207 0.0703,-0.0207 z m 1.50275,1.2113 h 0.99632 v -0.0538 c 0,-0.03 0.005,-0.0517 0.0165,-0.0661 0.0134,-0.0134 0.03,-0.0207 0.0496,-0.0207 0.0186,0 0.0341,0.007 0.0455,0.0207 0.0134,0.0145 0.0207,0.0362 0.0207,0.0661 v 0.1819 h -1.25677 v -0.19017 c 0.26458,-0.23667 0.5209,-0.47749 0.76894,-0.72346 0.11576,-0.11576 0.19534,-0.19948 0.23978,-0.25219 0.0434,-0.0548 0.0724,-0.10128 0.0868,-0.14056 0.0165,-0.0413 0.0248,-0.0827 0.0248,-0.12402 0,-0.11265 -0.0455,-0.21187 -0.13642,-0.29766 -0.0889,-0.0848 -0.19637,-0.12815 -0.32246,-0.12815 -0.11369,0 -0.21394,0.0331 -0.30179,0.0992 -0.0858,0.0641 -0.14263,0.14366 -0.1695,0.23977 -0.006,0.0248 -0.0124,0.0413 -0.0207,0.0496 -0.0145,0.008 -0.0289,0.0124 -0.0455,0.0124 -0.0165,0 -0.032,-0.005 -0.0455,-0.0165 -0.0114,-0.0103 -0.0165,-0.0248 -0.0165,-0.0413 0,-0.0496 0.0269,-0.11575 0.0827,-0.19844 0.0548,-0.0848 0.12919,-0.15296 0.22324,-0.20257 0.0961,-0.0496 0.1943,-0.0744 0.29352,-0.0744 0.16226,0 0.30179,0.0568 0.41755,0.1695 0.11575,0.11369 0.17363,0.24184 0.17363,0.38447 0,0.0579 -0.0103,0.11369 -0.0289,0.16536 -0.0196,0.0496 -0.0527,0.10542 -0.0992,0.16537 -0.0475,0.0579 -0.13126,0.14676 -0.25218,0.26458 -0.30593,0.30076 -0.55397,0.5333 -0.74414,0.69867 z m 0,0"
       style="fill:#000000 icc-color(sRGB-IEC61966-2, 0.1, 0, 0, 0);fill-opacity:1;fill-rule:nonzero;stroke:none;stroke-width:0.352778"
       aria-label="r1 = 10&#10;r2 = 20&#10;r1 = r1 + r2&#10;r2 = r2 + r1&#10;r1 = r1 + r2&#10;r2 = r2 + r1&#10;return r1 + r2" />
    <path
       id="path53"
       d="m 60.459709,81.930584 v 9.9695 m -0.994833,-9.9695 h 2.010833 m -2.010833,9.9695 h 2.010833"
       style="fill:none;stroke:#000000 icc-color(sRGB-IEC61966-2, 0.1, 0, 0, 0);stroke-width:0.432858;stroke-linecap:round;stroke-linejoin:round;stroke-miterlimit:10;stroke-dasharray:none;stroke-opacity:1" />
  </g>
</svg>
