<?xml version="1.0" encoding="UTF-8" standalone="no"?>
<!-- Created with Inkscape (http://www.inkscape.org/) -->

<svg
   width="62.580215mm"
   height="30.543871mm"
   viewBox="0 0 62.580215 30.543871"
   version="1.1"
   id="svg1"
   inkscape:version="1.3 (0e150ed6c4, 2023-07-21)"
   sodipodi:docname="poletto:99.svg"
   xmlns:inkscape="http://www.inkscape.org/namespaces/inkscape"
   xmlns:sodipodi="http://sodipodi.sourceforge.net/DTD/sodipodi-0.dtd"
   xmlns="http://www.w3.org/2000/svg"
   xmlns:svg="http://www.w3.org/2000/svg">
  <sodipodi:namedview
     id="namedview1"
     pagecolor="#ffffff"
     bordercolor="#000000"
     borderopacity="0.25"
     inkscape:showpageshadow="2"
     inkscape:pageopacity="0.0"
     inkscape:pagecheckerboard="0"
     inkscape:deskcolor="#d1d1d1"
     inkscape:document-units="mm"
     inkscape:zoom="0.43829966"
     inkscape:cx="118.64029"
     inkscape:cy="57.038602"
     inkscape:window-width="1366"
     inkscape:window-height="705"
     inkscape:window-x="0"
     inkscape:window-y="26"
     inkscape:window-maximized="1"
     inkscape:current-layer="layer1" />
  <defs
     id="defs1" />
  <g
     inkscape:label="Camada 1"
     inkscape:groupmode="layer"
     id="layer1"
     transform="translate(-73.818749,-133.35)">
    <path
       id="path4"
       d="m 90.793792,146.78707 h 45.463178 m -45.463178,-0.7105 v 1.42099 m 45.463178,-1.42099 v 1.42099 M 79.427645,135.42127 h 17.049044 m -17.049044,-0.71049 v 1.42063 m 17.049044,-1.42063 v 1.42063 m 11.365791,22.02145 h 17.04869 m -17.04869,-0.71014 v 1.42063 m 17.04869,-1.42063 v 1.42063"
       style="fill:none;stroke:#000000;stroke-width:0.283986;stroke-linecap:butt;stroke-linejoin:miter;stroke-miterlimit:10;stroke-dasharray:none;stroke-opacity:1" />
    <path
       id="path5"
       d="M 79.427645,160.99448 V 135.42127"
       style="fill:none;stroke:#000000;stroke-width:0.0709083;stroke-linecap:round;stroke-linejoin:miter;stroke-miterlimit:10;stroke-dasharray:0.142169, 0.426156;stroke-dashoffset:0.426156;stroke-opacity:1" />
    <path
       id="path6"
       d="m 130.57407,151.75947 v 1.42099 M 85.110542,140.39367 v 1.42099 m 0,-0.71049 h 22.731938 m 0,-0.7105 v 1.42099"
       style="fill:none;stroke:#000000;stroke-width:0.283986;stroke-linecap:butt;stroke-linejoin:miter;stroke-miterlimit:10;stroke-dasharray:none;stroke-opacity:1" />
    <path
       id="path7"
       d="M 85.110542,160.99448 V 141.10417"
       style="fill:none;stroke:#000000;stroke-width:0.0709083;stroke-linecap:round;stroke-linejoin:miter;stroke-miterlimit:10;stroke-dasharray:0.142169, 0.426156;stroke-dashoffset:0.426156;stroke-opacity:1" />
    <path
       id="path8"
       d="m 102.15959,151.75947 v 1.42099 m 0,-0.7105 h 28.41448"
       style="fill:none;stroke:#000000;stroke-width:0.283986;stroke-linecap:butt;stroke-linejoin:miter;stroke-miterlimit:10;stroke-dasharray:none;stroke-opacity:1" />
    <path
       id="path9"
       d="m 102.15959,152.46996 v 8.52452 m -11.365798,0 v -14.20741 m 17.048688,11.36579 v 2.84162"
       style="fill:none;stroke:#000000;stroke-width:0.0709083;stroke-linecap:round;stroke-linejoin:miter;stroke-miterlimit:10;stroke-dasharray:0.142169, 0.426156;stroke-dashoffset:0.426156;stroke-opacity:1" />
    <path
       id="path10"
       d="m 75.16647,135.00364 0.136426,0.41755 h 0.438216 L 75.02591,133.35 h -0.471289 l -0.735872,2.07119 h 0.434082 l 0.14056,-0.41755 z m -0.115755,-0.35553 h -0.541569 l 0.272852,-0.81029 z m -1.07487,6.45645 h 0.93431 c 0.235645,0 0.396875,-0.0455 0.520898,-0.14883 0.124024,-0.10748 0.206706,-0.28112 0.206706,-0.44648 0,-0.20671 -0.111621,-0.36794 -0.347265,-0.50436 0.206705,-0.12816 0.285254,-0.24805 0.285254,-0.42582 0,-0.14469 -0.07028,-0.29352 -0.186036,-0.39274 -0.124023,-0.10748 -0.268717,-0.15296 -0.487825,-0.15296 h -0.926042 z m 0.425814,-1.71566 h 0.463021 c 0.198437,0 0.30179,0.0786 0.30179,0.23151 0,0.1571 -0.103353,0.23565 -0.30179,0.23565 h -0.463021 z m 0,0.82269 h 0.508496 c 0.21084,0 0.318327,0.0909 0.318327,0.27285 0,0.17364 -0.107487,0.26459 -0.318327,0.26459 h -0.508496 z m 1.281575,5.20795 c -0.01654,-0.17776 -0.05374,-0.29352 -0.140559,-0.40927 -0.161231,-0.21084 -0.413412,-0.3266 -0.72347,-0.3266 -0.587045,0 -0.950847,0.41755 -0.950847,1.08727 0,0.6656 0.359668,1.08314 0.938444,1.08314 0.516765,0 0.855762,-0.29765 0.884701,-0.77308 h -0.417546 c -0.02894,0.26459 -0.190169,0.41341 -0.454752,0.41341 -0.33073,0 -0.525033,-0.26458 -0.525033,-0.71933 0,-0.45475 0.202572,-0.72761 0.537435,-0.72761 0.248047,0 0.388607,0.11989 0.44235,0.37207 z m -1.719791,7.05177 h 0.810286 c 0.314193,0 0.512631,-0.0744 0.65319,-0.23978 0.165365,-0.1943 0.252181,-0.47129 0.252181,-0.79788 0,-0.31833 -0.08682,-0.59945 -0.252181,-0.79375 -0.140559,-0.1695 -0.334863,-0.23978 -0.65319,-0.23978 h -0.810286 z m 0.425814,-0.35553 v -1.36013 h 0.384472 c 0.318327,0 0.479558,0.22324 0.479558,0.68213 0,0.45475 -0.161231,0.678 -0.479558,0.678 z m 0,0"
       style="fill:#000000;fill-opacity:1;fill-rule:nonzero;stroke:none;stroke-width:0.352778"
       aria-label="A&#10;B&#10;C&#10;D" />
    <path
       id="path11"
       d="m 80.300006,162.58336 -0.264583,1.25264 h 0.359667 l 0.384473,-1.81488 h -0.239779 c -0.09922,0.21497 -0.305924,0.32659 -0.620117,0.32659 l -0.05374,0.23565 z m 6.186702,0.93431 h -0.768945 c 0.06614,-0.0992 0.136426,-0.15296 0.44235,-0.34313 0.367936,-0.23151 0.487826,-0.36794 0.541569,-0.61599 0.07441,-0.3514 -0.124024,-0.57464 -0.504362,-0.57464 -0.376204,0 -0.640788,0.22324 -0.72347,0.60772 l -0.01241,0.062 h 0.347266 l 0.0124,-0.0579 c 0.04133,-0.20257 0.161231,-0.32246 0.322461,-0.32246 0.161231,0 0.235645,0.11162 0.194304,0.29352 -0.04133,0.20257 -0.11989,0.27699 -0.587045,0.56224 -0.347265,0.21084 -0.479557,0.36794 -0.562239,0.70694 h 1.231966 z m 5.033284,-0.49196 c 0.14056,0 0.148828,0 0.206706,0.0165 0.111621,0.0331 0.169499,0.14056 0.14056,0.27285 -0.0372,0.16123 -0.169499,0.27285 -0.326595,0.27285 -0.169499,0 -0.239779,-0.0992 -0.214974,-0.28526 h -0.347266 c -0.07028,0.36381 0.115755,0.59118 0.487826,0.59118 0.384472,0 0.682129,-0.22737 0.756543,-0.57877 0.04547,-0.21498 -0.01654,-0.3514 -0.198438,-0.45062 0.186035,-0.10749 0.28112,-0.21911 0.318327,-0.38861 0.062,-0.30179 -0.11989,-0.49196 -0.471289,-0.49196 -0.264583,0 -0.49196,0.11576 -0.611849,0.31006 -0.04961,0.0868 -0.07028,0.14883 -0.103353,0.29766 h 0.330729 c 0.02481,-0.0951 0.03721,-0.1447 0.07028,-0.19017 0.04961,-0.0785 0.14056,-0.12816 0.243913,-0.12816 0.144694,0 0.210839,0.0868 0.177767,0.23564 -0.03722,0.18604 -0.165365,0.27699 -0.376205,0.27699 H 91.5696 Z m 11.412228,0.11162 h -0.19017 l 0.23562,-1.11621 h -0.42168 l -0.8971,1.11208 -0.062,0.30179 h 0.7276 l -0.0868,0.40101 h 0.35554 l 0.0868,-0.40101 h 0.19016 z m -0.54571,0 h -0.47542 l 0.64079,-0.77721 z m 0,0"
       style="fill:#000000;fill-opacity:1;fill-rule:nonzero;stroke:none;stroke-width:0.352778"
       aria-label="1234" />
    <path
       id="path12"
       d="m 74.393391,157.25965 h 0.992187 v -0.35553 h -0.992187 v -0.46716 h 1.070735 v -0.35553 h -1.496549 v 2.07119 h 1.550293 v -0.35554 h -1.124479 z m 0,0"
       style="fill:#000000;fill-opacity:1;fill-rule:nonzero;stroke:none;stroke-width:0.352778"
       aria-label="E" />
    <path
       id="path13"
       d="m 108.76958,162.02112 h -0.97151 l -0.37621,1.01286 h 0.32246 c 0.0579,-0.091 0.14883,-0.14056 0.26045,-0.14056 0.1819,0 0.26459,0.13229 0.21498,0.3514 -0.0414,0.21084 -0.17777,0.34313 -0.35967,0.34313 -0.1571,0 -0.22738,-0.0786 -0.20671,-0.22738 h -0.3514 c -0.062,0.31833 0.1323,0.5333 0.48783,0.5333 0.38861,0 0.71107,-0.26458 0.79375,-0.65732 0.0785,-0.37207 -0.0992,-0.62839 -0.43408,-0.62839 -0.11989,0 -0.21911,0.0331 -0.339,0.11162 l 0.14056,-0.3762 h 0.75241 z m 0,0"
       style="fill:#000000;fill-opacity:1;fill-rule:nonzero;stroke:none;stroke-width:0.352778"
       aria-label="5" />
  </g>
</svg>
