<?xml version="1.0" encoding="UTF-8" standalone="no"?>
<!-- Created with Inkscape (http://www.inkscape.org/) -->

<svg
   width="82.673607mm"
   height="38.35334mm"
   viewBox="0 0 82.673607 38.35334"
   version="1.1"
   id="svg1"
   inkscape:version="1.3 (0e150ed6c4, 2023-07-21)"
   sodipodi:docname="linearscancomum.svg"
   xmlns:inkscape="http://www.inkscape.org/namespaces/inkscape"
   xmlns:sodipodi="http://sodipodi.sourceforge.net/DTD/sodipodi-0.dtd"
   xmlns="http://www.w3.org/2000/svg"
   xmlns:svg="http://www.w3.org/2000/svg">
  <sodipodi:namedview
     id="namedview1"
     pagecolor="#ffffff"
     bordercolor="#000000"
     borderopacity="0.25"
     inkscape:showpageshadow="2"
     inkscape:pageopacity="0.0"
     inkscape:pagecheckerboard="0"
     inkscape:deskcolor="#d1d1d1"
     inkscape:document-units="mm"
     inkscape:zoom="0.43829966"
     inkscape:cx="292.03764"
     inkscape:cy="335.38698"
     inkscape:window-width="1366"
     inkscape:window-height="705"
     inkscape:window-x="0"
     inkscape:window-y="26"
     inkscape:window-maximized="1"
     inkscape:current-layer="layer1" />
  <defs
     id="defs1" />
  <g
     inkscape:label="Camada 1"
     inkscape:groupmode="layer"
     id="layer1"
     transform="translate(-28.045833,-59.795828)">
    <path
       id="path17"
       d="m 75.730938,63.330003 v 34.819165 m 7.493,-34.819165 V 98.149168 M 90.716937,63.330003 V 98.149168 M 98.25227,63.330003 v 34.819165 m 7.493,-34.819165 V 98.149168 M 68.216772,65.806503 h 42.502668 m -42.502668,4.974166 h 42.502668 m -42.502668,4.995334 h 42.502668 m -42.502668,4.974166 h 42.502668 m -42.502668,4.953 h 42.502668 m -42.502668,4.974166 h 42.502668 m -42.502668,4.995333 h 42.502668"
       style="fill:none;stroke:#000000 icc-color(sRGB-IEC61966-2, 0.1, 0, 0, 0);stroke-width:0.0211667;stroke-linecap:butt;stroke-linejoin:miter;stroke-miterlimit:10;stroke-dasharray:none;stroke-opacity:1" />
    <path
       id="path18"
       d="m 28.045833,65.989759 c 0,-0.117822 0.01447,-0.243913 0.04548,-0.376204 0.03307,-0.134359 0.09198,-0.289388 0.177766,-0.463021 0.08785,-0.173633 0.152963,-0.278019 0.194304,-0.314193 0.01034,-0.01033 0.0248,-0.01654 0.04134,-0.01654 0.01654,0 0.03101,0.0072 0.04547,0.02067 0.01344,0.01137 0.02067,0.02481 0.02067,0.04134 0,0.01137 -0.0041,0.02274 -0.0124,0.03307 -0.113689,0.209806 -0.194304,0.398942 -0.243913,0.566373 -0.04754,0.168465 -0.07028,0.337964 -0.07028,0.508496 0,0.168465 0.02274,0.337964 0.07028,0.508496 0.04961,0.168465 0.130224,0.355534 0.243913,0.56224 0.0083,0.01344 0.0124,0.02584 0.0124,0.03721 0,0.01654 -0.0072,0.02997 -0.02067,0.04134 -0.01447,0.01344 -0.02894,0.02067 -0.04547,0.02067 -0.01654,0 -0.03101,-0.0062 -0.04134,-0.01654 -0.03927,-0.03617 -0.10232,-0.139526 -0.190169,-0.310058 -0.08578,-0.167432 -0.144694,-0.31626 -0.177767,-0.446485 -0.03307,-0.132292 -0.04961,-0.264583 -0.04961,-0.396875 z m 1.983342,-1.198893 v 1.839681 h 0.446484 c 0.02997,0 0.05168,0.0062 0.06615,0.01654 0.01344,0.01137 0.02067,0.02687 0.02067,0.04548 0,0.01964 -0.0072,0.03617 -0.02067,0.04961 -0.01447,0.01137 -0.03617,0.01654 -0.06615,0.01654 h -1.021126 c -0.03101,0 -0.05271,-0.0052 -0.06615,-0.01654 -0.01447,-0.01344 -0.02067,-0.02997 -0.02067,-0.04961 0,-0.0186 0.0062,-0.03411 0.02067,-0.04548 0.01344,-0.01033 0.03514,-0.01654 0.06615,-0.01654 h 0.446484 v -1.65778 l -0.425814,0.132292 c -0.01964,0.0062 -0.03307,0.0083 -0.04134,0.0083 -0.01654,0 -0.03204,-0.0052 -0.04547,-0.01654 -0.01137,-0.01344 -0.01654,-0.02997 -0.01654,-0.04961 0,-0.01344 0.0041,-0.02687 0.0124,-0.04134 0.0083,-0.0083 0.02584,-0.01757 0.05374,-0.02894 z m 1.879988,1.198893 c 0,0.118856 -0.0155,0.243913 -0.04547,0.376205 -0.03101,0.132291 -0.08992,0.285253 -0.177767,0.458886 -0.08888,0.1757 -0.152962,0.282154 -0.194303,0.318327 -0.01137,0.01034 -0.02377,0.01654 -0.03721,0.01654 -0.01964,0 -0.03617,-0.0072 -0.04961,-0.02067 -0.01137,-0.01137 -0.01653,-0.02481 -0.01653,-0.04134 0,-0.01137 0.0021,-0.02377 0.0083,-0.03721 0.112654,-0.206706 0.194303,-0.393775 0.243913,-0.56224 0.04961,-0.170532 0.07441,-0.340031 0.07441,-0.508496 0,-0.170532 -0.0248,-0.340031 -0.07441,-0.508496 -0.04961,-0.167432 -0.131258,-0.356567 -0.243913,-0.566374 -0.0062,-0.01033 -0.0083,-0.0217 -0.0083,-0.03307 0,-0.01654 0.0052,-0.02997 0.01653,-0.04134 0.01344,-0.01344 0.02997,-0.02067 0.04961,-0.02067 0.01344,0 0.02584,0.0062 0.03721,0.01654 0.03824,0.03307 0.100252,0.135392 0.186035,0.305925 0.08785,0.171565 0.148828,0.322461 0.181901,0.454752 0.03307,0.130225 0.04961,0.260449 0.04961,0.392741 z m 6.296257,0.768945 h -0.219109 l -0.5333,-1.207161 h -0.132292 c -0.03101,0 -0.05271,-0.0052 -0.06615,-0.01654 -0.01447,-0.01344 -0.02067,-0.02997 -0.02067,-0.04961 0,-0.0186 0.0062,-0.03411 0.02067,-0.04548 0.01344,-0.01344 0.03514,-0.02067 0.06615,-0.02067 h 0.487826 c 0.02997,0 0.05168,0.0072 0.06614,0.02067 0.01343,0.01137 0.02067,0.02687 0.02067,0.04548 0,0.01964 -0.0072,0.03617 -0.02067,0.04961 -0.01447,0.01137 -0.03617,0.01654 -0.06614,0.01654 h -0.214974 l 0.475423,1.079004 h 0.05788 l 0.467155,-1.079004 h -0.219108 c -0.03101,0 -0.05271,-0.0052 -0.06615,-0.01654 -0.01137,-0.01344 -0.01653,-0.02997 -0.01653,-0.04961 0,-0.0186 0.0052,-0.03411 0.01653,-0.04548 0.01344,-0.01344 0.03514,-0.02067 0.06615,-0.02067 h 0.49196 c 0.02997,0 0.05168,0.0072 0.06615,0.02067 0.01343,0.01137 0.02067,0.02687 0.02067,0.04548 0,0.01964 -0.0072,0.03617 -0.02067,0.04961 -0.01447,0.01137 -0.03617,0.01654 -0.06615,0.01654 h -0.132292 z m 1.834513,-1.967838 v 1.839681 h 0.446484 c 0.02997,0 0.05168,0.0062 0.06615,0.01654 0.01344,0.01137 0.02067,0.02687 0.02067,0.04548 0,0.01964 -0.0072,0.03617 -0.02067,0.04961 -0.01447,0.01137 -0.03617,0.01654 -0.06615,0.01654 h -1.021126 c -0.03101,0 -0.05271,-0.0052 -0.06615,-0.01654 -0.01447,-0.01344 -0.02067,-0.02997 -0.02067,-0.04961 0,-0.0186 0.0062,-0.03411 0.02067,-0.04548 0.01344,-0.01033 0.03514,-0.01654 0.06615,-0.01654 h 0.446484 v -1.65778 l -0.425814,0.132292 c -0.01964,0.0062 -0.03307,0.0083 -0.04134,0.0083 -0.01653,0 -0.03204,-0.0052 -0.04548,-0.01654 -0.01137,-0.01344 -0.01653,-0.02997 -0.01653,-0.04961 0,-0.01344 0.0041,-0.02687 0.0124,-0.04134 0.0083,-0.0083 0.02584,-0.01757 0.05374,-0.02894 z m 4.432804,0.892969 H 43.05887 c -0.03101,0 -0.05271,-0.0052 -0.06615,-0.01654 -0.01447,-0.01344 -0.02067,-0.02997 -0.02067,-0.04961 0,-0.0186 0.0062,-0.03411 0.02067,-0.04547 0.01344,-0.01344 0.03514,-0.02067 0.06615,-0.02067 h 1.413867 c 0.03307,0 0.05478,0.0072 0.06615,0.02067 0.01343,0.01137 0.02067,0.02687 0.02067,0.04547 0,0.01964 -0.0072,0.03617 -0.02067,0.04961 -0.01137,0.01137 -0.03307,0.01654 -0.06615,0.01654 z m 0,0.467155 H 43.05887 c -0.03101,0 -0.05271,-0.0052 -0.06615,-0.01654 -0.01447,-0.01344 -0.02067,-0.02997 -0.02067,-0.04961 0,-0.0186 0.0062,-0.03411 0.02067,-0.04548 0.01344,-0.01344 0.03514,-0.02067 0.06615,-0.02067 h 1.413867 c 0.03307,0 0.05478,0.0072 0.06615,0.02067 0.01343,0.01137 0.02067,0.02687 0.02067,0.04548 0,0.01964 -0.0072,0.03617 -0.02067,0.04961 -0.01137,0.01137 -0.03307,0.01654 -0.06615,0.01654 z m 3.164664,-1.360124 v 1.839681 h 0.446485 c 0.02997,0 0.05168,0.0062 0.06615,0.01654 0.01344,0.01137 0.02067,0.02687 0.02067,0.04548 0,0.01964 -0.0072,0.03617 -0.02067,0.04961 -0.01447,0.01137 -0.03617,0.01654 -0.06615,0.01654 h -1.021127 c -0.03101,0 -0.05271,-0.0052 -0.06615,-0.01654 -0.01447,-0.01344 -0.02067,-0.02997 -0.02067,-0.04961 0,-0.0186 0.0062,-0.03411 0.02067,-0.04548 0.01344,-0.01033 0.03514,-0.01654 0.06615,-0.01654 h 0.446485 v -1.65778 l -0.425814,0.132292 c -0.01964,0.0062 -0.03307,0.0083 -0.04134,0.0083 -0.01653,0 -0.03204,-0.0052 -0.04548,-0.01654 -0.01137,-0.01344 -0.01653,-0.02997 -0.01653,-0.04961 0,-0.01344 0.0041,-0.02687 0.0124,-0.04134 0.0083,-0.0083 0.02584,-0.01757 0.05374,-0.02894 z m 2.417424,0.839225 v 0.318327 c 0,0.28112 -0.06615,0.503328 -0.198438,0.665592 -0.10542,0.127124 -0.237711,0.19017 -0.396875,0.19017 -0.07441,0 -0.146761,-0.0155 -0.214974,-0.04548 -0.06614,-0.02997 -0.12299,-0.07235 -0.169498,-0.128157 -0.03101,-0.03307 -0.06408,-0.08682 -0.09922,-0.161231 -0.03617,-0.07648 -0.06201,-0.145727 -0.07855,-0.206705 -0.02274,-0.09095 -0.03307,-0.195337 -0.03307,-0.314193 v -0.318327 c 0,-0.28112 0.06615,-0.502295 0.198437,-0.665592 0.104387,-0.129191 0.235645,-0.194304 0.392741,-0.194304 0.07648,0 0.148828,0.0155 0.214974,0.04548 0.06821,0.03101 0.126091,0.07338 0.173633,0.128157 0.02997,0.03617 0.06304,0.09302 0.09922,0.169499 0.03514,0.07441 0.06201,0.142627 0.07855,0.202572 0.0217,0.08888 0.03307,0.193269 0.03307,0.314192 z m -0.128158,0.01654 c 0,-0.124024 -0.0186,-0.237712 -0.05374,-0.343132 -0.03307,-0.104386 -0.07235,-0.188102 -0.115755,-0.252181 -0.0279,-0.03514 -0.06098,-0.06718 -0.09922,-0.09508 -0.06098,-0.03514 -0.127124,-0.05374 -0.198438,-0.05374 -0.146761,0 -0.260449,0.07441 -0.343131,0.223242 -0.08268,0.148828 -0.124024,0.322461 -0.124024,0.520899 v 0.285254 c 0,0.121956 0.01654,0.235644 0.04961,0.343131 0.03514,0.10542 0.07545,0.189136 0.119889,0.252181 0.0248,0.03617 0.05788,0.06615 0.09922,0.09095 0.05788,0.03927 0.124023,0.05788 0.198437,0.05788 0.145728,0 0.260449,-0.07441 0.343132,-0.223242 0.08268,-0.148828 0.124023,-0.322461 0.124023,-0.520898 z M 28.045833,70.98584 c 0,-0.117823 0.01447,-0.243913 0.04548,-0.376205 0.03307,-0.134359 0.09198,-0.289388 0.177766,-0.463021 0.08785,-0.173633 0.152963,-0.278019 0.194304,-0.314193 0.01034,-0.01033 0.0248,-0.01654 0.04134,-0.01654 0.01654,0 0.03101,0.0072 0.04547,0.02067 0.01344,0.01137 0.02067,0.0248 0.02067,0.04134 0,0.01137 -0.0041,0.02274 -0.0124,0.03307 -0.113689,0.209806 -0.194304,0.398942 -0.243913,0.566373 -0.04754,0.168465 -0.07028,0.337964 -0.07028,0.508497 0,0.168465 0.02274,0.337963 0.07028,0.508496 0.04961,0.168465 0.130224,0.355533 0.243913,0.562239 0.0083,0.01344 0.0124,0.02584 0.0124,0.03721 0,0.01654 -0.0072,0.02997 -0.02067,0.04134 -0.01447,0.01344 -0.02894,0.02067 -0.04547,0.02067 -0.01654,0 -0.03101,-0.0062 -0.04134,-0.01653 -0.03927,-0.03617 -0.10232,-0.139527 -0.190169,-0.310059 -0.08578,-0.167432 -0.144694,-0.31626 -0.177767,-0.446484 -0.03307,-0.132292 -0.04961,-0.264583 -0.04961,-0.396875 z m 1.363224,0.640787 h 0.996322 v -0.05374 c 0,-0.02997 0.0052,-0.05168 0.01654,-0.06615 0.01344,-0.01344 0.02997,-0.02067 0.04961,-0.02067 0.0186,0 0.03411,0.0072 0.04547,0.02067 0.01344,0.01447 0.02067,0.03617 0.02067,0.06615 v 0.181901 H 29.2809 v -0.190169 c 0.264583,-0.236679 0.520898,-0.477491 0.768945,-0.723471 0.115755,-0.115755 0.195337,-0.19947 0.239779,-0.25218 0.04341,-0.05478 0.07235,-0.101286 0.08682,-0.14056 0.01654,-0.04134 0.02481,-0.08268 0.02481,-0.124024 0,-0.112655 -0.04547,-0.211873 -0.136426,-0.297656 -0.08888,-0.08475 -0.19637,-0.128158 -0.322461,-0.128158 -0.113688,0 -0.21394,0.03307 -0.30179,0.09922 -0.08578,0.06408 -0.142627,0.143661 -0.169499,0.239779 -0.0062,0.0248 -0.0124,0.04134 -0.02067,0.04961 -0.01447,0.0083 -0.02894,0.0124 -0.04548,0.0124 -0.01654,0 -0.03204,-0.0052 -0.04547,-0.01654 -0.01137,-0.01033 -0.01654,-0.0248 -0.01654,-0.04134 0,-0.04961 0.02687,-0.115755 0.08268,-0.198437 0.05478,-0.08475 0.129191,-0.152964 0.223242,-0.202573 0.09612,-0.04961 0.194303,-0.07441 0.293522,-0.07441 0.162264,0 0.301791,0.05684 0.417546,0.169498 0.115755,0.113688 0.173633,0.241846 0.173633,0.384473 0,0.05788 -0.01034,0.113688 -0.02894,0.165365 -0.01964,0.04961 -0.05271,0.105419 -0.09922,0.165364 -0.04754,0.05788 -0.131258,0.146761 -0.252181,0.264584 -0.305924,0.300756 -0.553971,0.5333 -0.74414,0.698665 z m 2.500106,-0.640787 c 0,0.118855 -0.0155,0.243912 -0.04547,0.376204 -0.03101,0.132292 -0.08992,0.285254 -0.177767,0.458886 -0.08888,0.1757 -0.152962,0.282154 -0.194303,0.318327 -0.01137,0.01034 -0.02377,0.01654 -0.03721,0.01654 -0.01964,0 -0.03617,-0.0072 -0.04961,-0.02067 -0.01137,-0.01137 -0.01653,-0.0248 -0.01653,-0.04134 0,-0.01137 0.0021,-0.02377 0.0083,-0.03721 0.112654,-0.206706 0.194303,-0.393775 0.243913,-0.56224 0.04961,-0.170532 0.07441,-0.34003 0.07441,-0.508495 0,-0.170533 -0.0248,-0.340032 -0.07441,-0.508497 -0.04961,-0.167431 -0.131258,-0.356567 -0.243913,-0.566373 -0.0062,-0.01034 -0.0083,-0.0217 -0.0083,-0.03307 0,-0.01654 0.0052,-0.02997 0.01653,-0.04134 0.01344,-0.01344 0.02997,-0.02067 0.04961,-0.02067 0.01344,0 0.02584,0.0062 0.03721,0.01654 0.03824,0.03307 0.100252,0.135393 0.186035,0.305925 0.08785,0.171566 0.148828,0.322461 0.181901,0.454752 0.03307,0.130225 0.04961,0.26045 0.04961,0.392742 z m 6.296257,0.768945 h -0.219109 l -0.5333,-1.207162 h -0.132292 c -0.03101,0 -0.05271,-0.0052 -0.06615,-0.01653 -0.01447,-0.01344 -0.02067,-0.02997 -0.02067,-0.04961 0,-0.0186 0.0062,-0.03411 0.02067,-0.04547 0.01344,-0.01344 0.03514,-0.02067 0.06615,-0.02067 h 0.487826 c 0.02997,0 0.05168,0.0072 0.06614,0.02067 0.01343,0.01137 0.02067,0.02687 0.02067,0.04547 0,0.01964 -0.0072,0.03617 -0.02067,0.04961 -0.01447,0.01137 -0.03617,0.01653 -0.06614,0.01653 h -0.214974 l 0.475423,1.079004 h 0.05788 l 0.467155,-1.079004 h -0.219108 c -0.03101,0 -0.05271,-0.0052 -0.06615,-0.01653 -0.01137,-0.01344 -0.01653,-0.02997 -0.01653,-0.04961 0,-0.0186 0.0052,-0.03411 0.01653,-0.04547 0.01344,-0.01344 0.03514,-0.02067 0.06615,-0.02067 h 0.49196 c 0.02997,0 0.05168,0.0072 0.06615,0.02067 0.01343,0.01137 0.02067,0.02687 0.02067,0.04547 0,0.01964 -0.0072,0.03617 -0.02067,0.04961 -0.01447,0.01137 -0.03617,0.01653 -0.06615,0.01653 h -0.132292 z m 1.214395,-0.128158 h 0.996322 v -0.05374 c 0,-0.02997 0.0052,-0.05168 0.01653,-0.06615 0.01344,-0.01344 0.02997,-0.02067 0.04961,-0.02067 0.0186,0 0.03411,0.0072 0.04547,0.02067 0.01344,0.01447 0.02067,0.03617 0.02067,0.06615 v 0.181901 h -1.25677 v -0.190169 c 0.264583,-0.236679 0.520898,-0.477491 0.768945,-0.723471 0.115755,-0.115755 0.195337,-0.19947 0.239779,-0.25218 0.04341,-0.05478 0.07235,-0.101286 0.08682,-0.14056 0.01654,-0.04134 0.0248,-0.08268 0.0248,-0.124024 0,-0.112655 -0.04548,-0.211873 -0.136426,-0.297656 -0.08888,-0.08475 -0.19637,-0.128158 -0.322461,-0.128158 -0.113688,0 -0.21394,0.03307 -0.30179,0.09922 -0.08578,0.06408 -0.142627,0.143661 -0.169499,0.239779 -0.0062,0.0248 -0.0124,0.04134 -0.02067,0.04961 -0.01447,0.0083 -0.02894,0.0124 -0.04548,0.0124 -0.01653,0 -0.03204,-0.0052 -0.04548,-0.01654 -0.01137,-0.01033 -0.01653,-0.0248 -0.01653,-0.04134 0,-0.04961 0.02687,-0.115755 0.08268,-0.198437 0.05478,-0.08475 0.129191,-0.152963 0.223242,-0.202572 0.09612,-0.04961 0.194304,-0.07441 0.293522,-0.07441 0.162264,0 0.301791,0.05684 0.417546,0.169499 0.115755,0.113688 0.173633,0.241845 0.173633,0.384472 0,0.05788 -0.01034,0.113688 -0.02894,0.165365 -0.01964,0.04961 -0.05271,0.10542 -0.09922,0.165365 -0.04754,0.05788 -0.131258,0.14676 -0.252181,0.264583 -0.305925,0.300757 -0.553972,0.533301 -0.744141,0.698665 z m 5.052922,-0.946712 H 43.05887 c -0.03101,0 -0.05271,-0.0052 -0.06615,-0.01654 -0.01447,-0.01344 -0.02067,-0.02997 -0.02067,-0.04961 0,-0.0186 0.0062,-0.03411 0.02067,-0.04547 0.01344,-0.01344 0.03514,-0.02067 0.06615,-0.02067 h 1.413867 c 0.03307,0 0.05478,0.0072 0.06615,0.02067 0.01343,0.01137 0.02067,0.02687 0.02067,0.04547 0,0.01964 -0.0072,0.03617 -0.02067,0.04961 -0.01137,0.01137 -0.03307,0.01654 -0.06615,0.01654 z m 0,0.467155 H 43.05887 c -0.03101,0 -0.05271,-0.0052 -0.06615,-0.01654 -0.01447,-0.01344 -0.02067,-0.02997 -0.02067,-0.04961 0,-0.01861 0.0062,-0.03411 0.02067,-0.04547 0.01344,-0.01344 0.03514,-0.02067 0.06615,-0.02067 h 1.413867 c 0.03307,0 0.05478,0.0072 0.06615,0.02067 0.01343,0.01137 0.02067,0.02687 0.02067,0.04547 0,0.01964 -0.0072,0.03617 -0.02067,0.04961 -0.01137,0.01137 -0.03307,0.01654 -0.06615,0.01654 z m 2.544547,0.479557 h 0.996322 v -0.05374 c 0,-0.02997 0.0052,-0.05168 0.01653,-0.06615 0.01344,-0.01344 0.02997,-0.02067 0.04961,-0.02067 0.0186,0 0.03411,0.0072 0.04548,0.02067 0.01344,0.01447 0.02067,0.03617 0.02067,0.06615 v 0.181901 h -1.256771 v -0.190169 c 0.264584,-0.236679 0.520899,-0.477491 0.768946,-0.723471 0.115755,-0.115755 0.195336,-0.19947 0.239778,-0.25218 0.04341,-0.05478 0.07235,-0.101286 0.08682,-0.14056 0.01653,-0.04134 0.0248,-0.08268 0.0248,-0.124024 0,-0.112655 -0.04548,-0.211873 -0.136426,-0.297656 -0.08888,-0.08475 -0.19637,-0.128158 -0.322461,-0.128158 -0.113688,0 -0.21394,0.03307 -0.30179,0.09922 -0.08578,0.06408 -0.142627,0.143661 -0.169499,0.239779 -0.0062,0.0248 -0.0124,0.04134 -0.02067,0.04961 -0.01447,0.0083 -0.02894,0.0124 -0.04548,0.0124 -0.01653,0 -0.03204,-0.0052 -0.04547,-0.01654 -0.01137,-0.01033 -0.01653,-0.0248 -0.01653,-0.04134 0,-0.04961 0.02687,-0.115755 0.08268,-0.198437 0.05478,-0.08475 0.129192,-0.152963 0.223243,-0.202572 0.09612,-0.04961 0.194303,-0.07441 0.293522,-0.07441 0.162264,0 0.30179,0.05684 0.417546,0.169499 0.115755,0.113688 0.173632,0.241845 0.173632,0.384472 0,0.05788 -0.01034,0.113688 -0.02894,0.165365 -0.01964,0.04961 -0.05271,0.10542 -0.09922,0.165365 -0.04754,0.05788 -0.131258,0.14676 -0.252181,0.264583 -0.305924,0.300757 -0.553971,0.533301 -0.744141,0.698665 z m 3.037541,-1.000456 v 0.318327 c 0,0.28112 -0.06615,0.503329 -0.198438,0.665593 -0.10542,0.127124 -0.237711,0.190169 -0.396875,0.190169 -0.07441,0 -0.146761,-0.01551 -0.214974,-0.04547 -0.06614,-0.02997 -0.12299,-0.07235 -0.169498,-0.128158 -0.03101,-0.03307 -0.06408,-0.08682 -0.09922,-0.16123 -0.03617,-0.07648 -0.06201,-0.145728 -0.07855,-0.206706 -0.02274,-0.09095 -0.03307,-0.195337 -0.03307,-0.314193 v -0.318327 c 0,-0.281119 0.06615,-0.502294 0.198437,-0.665592 0.104387,-0.129191 0.235645,-0.194303 0.392741,-0.194303 0.07648,0 0.148828,0.0155 0.214974,0.04547 0.06821,0.03101 0.126091,0.07338 0.173633,0.128157 0.02997,0.03617 0.06304,0.09302 0.09922,0.169499 0.03514,0.07441 0.06201,0.142627 0.07855,0.202572 0.0217,0.08888 0.03307,0.19327 0.03307,0.314192 z m -0.128158,0.01653 c 0,-0.124023 -0.0186,-0.237712 -0.05374,-0.343131 -0.03307,-0.104387 -0.07235,-0.188103 -0.115755,-0.252181 -0.0279,-0.03514 -0.06098,-0.06718 -0.09922,-0.09509 -0.06098,-0.03514 -0.127124,-0.05374 -0.198438,-0.05374 -0.146761,0 -0.260449,0.07441 -0.343131,0.223242 -0.08268,0.148828 -0.124024,0.322461 -0.124024,0.520898 v 0.285254 c 0,0.121956 0.01654,0.235645 0.04961,0.343131 0.03514,0.10542 0.07545,0.189136 0.119889,0.252181 0.0248,0.03617 0.05788,0.06615 0.09922,0.09095 0.05788,0.03927 0.124023,0.05788 0.198437,0.05788 0.145728,0 0.260449,-0.07441 0.343132,-0.223242 0.08268,-0.148829 0.124023,-0.322462 0.124023,-0.520899 z m -21.880834,5.295802 c 0,-0.117822 0.01447,-0.243912 0.04548,-0.376204 0.03307,-0.134359 0.09198,-0.289388 0.177766,-0.463021 0.08785,-0.173633 0.152963,-0.278019 0.194304,-0.314192 0.01034,-0.01034 0.0248,-0.01654 0.04134,-0.01654 0.01654,0 0.03101,0.0072 0.04547,0.02067 0.01344,0.01137 0.02067,0.0248 0.02067,0.04134 0,0.01137 -0.0041,0.02274 -0.0124,0.03307 -0.113689,0.209806 -0.194304,0.398942 -0.243913,0.566374 -0.04754,0.168465 -0.07028,0.337964 -0.07028,0.508496 0,0.168465 0.02274,0.337964 0.07028,0.508496 0.04961,0.168465 0.130224,0.355534 0.243913,0.562239 0.0083,0.01344 0.0124,0.02584 0.0124,0.03721 0,0.01654 -0.0072,0.02997 -0.02067,0.04134 -0.01447,0.01344 -0.02894,0.02067 -0.04547,0.02067 -0.01654,0 -0.03101,-0.0062 -0.04134,-0.01653 -0.03927,-0.03617 -0.10232,-0.139527 -0.190169,-0.310059 -0.08578,-0.167432 -0.144694,-0.31626 -0.177767,-0.446485 -0.03307,-0.132291 -0.04961,-0.264583 -0.04961,-0.396875 z m 2.185913,-0.285254 c 0.120923,0.05271 0.211874,0.126091 0.272852,0.219109 0.06304,0.09405 0.09508,0.190169 0.09508,0.289388 0,0.157096 -0.06408,0.295589 -0.190169,0.413411 -0.124023,0.118856 -0.28112,0.177767 -0.471289,0.177767 -0.110587,0 -0.226343,-0.02377 -0.347265,-0.07028 -0.118856,-0.04651 -0.201539,-0.09509 -0.248047,-0.144694 -0.01654,-0.01654 -0.0248,-0.03411 -0.0248,-0.05374 0,-0.01653 0.0052,-0.02997 0.01654,-0.04134 0.01343,-0.01344 0.02894,-0.02067 0.04547,-0.02067 0.01654,0 0.03411,0.0083 0.05374,0.0248 0.159164,0.118856 0.328662,0.177767 0.508496,0.177767 0.148829,0 0.273885,-0.04651 0.376205,-0.14056 0.101286,-0.09612 0.152962,-0.202571 0.152962,-0.318327 0,-0.07648 -0.0248,-0.150895 -0.07441,-0.223242 -0.04961,-0.07441 -0.121956,-0.132291 -0.214974,-0.173633 -0.09405,-0.04341 -0.189136,-0.06615 -0.285254,-0.06615 -0.03101,0 -0.05271,-0.0052 -0.06615,-0.01653 -0.01447,-0.01344 -0.02067,-0.02997 -0.02067,-0.04961 0,-0.0186 0.0052,-0.03411 0.01654,-0.04548 0.01344,-0.01344 0.03411,-0.02067 0.06201,-0.02067 h 0.111621 c 0.115755,0 0.21084,-0.03411 0.285254,-0.103353 0.07648,-0.07131 0.115755,-0.153996 0.115755,-0.248046 0,-0.09612 -0.04031,-0.181901 -0.119889,-0.256316 -0.08062,-0.07441 -0.183968,-0.111621 -0.310059,-0.111621 -0.09095,0 -0.173633,0.01551 -0.248047,0.04547 -0.07441,0.03101 -0.135392,0.07338 -0.181901,0.128158 -0.01654,0.01964 -0.02894,0.03204 -0.03721,0.03721 -0.0083,0.0062 -0.0186,0.0083 -0.02894,0.0083 -0.01964,0 -0.03617,-0.0052 -0.04961,-0.01654 -0.01137,-0.01344 -0.01654,-0.02894 -0.01654,-0.04547 0,-0.04134 0.04547,-0.09302 0.136425,-0.157096 0.124024,-0.08785 0.265617,-0.132292 0.425814,-0.132292 0.162264,0 0.295589,0.04961 0.401009,0.148828 0.107487,0.09922 0.161231,0.217041 0.161231,0.3514 0,0.08888 -0.02687,0.171566 -0.07855,0.248047 -0.04961,0.07751 -0.124024,0.139526 -0.223243,0.186035 z m 1.677417,0.285254 c 0,0.118856 -0.0155,0.243913 -0.04547,0.376205 -0.03101,0.132291 -0.08992,0.285254 -0.177767,0.458887 -0.08888,0.175699 -0.152962,0.282153 -0.194303,0.318326 -0.01137,0.01034 -0.02377,0.01654 -0.03721,0.01654 -0.01964,0 -0.03617,-0.0072 -0.04961,-0.02067 -0.01137,-0.01137 -0.01653,-0.0248 -0.01653,-0.04134 0,-0.01137 0.0021,-0.02377 0.0083,-0.03721 0.112654,-0.206705 0.194303,-0.393774 0.243913,-0.562239 0.04961,-0.170532 0.07441,-0.34003 0.07441,-0.508496 0,-0.170532 -0.0248,-0.34003 -0.07441,-0.508496 -0.04961,-0.167431 -0.131258,-0.356567 -0.243913,-0.566373 -0.0062,-0.01034 -0.0083,-0.0217 -0.0083,-0.03307 0,-0.01654 0.0052,-0.02997 0.01653,-0.04134 0.01344,-0.01344 0.02997,-0.02067 0.04961,-0.02067 0.01344,0 0.02584,0.0062 0.03721,0.01653 0.03824,0.03307 0.100252,0.135392 0.186035,0.305925 0.08785,0.171565 0.148828,0.322461 0.181901,0.454752 0.03307,0.130225 0.04961,0.260449 0.04961,0.392741 z m 6.296257,0.768946 h -0.219109 l -0.5333,-1.207162 h -0.132292 c -0.03101,0 -0.05271,-0.0052 -0.06615,-0.01653 -0.01447,-0.01344 -0.02067,-0.02997 -0.02067,-0.04961 0,-0.01861 0.0062,-0.03411 0.02067,-0.04547 0.01344,-0.01344 0.03514,-0.02067 0.06615,-0.02067 h 0.487826 c 0.02997,0 0.05168,0.0072 0.06614,0.02067 0.01343,0.01137 0.02067,0.02687 0.02067,0.04547 0,0.01964 -0.0072,0.03617 -0.02067,0.04961 -0.01447,0.01137 -0.03617,0.01653 -0.06614,0.01653 h -0.214974 l 0.475423,1.079004 h 0.05788 l 0.467155,-1.079004 h -0.219108 c -0.03101,0 -0.05271,-0.0052 -0.06615,-0.01653 -0.01137,-0.01344 -0.01653,-0.02997 -0.01653,-0.04961 0,-0.01861 0.0052,-0.03411 0.01653,-0.04547 0.01344,-0.01344 0.03514,-0.02067 0.06615,-0.02067 h 0.49196 c 0.02997,0 0.05168,0.0072 0.06615,0.02067 0.01343,0.01137 0.02067,0.02687 0.02067,0.04547 0,0.01964 -0.0072,0.03617 -0.02067,0.04961 -0.01447,0.01137 -0.03617,0.01653 -0.06615,0.01653 h -0.132292 z m 2.037084,-1.0542 c 0.120923,0.05271 0.211874,0.126091 0.272852,0.219109 0.06305,0.09405 0.09508,0.190169 0.09508,0.289388 0,0.157096 -0.06408,0.295589 -0.190169,0.413411 -0.124023,0.118856 -0.28112,0.177767 -0.471289,0.177767 -0.110587,0 -0.226343,-0.02377 -0.347266,-0.07028 -0.118855,-0.04651 -0.201538,-0.09509 -0.248047,-0.144694 -0.01653,-0.01654 -0.0248,-0.03411 -0.0248,-0.05374 0,-0.01653 0.0052,-0.02997 0.01653,-0.04134 0.01344,-0.01344 0.02894,-0.02067 0.04548,-0.02067 0.01653,0 0.03411,0.0083 0.05374,0.0248 0.159164,0.118856 0.328662,0.177767 0.508496,0.177767 0.148828,0 0.273885,-0.04651 0.376204,-0.14056 0.101286,-0.09612 0.152963,-0.202571 0.152963,-0.318327 0,-0.07648 -0.0248,-0.150895 -0.07441,-0.223242 -0.04961,-0.07441 -0.121957,-0.132291 -0.214974,-0.173633 -0.09405,-0.04341 -0.189136,-0.06615 -0.285254,-0.06615 -0.03101,0 -0.05271,-0.0052 -0.06615,-0.01653 -0.01447,-0.01344 -0.02067,-0.02997 -0.02067,-0.04961 0,-0.0186 0.0052,-0.03411 0.01653,-0.04548 0.01344,-0.01344 0.03411,-0.02067 0.06201,-0.02067 h 0.111622 c 0.115755,0 0.210839,-0.03411 0.285253,-0.103353 0.07648,-0.07131 0.115755,-0.153996 0.115755,-0.248046 0,-0.09612 -0.04031,-0.181901 -0.119889,-0.256316 -0.08062,-0.07441 -0.183968,-0.111621 -0.310059,-0.111621 -0.09095,0 -0.173632,0.01551 -0.248046,0.04547 -0.07441,0.03101 -0.135393,0.07338 -0.181901,0.128158 -0.01654,0.01964 -0.02894,0.03204 -0.03721,0.03721 -0.0083,0.0062 -0.01861,0.0083 -0.02894,0.0083 -0.01964,0 -0.03617,-0.0052 -0.04961,-0.01654 -0.01137,-0.01344 -0.01654,-0.02894 -0.01654,-0.04547 0,-0.04134 0.04548,-0.09302 0.136426,-0.157096 0.124024,-0.08785 0.265617,-0.132292 0.425814,-0.132292 0.162264,0 0.295589,0.04961 0.401009,0.148828 0.107487,0.09922 0.16123,0.217041 0.16123,0.3514 0,0.08888 -0.02687,0.171566 -0.07855,0.248047 -0.04961,0.07751 -0.124023,0.139526 -0.223242,0.186035 z m 4.230233,-0.02067 H 43.05887 c -0.03101,0 -0.05271,-0.0052 -0.06615,-0.01654 -0.01447,-0.01344 -0.02067,-0.02997 -0.02067,-0.04961 0,-0.01861 0.0062,-0.03411 0.02067,-0.04548 0.01344,-0.01344 0.03514,-0.02067 0.06615,-0.02067 h 1.413867 c 0.03307,0 0.05478,0.0072 0.06615,0.02067 0.01343,0.01137 0.02067,0.02687 0.02067,0.04548 0,0.01964 -0.0072,0.03617 -0.02067,0.04961 -0.01137,0.01137 -0.03307,0.01654 -0.06615,0.01654 z m 0,0.467155 H 43.05887 c -0.03101,0 -0.05271,-0.0052 -0.06615,-0.01654 -0.01447,-0.01344 -0.02067,-0.02997 -0.02067,-0.04961 0,-0.0186 0.0062,-0.03411 0.02067,-0.04547 0.01344,-0.01344 0.03514,-0.02067 0.06615,-0.02067 h 1.413867 c 0.03307,0 0.05478,0.0072 0.06615,0.02067 0.01343,0.01137 0.02067,0.02687 0.02067,0.04547 0,0.01964 -0.0072,0.03617 -0.02067,0.04961 -0.01137,0.01137 -0.03307,0.01654 -0.06615,0.01654 z m 3.214274,0.607715 H 47.467903 L 46.934602,75.500291 H 46.80231 c -0.03101,0 -0.05271,-0.0052 -0.06615,-0.01654 -0.01447,-0.01344 -0.02067,-0.02997 -0.02067,-0.04961 0,-0.0186 0.0062,-0.03411 0.02067,-0.04547 0.01344,-0.01344 0.03514,-0.02067 0.06615,-0.02067 h 0.487826 c 0.02997,0 0.05168,0.0072 0.06615,0.02067 0.01344,0.01137 0.02067,0.02687 0.02067,0.04547 0,0.01964 -0.0072,0.03617 -0.02067,0.04961 -0.01447,0.01137 -0.03617,0.01654 -0.06615,0.01654 h -0.214974 l 0.475423,1.079003 h 0.05788 l 0.467155,-1.079003 h -0.219108 c -0.03101,0 -0.05271,-0.0052 -0.06615,-0.01654 -0.01137,-0.01344 -0.01653,-0.02997 -0.01653,-0.04961 0,-0.0186 0.0052,-0.03411 0.01653,-0.04547 0.01344,-0.01344 0.03514,-0.02067 0.06615,-0.02067 h 0.49196 c 0.02997,0 0.05168,0.0072 0.06615,0.02067 0.01344,0.01137 0.02067,0.02687 0.02067,0.04547 0,0.01964 -0.0072,0.03617 -0.02067,0.04961 -0.01447,0.01137 -0.03617,0.01654 -0.06615,0.01654 H 48.21618 Z m 1.834513,-1.967839 v 1.839681 h 0.446484 c 0.02997,0 0.05168,0.0062 0.06615,0.01653 0.01344,0.01137 0.02067,0.02687 0.02067,0.04548 0,0.01964 -0.0072,0.03617 -0.02067,0.04961 -0.01447,0.01137 -0.03617,0.01653 -0.06615,0.01653 h -1.021126 c -0.03101,0 -0.05271,-0.0052 -0.06615,-0.01653 -0.01447,-0.01344 -0.02067,-0.02997 -0.02067,-0.04961 0,-0.01861 0.0062,-0.03411 0.02067,-0.04548 0.01344,-0.01034 0.03514,-0.01653 0.06615,-0.01653 h 0.446484 v -1.65778 l -0.425814,0.132292 c -0.01964,0.0062 -0.03307,0.0083 -0.04134,0.0083 -0.01653,0 -0.03204,-0.0052 -0.04548,-0.01653 -0.01137,-0.01344 -0.01653,-0.02997 -0.01653,-0.04961 0,-0.01344 0.0041,-0.02687 0.0124,-0.04134 0.0083,-0.0083 0.02584,-0.01757 0.05374,-0.02894 z m 3.81372,1.128613 v 0.649056 c 0,0.03101 -0.0072,0.05271 -0.02067,0.06615 -0.01137,0.01447 -0.02687,0.02067 -0.04547,0.02067 -0.01964,0 -0.03617,-0.0062 -0.04961,-0.02067 -0.01137,-0.01344 -0.01653,-0.03514 -0.01653,-0.06615 v -0.649056 h -0.574642 c -0.03101,0 -0.05271,-0.0052 -0.06615,-0.01653 -0.01447,-0.01344 -0.02067,-0.02997 -0.02067,-0.04961 0,-0.0186 0.0062,-0.03411 0.02067,-0.04547 0.01344,-0.01344 0.03514,-0.02067 0.06615,-0.02067 h 0.574642 v -0.644926 c 0,-0.02997 0.0052,-0.05168 0.01653,-0.06615 0.01344,-0.01344 0.02997,-0.02067 0.04961,-0.02067 0.0186,0 0.03411,0.0072 0.04547,0.02067 0.01344,0.01447 0.02067,0.03617 0.02067,0.06615 v 0.644922 h 0.574642 c 0.02997,0 0.05168,0.0072 0.06615,0.02067 0.01344,0.01137 0.02067,0.02687 0.02067,0.04547 0,0.01964 -0.0072,0.03617 -0.02067,0.04961 -0.01447,0.01137 -0.03617,0.01654 -0.06615,0.01654 z m 3.834391,0.839226 h -0.219107 l -0.533301,-1.207161 h -0.132292 c -0.03101,0 -0.05271,-0.0052 -0.06615,-0.01654 -0.01447,-0.01344 -0.02067,-0.02997 -0.02067,-0.04961 0,-0.0186 0.0062,-0.03411 0.02067,-0.04547 0.01344,-0.01344 0.03514,-0.02067 0.06615,-0.02067 h 0.487825 c 0.02997,0 0.05168,0.0072 0.06615,0.02067 0.01344,0.01137 0.02067,0.02687 0.02067,0.04547 0,0.01964 -0.0072,0.03617 -0.02067,0.04961 -0.01447,0.01137 -0.03617,0.01654 -0.06615,0.01654 h -0.214974 l 0.475424,1.079003 h 0.05788 l 0.467155,-1.079003 h -0.219108 c -0.03101,0 -0.05271,-0.0052 -0.06615,-0.01654 -0.01137,-0.01344 -0.01653,-0.02997 -0.01653,-0.04961 0,-0.0186 0.0052,-0.03411 0.01653,-0.04547 0.01344,-0.01344 0.03514,-0.02067 0.06615,-0.02067 h 0.49196 c 0.02997,0 0.05168,0.0072 0.06614,0.02067 0.01344,0.01137 0.02067,0.02687 0.02067,0.04547 0,0.01964 -0.0072,0.03617 -0.02067,0.04961 -0.01447,0.01137 -0.03617,0.01654 -0.06614,0.01654 h -0.132292 z m 1.235067,-0.128159 h 0.996322 v -0.05374 c 0,-0.02997 0.0052,-0.05168 0.01653,-0.06615 0.01344,-0.01344 0.02997,-0.02067 0.04961,-0.02067 0.0186,0 0.03411,0.0072 0.04547,0.02067 0.01344,0.01447 0.02067,0.03617 0.02067,0.06615 v 0.181901 h -1.25677 v -0.19017 c 0.264583,-0.236677 0.520898,-0.47749 0.768945,-0.72347 0.115755,-0.115755 0.195337,-0.199471 0.239778,-0.252181 0.04341,-0.05478 0.07235,-0.101285 0.08682,-0.140559 0.01654,-0.04134 0.0248,-0.08268 0.0248,-0.124024 0,-0.112655 -0.04548,-0.211873 -0.136426,-0.297656 -0.08888,-0.08475 -0.19637,-0.128158 -0.322461,-0.128158 -0.113688,0 -0.213941,0.03307 -0.30179,0.09922 -0.08578,0.06408 -0.142627,0.14366 -0.169499,0.239779 -0.0062,0.0248 -0.0124,0.04134 -0.02067,0.04961 -0.01447,0.0083 -0.02894,0.0124 -0.04548,0.0124 -0.01653,0 -0.03204,-0.0052 -0.04548,-0.01654 -0.01137,-0.01034 -0.01653,-0.0248 -0.01653,-0.04134 0,-0.04961 0.02687,-0.115756 0.08268,-0.198438 0.05478,-0.08475 0.129191,-0.152962 0.223242,-0.202572 0.09612,-0.04961 0.194303,-0.07441 0.293522,-0.07441 0.162264,0 0.30179,0.05684 0.417546,0.169498 0.115755,0.113688 0.173632,0.241846 0.173632,0.384473 0,0.05788 -0.01034,0.113688 -0.02894,0.165364 -0.01964,0.04961 -0.05271,0.10542 -0.09922,0.165365 -0.04754,0.05788 -0.131258,0.146761 -0.252181,0.264583 -0.305924,0.300757 -0.553971,0.533301 -0.744141,0.698666 z m -30.358869,4.333586 c 0,-0.117823 0.01447,-0.243913 0.04548,-0.376205 0.03307,-0.134359 0.09198,-0.289388 0.177766,-0.463021 0.08785,-0.173633 0.152963,-0.278019 0.194304,-0.314192 0.01034,-0.01034 0.0248,-0.01654 0.04134,-0.01654 0.01654,0 0.03101,0.0072 0.04547,0.02067 0.01344,0.01137 0.02067,0.0248 0.02067,0.04134 0,0.01137 -0.0041,0.02274 -0.0124,0.03307 -0.113689,0.209807 -0.194304,0.398942 -0.243913,0.566374 -0.04754,0.168465 -0.07028,0.337964 -0.07028,0.508496 0,0.168465 0.02274,0.337964 0.07028,0.508496 0.04961,0.168465 0.130224,0.355534 0.243913,0.562239 0.0083,0.01344 0.0124,0.02584 0.0124,0.03721 0,0.01653 -0.0072,0.02997 -0.02067,0.04134 -0.01447,0.01344 -0.02894,0.02067 -0.04547,0.02067 -0.01654,0 -0.03101,-0.0062 -0.04134,-0.01653 -0.03927,-0.03617 -0.10232,-0.139527 -0.190169,-0.310059 -0.08578,-0.167432 -0.144694,-0.31626 -0.177767,-0.446484 -0.03307,-0.132292 -0.04961,-0.264584 -0.04961,-0.396875 z m 2.161109,0.227376 H 29.347046 V 80.98729 l 0.72347,-1.244369 h 0.268717 v 1.265039 h 0.107487 c 0.03307,0 0.05581,0.0072 0.07028,0.02067 0.01344,0.01137 0.02067,0.02687 0.02067,0.04547 0,0.01964 -0.0072,0.03617 -0.02067,0.04961 -0.01447,0.01137 -0.03721,0.01654 -0.07028,0.01654 h -0.107487 v 0.413411 h 0.107487 c 0.03307,0 0.05581,0.0062 0.07028,0.01654 0.01344,0.01137 0.02067,0.02687 0.02067,0.04547 0,0.01964 -0.0072,0.03617 -0.02067,0.04961 -0.01447,0.01137 -0.03721,0.01653 -0.07028,0.01653 h -0.479557 c -0.03307,0 -0.05684,-0.0052 -0.07028,-0.01653 -0.01447,-0.01344 -0.02067,-0.02997 -0.02067,-0.04961 0,-0.0186 0.0062,-0.03411 0.02067,-0.04547 0.01344,-0.01034 0.03721,-0.01654 0.07028,-0.01654 h 0.239779 z m 0,-0.132292 v -1.136881 h -0.06615 l -0.657324,1.136881 z m 1.702221,-0.09508 c 0,0.118855 -0.0155,0.243912 -0.04547,0.376204 -0.03101,0.132292 -0.08992,0.285254 -0.177767,0.458887 -0.08888,0.175699 -0.152962,0.282153 -0.194303,0.318326 -0.01137,0.01034 -0.02377,0.01654 -0.03721,0.01654 -0.01964,0 -0.03617,-0.0072 -0.04961,-0.02067 -0.01137,-0.01137 -0.01653,-0.0248 -0.01653,-0.04134 0,-0.01137 0.0021,-0.02377 0.0083,-0.03721 0.112654,-0.206705 0.194303,-0.393774 0.243913,-0.562239 0.04961,-0.170532 0.07441,-0.34003 0.07441,-0.508495 0,-0.170533 -0.0248,-0.340031 -0.07441,-0.508496 -0.04961,-0.167432 -0.131258,-0.356568 -0.243913,-0.566374 -0.0062,-0.01034 -0.0083,-0.0217 -0.0083,-0.03307 0,-0.01654 0.0052,-0.02997 0.01653,-0.04134 0.01344,-0.01344 0.02997,-0.02067 0.04961,-0.02067 0.01344,0 0.02584,0.0062 0.03721,0.01653 0.03824,0.03307 0.100252,0.135393 0.186035,0.305925 0.08785,0.171565 0.148828,0.322461 0.181901,0.454752 0.03307,0.130225 0.04961,0.26045 0.04961,0.392741 z m 6.296257,0.768945 h -0.219109 l -0.5333,-1.207161 h -0.132292 c -0.03101,0 -0.05271,-0.0052 -0.06615,-0.01654 -0.01447,-0.01344 -0.02067,-0.02997 -0.02067,-0.04961 0,-0.0186 0.0062,-0.03411 0.02067,-0.04548 0.01344,-0.01344 0.03514,-0.02067 0.06615,-0.02067 h 0.487826 c 0.02997,0 0.05168,0.0072 0.06614,0.02067 0.01343,0.01137 0.02067,0.02687 0.02067,0.04548 0,0.01964 -0.0072,0.03617 -0.02067,0.04961 -0.01447,0.01137 -0.03617,0.01654 -0.06614,0.01654 h -0.214974 l 0.475423,1.079003 h 0.05788 l 0.467155,-1.079003 h -0.219108 c -0.03101,0 -0.05271,-0.0052 -0.06615,-0.01654 -0.01137,-0.01344 -0.01653,-0.02997 -0.01653,-0.04961 0,-0.0186 0.0052,-0.03411 0.01653,-0.04548 0.01344,-0.01344 0.03514,-0.02067 0.06615,-0.02067 h 0.49196 c 0.02997,0 0.05168,0.0072 0.06615,0.02067 0.01343,0.01137 0.02067,0.02687 0.02067,0.04548 0,0.01964 -0.0072,0.03617 -0.02067,0.04961 -0.01447,0.01137 -0.03617,0.01654 -0.06615,0.01654 h -0.132292 z m 2.012279,-0.541569 h -0.859895 v -0.152962 l 0.72347,-1.244369 h 0.268717 v 1.265039 h 0.107487 c 0.03307,0 0.05581,0.0072 0.07028,0.02067 0.01344,0.01137 0.02067,0.02687 0.02067,0.04547 0,0.01964 -0.0072,0.03617 -0.02067,0.04961 -0.01447,0.01137 -0.03721,0.01654 -0.07028,0.01654 h -0.107487 v 0.413411 h 0.107487 c 0.03307,0 0.05581,0.0062 0.07028,0.01654 0.01344,0.01137 0.02067,0.02687 0.02067,0.04547 0,0.01964 -0.0072,0.03617 -0.02067,0.04961 -0.01447,0.01137 -0.03721,0.01653 -0.07028,0.01653 h -0.479557 c -0.03307,0 -0.05684,-0.0052 -0.07028,-0.01653 -0.01447,-0.01344 -0.02067,-0.02997 -0.02067,-0.04961 0,-0.0186 0.0062,-0.03411 0.02067,-0.04547 0.01344,-0.01034 0.03721,-0.01654 0.07028,-0.01654 h 0.239778 z m 0,-0.132292 v -1.136881 h -0.06615 l -0.657324,1.136881 z m 4.255038,-0.401009 H 43.05887 c -0.03101,0 -0.05271,-0.0052 -0.06615,-0.01653 -0.01447,-0.01344 -0.02067,-0.02997 -0.02067,-0.04961 0,-0.0186 0.0062,-0.03411 0.02067,-0.04547 0.01344,-0.01344 0.03514,-0.02067 0.06615,-0.02067 h 1.413867 c 0.03307,0 0.05478,0.0072 0.06615,0.02067 0.01343,0.01137 0.02067,0.02687 0.02067,0.04547 0,0.01964 -0.0072,0.03617 -0.02067,0.04961 -0.01137,0.01137 -0.03307,0.01653 -0.06615,0.01653 z m 0,0.467155 H 43.05887 c -0.03101,0 -0.05271,-0.0052 -0.06615,-0.01654 -0.01447,-0.01344 -0.02067,-0.02997 -0.02067,-0.04961 0,-0.0186 0.0062,-0.03411 0.02067,-0.04547 0.01344,-0.01344 0.03514,-0.02067 0.06615,-0.02067 h 1.413867 c 0.03307,0 0.05478,0.0072 0.06615,0.02067 0.01343,0.01137 0.02067,0.02687 0.02067,0.04547 0,0.01964 -0.0072,0.03617 -0.02067,0.04961 -0.01137,0.01137 -0.03307,0.01654 -0.06615,0.01654 z m 3.214274,0.607715 H 47.467903 L 46.934602,80.474663 H 46.80231 c -0.03101,0 -0.05271,-0.0052 -0.06615,-0.01654 -0.01447,-0.01344 -0.02067,-0.02997 -0.02067,-0.04961 0,-0.0186 0.0062,-0.03411 0.02067,-0.04548 0.01344,-0.01344 0.03514,-0.02067 0.06615,-0.02067 h 0.487826 c 0.02997,0 0.05168,0.0072 0.06615,0.02067 0.01344,0.01137 0.02067,0.02687 0.02067,0.04548 0,0.01964 -0.0072,0.03617 -0.02067,0.04961 -0.01447,0.01137 -0.03617,0.01654 -0.06615,0.01654 h -0.214974 l 0.475423,1.079003 h 0.05788 l 0.467155,-1.079003 h -0.219108 c -0.03101,0 -0.05271,-0.0052 -0.06615,-0.01654 -0.01137,-0.01344 -0.01653,-0.02997 -0.01653,-0.04961 0,-0.0186 0.0052,-0.03411 0.01653,-0.04548 0.01344,-0.01344 0.03514,-0.02067 0.06615,-0.02067 h 0.49196 c 0.02997,0 0.05168,0.0072 0.06615,0.02067 0.01344,0.01137 0.02067,0.02687 0.02067,0.04548 0,0.01964 -0.0072,0.03617 -0.02067,0.04961 -0.01447,0.01137 -0.03617,0.01654 -0.06615,0.01654 H 48.21618 Z m 1.214396,-0.128158 h 0.996321 v -0.05374 c 0,-0.02997 0.0052,-0.05168 0.01653,-0.06615 0.01344,-0.01344 0.02997,-0.02067 0.04961,-0.02067 0.0186,0 0.03411,0.0072 0.04547,0.02067 0.01344,0.01447 0.02067,0.03617 0.02067,0.06615 v 0.181901 h -1.256771 v -0.190169 c 0.264583,-0.236678 0.520899,-0.477491 0.768945,-0.72347 0.115756,-0.115756 0.195337,-0.199472 0.239779,-0.252181 0.04341,-0.05478 0.07235,-0.101286 0.08682,-0.14056 0.01653,-0.04134 0.0248,-0.08268 0.0248,-0.124024 0,-0.112654 -0.04548,-0.211873 -0.136425,-0.297656 -0.08888,-0.08475 -0.196371,-0.128157 -0.322461,-0.128157 -0.113688,0 -0.213941,0.03307 -0.301791,0.09922 -0.08578,0.06408 -0.142627,0.143661 -0.169498,0.239779 -0.0062,0.0248 -0.0124,0.04134 -0.02067,0.04961 -0.01447,0.0083 -0.02894,0.0124 -0.04548,0.0124 -0.01653,0 -0.03204,-0.0052 -0.04547,-0.01654 -0.01137,-0.01034 -0.01654,-0.0248 -0.01654,-0.04134 0,-0.04961 0.02687,-0.115755 0.08268,-0.198438 0.05478,-0.08475 0.129191,-0.152962 0.223243,-0.202571 0.09612,-0.04961 0.194303,-0.07441 0.293522,-0.07441 0.162264,0 0.30179,0.05684 0.417545,0.169498 0.115756,0.113688 0.173633,0.241846 0.173633,0.384473 0,0.05788 -0.01034,0.113688 -0.02894,0.165364 -0.01964,0.04961 -0.05271,0.10542 -0.09922,0.165365 -0.04754,0.05788 -0.131258,0.146761 -0.252181,0.264583 -0.305924,0.300757 -0.553971,0.533301 -0.744141,0.698666 z M 53.335244,80.8426 v 0.649056 c 0,0.03101 -0.0072,0.05271 -0.02067,0.06615 -0.01137,0.01447 -0.02687,0.02067 -0.04547,0.02067 -0.01964,0 -0.03617,-0.0062 -0.04961,-0.02067 -0.01137,-0.01344 -0.01653,-0.03514 -0.01653,-0.06615 V 80.8426 h -0.574642 c -0.03101,0 -0.05271,-0.0052 -0.06615,-0.01654 -0.01447,-0.01344 -0.02067,-0.02997 -0.02067,-0.04961 0,-0.0186 0.0062,-0.03411 0.02067,-0.04547 0.01344,-0.01344 0.03514,-0.02067 0.06615,-0.02067 h 0.574642 v -0.644922 c 0,-0.02997 0.0052,-0.05168 0.01653,-0.06615 0.01344,-0.01344 0.02997,-0.02067 0.04961,-0.02067 0.0186,0 0.03411,0.0072 0.04547,0.02067 0.01344,0.01447 0.02067,0.03617 0.02067,0.06615 v 0.644922 h 0.574642 c 0.02997,0 0.05168,0.0072 0.06615,0.02067 0.01344,0.01137 0.02067,0.02687 0.02067,0.04547 0,0.01964 -0.0072,0.03617 -0.02067,0.04961 -0.01447,0.01137 -0.03617,0.01654 -0.06615,0.01654 z m 3.834391,0.839225 h -0.219107 l -0.533301,-1.207161 h -0.132292 c -0.03101,0 -0.05271,-0.0052 -0.06615,-0.01654 -0.01447,-0.01344 -0.02067,-0.02997 -0.02067,-0.04961 0,-0.0186 0.0062,-0.03411 0.02067,-0.04548 0.01344,-0.01344 0.03514,-0.02067 0.06615,-0.02067 h 0.487825 c 0.02997,0 0.05168,0.0072 0.06615,0.02067 0.01344,0.01137 0.02067,0.02687 0.02067,0.04548 0,0.01964 -0.0072,0.03617 -0.02067,0.04961 -0.01447,0.01137 -0.03617,0.01654 -0.06615,0.01654 h -0.214974 l 0.475424,1.079003 h 0.05788 l 0.467155,-1.079003 h -0.219108 c -0.03101,0 -0.05271,-0.0052 -0.06615,-0.01654 -0.01137,-0.01344 -0.01653,-0.02997 -0.01653,-0.04961 0,-0.0186 0.0052,-0.03411 0.01653,-0.04548 0.01344,-0.01344 0.03514,-0.02067 0.06615,-0.02067 h 0.49196 c 0.02997,0 0.05168,0.0072 0.06614,0.02067 0.01344,0.01137 0.02067,0.02687 0.02067,0.04548 0,0.01964 -0.0072,0.03617 -0.02067,0.04961 -0.01447,0.01137 -0.03617,0.01654 -0.06614,0.01654 h -0.132292 z m 2.057756,-1.054199 c 0.120923,0.05271 0.211873,0.12609 0.272852,0.219108 0.06305,0.09405 0.09508,0.190169 0.09508,0.289388 0,0.157096 -0.06408,0.295589 -0.190169,0.413411 -0.124024,0.118856 -0.28112,0.177767 -0.471289,0.177767 -0.110588,0 -0.226343,-0.02377 -0.347266,-0.07028 -0.118856,-0.04651 -0.201538,-0.09508 -0.248047,-0.144694 -0.01653,-0.01653 -0.0248,-0.03411 -0.0248,-0.05374 0,-0.01654 0.0052,-0.02997 0.01653,-0.04134 0.01344,-0.01344 0.02894,-0.02067 0.04548,-0.02067 0.01653,0 0.03411,0.0083 0.05374,0.0248 0.159163,0.118856 0.328662,0.177767 0.508496,0.177767 0.148828,0 0.273885,-0.04651 0.376204,-0.14056 0.101286,-0.09612 0.152963,-0.202571 0.152963,-0.318327 0,-0.07648 -0.0248,-0.150895 -0.07442,-0.223242 -0.04961,-0.07441 -0.121956,-0.132291 -0.214974,-0.173633 -0.09405,-0.04341 -0.189135,-0.06615 -0.285253,-0.06615 -0.03101,0 -0.05271,-0.0052 -0.06615,-0.01653 -0.01447,-0.01344 -0.02067,-0.02997 -0.02067,-0.04961 0,-0.0186 0.0052,-0.03411 0.01653,-0.04548 0.01344,-0.01344 0.03411,-0.02067 0.06201,-0.02067 h 0.111621 c 0.115755,0 0.21084,-0.03411 0.285254,-0.103352 0.07648,-0.07131 0.115755,-0.153996 0.115755,-0.248047 0,-0.09612 -0.04031,-0.181901 -0.119889,-0.256316 -0.08061,-0.07442 -0.183967,-0.111624 -0.310057,-0.111624 -0.09095,0 -0.173633,0.0155 -0.248047,0.04547 -0.07441,0.031 -0.135392,0.07338 -0.181901,0.128157 -0.01653,0.01964 -0.02894,0.03204 -0.03721,0.03721 -0.0083,0.0062 -0.0186,0.0083 -0.02894,0.0083 -0.01963,0 -0.03617,-0.0052 -0.04961,-0.01653 -0.01137,-0.01344 -0.01653,-0.02894 -0.01653,-0.04548 0,-0.04134 0.04547,-0.09302 0.136426,-0.157096 0.124023,-0.08785 0.265617,-0.132292 0.425814,-0.132292 0.162264,0 0.295589,0.04961 0.401009,0.148828 0.107487,0.09922 0.16123,0.217041 0.16123,0.3514 0,0.08888 -0.02687,0.171566 -0.07855,0.248047 -0.04961,0.07752 -0.124023,0.139526 -0.223242,0.186035 z m -31.181558,5.258593 c 0,-0.117822 0.01447,-0.243913 0.04548,-0.376204 0.03307,-0.134359 0.09198,-0.289388 0.177766,-0.463021 0.08785,-0.173633 0.152963,-0.278019 0.194304,-0.314193 0.01034,-0.01034 0.0248,-0.01653 0.04134,-0.01653 0.01654,0 0.03101,0.0072 0.04547,0.02067 0.01344,0.01137 0.02067,0.0248 0.02067,0.04134 0,0.01137 -0.0041,0.02274 -0.0124,0.03307 -0.113689,0.209806 -0.194304,0.398942 -0.243913,0.566373 -0.04754,0.168466 -0.07028,0.337964 -0.07028,0.508496 0,0.168466 0.02274,0.337964 0.07028,0.508497 0.04961,0.168465 0.130224,0.355533 0.243913,0.562239 0.0083,0.01344 0.0124,0.02584 0.0124,0.03721 0,0.01653 -0.0072,0.02997 -0.02067,0.04134 -0.01447,0.01344 -0.02894,0.02067 -0.04547,0.02067 -0.01654,0 -0.03101,-0.0062 -0.04134,-0.01654 -0.03927,-0.03618 -0.10232,-0.139527 -0.190169,-0.31006 -0.08578,-0.167431 -0.144694,-0.316259 -0.177767,-0.446484 -0.03307,-0.132292 -0.04961,-0.264583 -0.04961,-0.396875 z m 1.561662,-1.041797 v 0.636654 c 0.07648,-0.02997 0.149862,-0.05374 0.219108,-0.07028 0.07131,-0.01653 0.138493,-0.0248 0.202572,-0.0248 0.162264,0 0.297656,0.05788 0.405143,0.173633 0.109554,0.113688 0.165364,0.263549 0.165364,0.450618 0,0.204639 -0.06201,0.371037 -0.186035,0.500228 -0.121956,0.127124 -0.275952,0.190169 -0.463021,0.190169 -0.121956,0 -0.238745,-0.0279 -0.351399,-0.08268 -0.08268,-0.03514 -0.156063,-0.08268 -0.219108,-0.14056 -0.04134,-0.03307 -0.06201,-0.06201 -0.06201,-0.08682 0,-0.01653 0.0052,-0.03101 0.01654,-0.04547 0.01344,-0.01344 0.02894,-0.02067 0.04548,-0.02067 0.0186,0 0.03824,0.01034 0.05788,0.02894 0.153996,0.146761 0.323495,0.219108 0.508496,0.219108 0.150896,0 0.276986,-0.05064 0.376205,-0.152962 0.09922,-0.104387 0.148828,-0.243913 0.148828,-0.417546 0,-0.145728 -0.04444,-0.262516 -0.132292,-0.351399 -0.08578,-0.09095 -0.19327,-0.136426 -0.322461,-0.136426 -0.135392,0 -0.270784,0.03617 -0.405143,0.107486 -0.03307,0.01654 -0.05684,0.0248 -0.07028,0.0248 -0.01964,0 -0.03514,-0.0052 -0.04547,-0.01653 -0.01137,-0.01344 -0.01654,-0.03101 -0.01654,-0.05374 v -0.859896 h 0.905371 c 0.02997,0 0.05168,0.0072 0.06615,0.02067 0.01344,0.01137 0.02067,0.02687 0.02067,0.04548 0,0.01653 -0.0072,0.03204 -0.02067,0.04548 -0.01447,0.01137 -0.03617,0.01653 -0.06615,0.01653 z m 2.301668,1.041797 c 0,0.118856 -0.0155,0.243913 -0.04547,0.376205 -0.03101,0.132291 -0.08992,0.285253 -0.177767,0.458886 -0.08888,0.1757 -0.152962,0.282153 -0.194303,0.318327 -0.01137,0.01034 -0.02377,0.01654 -0.03721,0.01654 -0.01964,0 -0.03617,-0.0072 -0.04961,-0.02067 -0.01137,-0.01137 -0.01653,-0.0248 -0.01653,-0.04134 0,-0.01137 0.0021,-0.02377 0.0083,-0.03721 0.112654,-0.206706 0.194303,-0.393775 0.243913,-0.56224 0.04961,-0.170532 0.07441,-0.340031 0.07441,-0.508496 0,-0.170532 -0.0248,-0.340031 -0.07441,-0.508496 -0.04961,-0.167431 -0.131258,-0.356567 -0.243913,-0.566374 -0.0062,-0.01034 -0.0083,-0.0217 -0.0083,-0.03307 0,-0.01653 0.0052,-0.02997 0.01653,-0.04134 0.01344,-0.01344 0.02997,-0.02067 0.04961,-0.02067 0.01344,0 0.02584,0.0062 0.03721,0.01653 0.03824,0.03307 0.100252,0.135392 0.186035,0.305925 0.08785,0.171565 0.148828,0.32246 0.181901,0.454752 0.03307,0.130225 0.04961,0.260449 0.04961,0.392741 z m 6.296257,0.768945 h -0.219109 l -0.5333,-1.207161 h -0.132292 c -0.03101,0 -0.05271,-0.0052 -0.06615,-0.01654 -0.01447,-0.01344 -0.02067,-0.02997 -0.02067,-0.04961 0,-0.0186 0.0062,-0.03411 0.02067,-0.04547 0.01344,-0.01344 0.03514,-0.02067 0.06615,-0.02067 h 0.487826 c 0.02997,0 0.05168,0.0072 0.06614,0.02067 0.01343,0.01137 0.02067,0.02687 0.02067,0.04547 0,0.01964 -0.0072,0.03617 -0.02067,0.04961 -0.01447,0.01137 -0.03617,0.01654 -0.06614,0.01654 h -0.214974 l 0.475423,1.079004 h 0.05788 l 0.467155,-1.079004 h -0.219108 c -0.03101,0 -0.05271,-0.0052 -0.06615,-0.01654 -0.01137,-0.01344 -0.01653,-0.02997 -0.01653,-0.04961 0,-0.0186 0.0052,-0.03411 0.01653,-0.04547 0.01344,-0.01344 0.03514,-0.02067 0.06615,-0.02067 h 0.49196 c 0.02997,0 0.05168,0.0072 0.06615,0.02067 0.01343,0.01137 0.02067,0.02687 0.02067,0.04547 0,0.01964 -0.0072,0.03617 -0.02067,0.04961 -0.01447,0.01137 -0.03617,0.01654 -0.06615,0.01654 h -0.132292 z m 1.834513,-1.967838 v 1.839681 h 0.446484 c 0.02997,0 0.05168,0.0062 0.06615,0.01654 0.01344,0.01137 0.02067,0.02687 0.02067,0.04547 0,0.01964 -0.0072,0.03617 -0.02067,0.04961 -0.01447,0.01137 -0.03617,0.01653 -0.06615,0.01653 h -1.021126 c -0.03101,0 -0.05271,-0.0052 -0.06615,-0.01653 -0.01447,-0.01344 -0.02067,-0.02997 -0.02067,-0.04961 0,-0.0186 0.0062,-0.03411 0.02067,-0.04547 0.01344,-0.01034 0.03514,-0.01654 0.06615,-0.01654 h 0.446484 v -1.65778 l -0.425814,0.132292 c -0.01964,0.0062 -0.03307,0.0083 -0.04134,0.0083 -0.01653,0 -0.03204,-0.0052 -0.04548,-0.01654 -0.01137,-0.01344 -0.01653,-0.02997 -0.01653,-0.04961 0,-0.01344 0.0041,-0.02687 0.0124,-0.04134 0.0083,-0.0083 0.02584,-0.01757 0.05374,-0.02894 z m 4.432804,0.892969 H 43.05887 c -0.03101,0 -0.05271,-0.0052 -0.06615,-0.01653 -0.01447,-0.01344 -0.02067,-0.02997 -0.02067,-0.04961 0,-0.0186 0.0062,-0.03411 0.02067,-0.04547 0.01344,-0.01344 0.03514,-0.02067 0.06615,-0.02067 h 1.413867 c 0.03307,0 0.05478,0.0072 0.06615,0.02067 0.01343,0.01137 0.02067,0.02687 0.02067,0.04547 0,0.01963 -0.0072,0.03617 -0.02067,0.04961 -0.01137,0.01137 -0.03307,0.01653 -0.06615,0.01653 z m 0,0.467155 H 43.05887 c -0.03101,0 -0.05271,-0.0052 -0.06615,-0.01654 -0.01447,-0.01344 -0.02067,-0.02997 -0.02067,-0.04961 0,-0.0186 0.0062,-0.03411 0.02067,-0.04548 0.01344,-0.01344 0.03514,-0.02067 0.06615,-0.02067 h 1.413867 c 0.03307,0 0.05478,0.0072 0.06615,0.02067 0.01343,0.01137 0.02067,0.02687 0.02067,0.04548 0,0.01963 -0.0072,0.03617 -0.02067,0.04961 -0.01137,0.01137 -0.03307,0.01654 -0.06615,0.01654 z m 3.214274,0.607714 H 47.467903 L 46.934602,85.448002 H 46.80231 c -0.03101,0 -0.05271,-0.0052 -0.06615,-0.01654 -0.01447,-0.01344 -0.02067,-0.02997 -0.02067,-0.04961 0,-0.0186 0.0062,-0.03411 0.02067,-0.04547 0.01344,-0.01344 0.03514,-0.02067 0.06615,-0.02067 h 0.487826 c 0.02997,0 0.05168,0.0072 0.06615,0.02067 0.01344,0.01137 0.02067,0.02687 0.02067,0.04547 0,0.01964 -0.0072,0.03617 -0.02067,0.04961 -0.01447,0.01137 -0.03617,0.01654 -0.06615,0.01654 h -0.214974 l 0.475423,1.079004 h 0.05788 l 0.467155,-1.079004 h -0.219108 c -0.03101,0 -0.05271,-0.0052 -0.06615,-0.01654 -0.01137,-0.01344 -0.01653,-0.02997 -0.01653,-0.04961 0,-0.0186 0.0052,-0.03411 0.01653,-0.04547 0.01344,-0.01344 0.03514,-0.02067 0.06615,-0.02067 h 0.49196 c 0.02997,0 0.05168,0.0072 0.06615,0.02067 0.01344,0.01137 0.02067,0.02687 0.02067,0.04547 0,0.01964 -0.0072,0.03617 -0.02067,0.04961 -0.01447,0.01137 -0.03617,0.01654 -0.06615,0.01654 H 48.21618 Z m 2.037085,-1.054199 c 0.120922,0.05271 0.211873,0.126091 0.272851,0.219108 0.06305,0.09405 0.09509,0.19017 0.09509,0.289388 0,0.157097 -0.06408,0.295589 -0.19017,0.413412 -0.124023,0.118856 -0.281119,0.177767 -0.471289,0.177767 -0.110587,0 -0.226342,-0.02377 -0.347265,-0.07028 -0.118856,-0.04651 -0.201538,-0.09508 -0.248047,-0.144694 -0.01654,-0.01653 -0.0248,-0.03411 -0.0248,-0.05374 0,-0.01654 0.0052,-0.02997 0.01653,-0.04134 0.01344,-0.01344 0.02894,-0.02067 0.04548,-0.02067 0.01653,0 0.03411,0.0083 0.05374,0.0248 0.159164,0.118855 0.328663,0.177767 0.508496,0.177767 0.148829,0 0.273885,-0.04651 0.376205,-0.140561 0.101286,-0.09612 0.152962,-0.202571 0.152962,-0.318326 0,-0.07648 -0.0248,-0.150895 -0.07441,-0.223242 -0.04961,-0.07441 -0.121956,-0.132292 -0.214974,-0.173633 -0.09405,-0.04341 -0.189136,-0.06615 -0.285254,-0.06615 -0.03101,0 -0.05271,-0.0052 -0.06615,-0.01654 -0.01447,-0.01344 -0.02067,-0.02997 -0.02067,-0.04961 0,-0.0186 0.0052,-0.03411 0.01653,-0.04547 0.01344,-0.01344 0.03411,-0.02067 0.06201,-0.02067 h 0.111622 c 0.115755,0 0.21084,-0.03411 0.285253,-0.103353 0.07648,-0.07131 0.115756,-0.153996 0.115756,-0.248047 0,-0.09612 -0.04031,-0.181901 -0.119889,-0.256315 -0.08062,-0.07441 -0.183969,-0.111621 -0.310059,-0.111621 -0.09095,0 -0.173633,0.01551 -0.248047,0.04548 -0.07441,0.03101 -0.135392,0.07338 -0.181901,0.128158 -0.01653,0.01964 -0.02894,0.03204 -0.03721,0.03721 -0.0083,0.0062 -0.01861,0.0083 -0.02894,0.0083 -0.01964,0 -0.03617,-0.0052 -0.04961,-0.01653 -0.01137,-0.01344 -0.01653,-0.02894 -0.01653,-0.04548 0,-0.04134 0.04547,-0.09302 0.136426,-0.157096 0.124023,-0.08785 0.265616,-0.132292 0.425813,-0.132292 0.162264,0 0.29559,0.04961 0.401009,0.148828 0.107488,0.09922 0.161231,0.217041 0.161231,0.3514 0,0.08888 -0.02687,0.171566 -0.07855,0.248047 -0.04961,0.07751 -0.124024,0.139526 -0.223242,0.186035 z m 3.611148,0.214974 v 0.649056 c 0,0.03101 -0.0072,0.05271 -0.02067,0.06615 -0.01137,0.01447 -0.02687,0.02067 -0.04547,0.02067 -0.01964,0 -0.03617,-0.0062 -0.04961,-0.02067 -0.01137,-0.01344 -0.01653,-0.03514 -0.01653,-0.06615 v -0.649056 h -0.574642 c -0.03101,0 -0.05271,-0.0052 -0.06615,-0.01653 -0.01447,-0.01344 -0.02067,-0.02997 -0.02067,-0.04961 0,-0.0186 0.0062,-0.03411 0.02067,-0.04547 0.01344,-0.01344 0.03514,-0.02067 0.06615,-0.02067 h 0.574642 v -0.644922 c 0,-0.02997 0.0052,-0.05168 0.01653,-0.06615 0.01344,-0.01344 0.02997,-0.02067 0.04961,-0.02067 0.0186,0 0.03411,0.0072 0.04547,0.02067 0.01344,0.01447 0.02067,0.03617 0.02067,0.06615 v 0.644922 h 0.574642 c 0.02997,0 0.05168,0.0072 0.06615,0.02067 0.01344,0.01137 0.02067,0.02687 0.02067,0.04547 0,0.01964 -0.0072,0.03617 -0.02067,0.04961 -0.01447,0.01137 -0.03617,0.01653 -0.06615,0.01653 z m 3.834391,0.839225 h -0.219107 l -0.533301,-1.207161 h -0.132292 c -0.03101,0 -0.05271,-0.0052 -0.06615,-0.01654 -0.01447,-0.01344 -0.02067,-0.02997 -0.02067,-0.04961 0,-0.0186 0.0062,-0.03411 0.02067,-0.04547 0.01344,-0.01344 0.03514,-0.02067 0.06615,-0.02067 h 0.487825 c 0.02997,0 0.05168,0.0072 0.06615,0.02067 0.01344,0.01137 0.02067,0.02687 0.02067,0.04547 0,0.01964 -0.0072,0.03617 -0.02067,0.04961 -0.01447,0.01137 -0.03617,0.01654 -0.06615,0.01654 h -0.214974 l 0.475424,1.079004 h 0.05788 l 0.467155,-1.079004 h -0.219108 c -0.03101,0 -0.05271,-0.0052 -0.06615,-0.01654 -0.01137,-0.01344 -0.01653,-0.02997 -0.01653,-0.04961 0,-0.0186 0.0052,-0.03411 0.01653,-0.04547 0.01344,-0.01344 0.03514,-0.02067 0.06615,-0.02067 h 0.49196 c 0.02997,0 0.05168,0.0072 0.06614,0.02067 0.01344,0.01137 0.02067,0.02687 0.02067,0.04547 0,0.01964 -0.0072,0.03617 -0.02067,0.04961 -0.01447,0.01137 -0.03617,0.01654 -0.06614,0.01654 h -0.132292 z m 2.032951,-0.541568 h -0.859895 v -0.152963 l 0.723469,-1.244368 h 0.268718 v 1.265039 h 0.107487 c 0.03307,0 0.05581,0.0072 0.07028,0.02067 0.01344,0.01137 0.02067,0.02687 0.02067,0.04548 0,0.01963 -0.0072,0.03617 -0.02067,0.04961 -0.01447,0.01137 -0.03721,0.01653 -0.07028,0.01653 h -0.107487 v 0.413411 h 0.107487 c 0.03307,0 0.05581,0.0062 0.07028,0.01654 0.01344,0.01137 0.02067,0.02687 0.02067,0.04547 0,0.01964 -0.0072,0.03617 -0.02067,0.04961 -0.01447,0.01137 -0.03721,0.01654 -0.07028,0.01654 h -0.479557 c -0.03307,0 -0.05685,-0.0052 -0.07028,-0.01654 -0.01447,-0.01344 -0.02067,-0.02997 -0.02067,-0.04961 0,-0.0186 0.0062,-0.03411 0.02067,-0.04547 0.01344,-0.01034 0.03721,-0.01654 0.07028,-0.01654 h 0.239778 z m 0,-0.132292 v -1.136882 h -0.06614 l -0.657325,1.136882 z m -31.156753,4.879288 c 0,-0.117822 0.01447,-0.243912 0.04548,-0.376204 0.03307,-0.134359 0.09198,-0.289388 0.177766,-0.463021 0.08785,-0.173633 0.152963,-0.278019 0.194304,-0.314193 0.01034,-0.01034 0.0248,-0.01653 0.04134,-0.01653 0.01654,0 0.03101,0.0072 0.04547,0.02067 0.01344,0.01137 0.02067,0.0248 0.02067,0.04134 0,0.01137 -0.0041,0.02274 -0.0124,0.03307 -0.113689,0.209806 -0.194304,0.398942 -0.243913,0.566374 -0.04754,0.168465 -0.07028,0.337963 -0.07028,0.508496 0,0.168465 0.02274,0.337963 0.07028,0.508496 0.04961,0.168465 0.130224,0.355534 0.243913,0.562239 0.0083,0.01344 0.0124,0.02584 0.0124,0.03721 0,0.01653 -0.0072,0.02997 -0.02067,0.04134 -0.01447,0.01344 -0.02894,0.02067 -0.04547,0.02067 -0.01654,0 -0.03101,-0.0062 -0.04134,-0.01654 -0.03927,-0.03617 -0.10232,-0.139527 -0.190169,-0.310059 -0.08578,-0.167432 -0.144694,-0.31626 -0.177767,-0.446485 -0.03307,-0.132291 -0.04961,-0.264583 -0.04961,-0.396875 z m 1.532723,-0.05374 c 0.07958,-0.117823 0.162264,-0.204639 0.248047,-0.26045 0.08475,-0.05788 0.179834,-0.08682 0.285254,-0.08682 0.137459,0 0.260449,0.05788 0.367936,0.173633 0.107487,0.115755 0.161231,0.258382 0.161231,0.425814 0,0.155029 -0.04961,0.296623 -0.148829,0.425813 -0.09715,0.127125 -0.23151,0.19017 -0.405143,0.19017 -0.113688,0 -0.218074,-0.03514 -0.314192,-0.103353 -0.09715,-0.06821 -0.1726,-0.174666 -0.227377,-0.318327 -0.07235,-0.1788 -0.107487,-0.376204 -0.107487,-0.591178 0,-0.162264 0.03307,-0.314193 0.09922,-0.454753 0.04961,-0.107487 0.115755,-0.202571 0.198437,-0.285254 0.08268,-0.08268 0.178801,-0.149861 0.289389,-0.202571 0.109554,-0.05168 0.228409,-0.07855 0.355533,-0.07855 0.08475,0 0.157097,0.0186 0.214974,0.05374 0.02481,0.01653 0.03721,0.03721 0.03721,0.06201 0,0.01964 -0.0062,0.03514 -0.01654,0.04547 -0.01137,0.01137 -0.02481,0.01654 -0.04134,0.01654 -0.01447,0 -0.03101,-0.0041 -0.04961,-0.0124 -0.04134,-0.0217 -0.09405,-0.03307 -0.157096,-0.03307 -0.201538,0 -0.384473,0.08682 -0.549837,0.260449 -0.165365,0.171566 -0.248047,0.376204 -0.248047,0.615983 0,0.03307 0.0021,0.08578 0.0083,0.157096 z m 0.02894,0.214974 c 0.03824,0.188102 0.09922,0.322461 0.181901,0.405143 0.08475,0.08062 0.186035,0.119889 0.30179,0.119889 0.115755,0 0.212907,-0.04547 0.293522,-0.136426 0.08268,-0.09095 0.124024,-0.207739 0.124024,-0.351399 0,-0.134359 -0.04134,-0.24598 -0.124024,-0.334864 -0.08268,-0.08785 -0.1757,-0.132291 -0.276985,-0.132291 -0.10232,0 -0.198438,0.04341 -0.289388,0.128157 -0.06408,0.05581 -0.134359,0.156063 -0.21084,0.301791 z m 2.301668,-0.161231 c 0,0.118856 -0.0155,0.243913 -0.04547,0.376205 -0.03101,0.132291 -0.08992,0.285253 -0.177767,0.458886 -0.08888,0.1757 -0.152962,0.282154 -0.194303,0.318327 -0.01137,0.01034 -0.02377,0.01654 -0.03721,0.01654 -0.01964,0 -0.03617,-0.0072 -0.04961,-0.02067 -0.01137,-0.01137 -0.01653,-0.0248 -0.01653,-0.04134 0,-0.01137 0.0021,-0.02377 0.0083,-0.03721 0.112654,-0.206706 0.194303,-0.393774 0.243913,-0.56224 0.04961,-0.170531 0.07441,-0.34003 0.07441,-0.508495 0,-0.170532 -0.0248,-0.340031 -0.07441,-0.508496 -0.04961,-0.167431 -0.131258,-0.356567 -0.243913,-0.566374 -0.0062,-0.01034 -0.0083,-0.0217 -0.0083,-0.03307 0,-0.01654 0.0052,-0.02997 0.01653,-0.04134 0.01344,-0.01344 0.02997,-0.02067 0.04961,-0.02067 0.01344,0 0.02584,0.0062 0.03721,0.01653 0.03824,0.03307 0.100252,0.135392 0.186035,0.305924 0.08785,0.171566 0.148828,0.322461 0.181901,0.454753 0.03307,0.130225 0.04961,0.260449 0.04961,0.392741 z m 6.296257,0.768946 h -0.219109 l -0.5333,-1.207162 H 37.32072 c -0.03101,0 -0.05271,-0.0052 -0.06615,-0.01653 -0.01447,-0.01344 -0.02067,-0.02997 -0.02067,-0.04961 0,-0.0186 0.0062,-0.03411 0.02067,-0.04547 0.01344,-0.01343 0.03514,-0.02067 0.06615,-0.02067 h 0.487826 c 0.02997,0 0.05168,0.0072 0.06614,0.02067 0.01343,0.01137 0.02067,0.02687 0.02067,0.04547 0,0.01964 -0.0072,0.03617 -0.02067,0.04961 -0.01447,0.01137 -0.03617,0.01653 -0.06614,0.01653 h -0.214974 l 0.475423,1.079004 h 0.05788 l 0.467155,-1.079004 h -0.219108 c -0.03101,0 -0.05271,-0.0052 -0.06615,-0.01653 -0.01137,-0.01344 -0.01653,-0.02997 -0.01653,-0.04961 0,-0.0186 0.0052,-0.03411 0.01653,-0.04547 0.01344,-0.01343 0.03514,-0.02067 0.06615,-0.02067 h 0.49196 c 0.02997,0 0.05168,0.0072 0.06615,0.02067 0.01343,0.01137 0.02067,0.02687 0.02067,0.04547 0,0.01964 -0.0072,0.03617 -0.02067,0.04961 -0.01447,0.01137 -0.03617,0.01653 -0.06615,0.01653 H 38.73459 Z m 1.412833,-1.810743 v 0.636654 c 0.07648,-0.02997 0.149862,-0.05374 0.219108,-0.07028 0.07131,-0.01653 0.138493,-0.0248 0.202572,-0.0248 0.162264,0 0.297656,0.05788 0.405143,0.173633 0.109554,0.113689 0.165364,0.26355 0.165364,0.450619 0,0.204638 -0.06201,0.371037 -0.186035,0.500227 -0.121956,0.127125 -0.275952,0.19017 -0.46302,0.19017 -0.121957,0 -0.238746,-0.02791 -0.3514,-0.08268 -0.08268,-0.03514 -0.156063,-0.08268 -0.219108,-0.14056 -0.04134,-0.03307 -0.06201,-0.06201 -0.06201,-0.08682 0,-0.01653 0.0052,-0.031 0.01653,-0.04547 0.01344,-0.01343 0.02894,-0.02067 0.04548,-0.02067 0.0186,0 0.03824,0.01034 0.05788,0.02894 0.153995,0.146761 0.323494,0.219108 0.508496,0.219108 0.150895,0 0.276985,-0.05064 0.376204,-0.152962 0.09922,-0.104386 0.148828,-0.243913 0.148828,-0.417546 0,-0.145727 -0.04444,-0.262516 -0.132292,-0.3514 -0.08578,-0.09095 -0.193269,-0.136425 -0.32246,-0.136425 -0.135393,0 -0.270785,0.03617 -0.405144,0.107487 -0.03307,0.01653 -0.05684,0.0248 -0.07028,0.0248 -0.01963,0 -0.03514,-0.0052 -0.04547,-0.01653 -0.01137,-0.01344 -0.01654,-0.03101 -0.01654,-0.05374 v -0.859896 h 0.905371 c 0.02997,0 0.05168,0.0072 0.06615,0.02067 0.01344,0.01137 0.02067,0.02687 0.02067,0.04547 0,0.01653 -0.0072,0.03204 -0.02067,0.04548 -0.01447,0.01137 -0.03617,0.01653 -0.06615,0.01653 z m 4.854484,0.735873 H 43.05887 c -0.03101,0 -0.05271,-0.0052 -0.06615,-0.01653 -0.01447,-0.01344 -0.02067,-0.02997 -0.02067,-0.04961 0,-0.0186 0.0062,-0.03411 0.02067,-0.04548 0.01344,-0.01343 0.03514,-0.02067 0.06615,-0.02067 h 1.413867 c 0.03307,0 0.05478,0.0072 0.06615,0.02067 0.01343,0.01137 0.02067,0.02687 0.02067,0.04548 0,0.01963 -0.0072,0.03617 -0.02067,0.04961 -0.01137,0.01137 -0.03307,0.01653 -0.06615,0.01653 z m 0,0.467155 H 43.05887 c -0.03101,0 -0.05271,-0.0052 -0.06615,-0.01654 -0.01447,-0.01343 -0.02067,-0.02997 -0.02067,-0.04961 0,-0.0186 0.0062,-0.03411 0.02067,-0.04547 0.01344,-0.01344 0.03514,-0.02067 0.06615,-0.02067 h 1.413867 c 0.03307,0 0.05478,0.0072 0.06615,0.02067 0.01343,0.01137 0.02067,0.02687 0.02067,0.04547 0,0.01964 -0.0072,0.03617 -0.02067,0.04961 -0.01137,0.01137 -0.03307,0.01654 -0.06615,0.01654 z m 3.214274,0.607715 H 47.467903 L 46.934602,90.422375 H 46.80231 c -0.03101,0 -0.05271,-0.0052 -0.06615,-0.01653 -0.01447,-0.01344 -0.02067,-0.02997 -0.02067,-0.04961 0,-0.0186 0.0062,-0.03411 0.02067,-0.04547 0.01344,-0.01343 0.03514,-0.02067 0.06615,-0.02067 h 0.487826 c 0.02997,0 0.05168,0.0072 0.06615,0.02067 0.01344,0.01137 0.02067,0.02687 0.02067,0.04547 0,0.01964 -0.0072,0.03617 -0.02067,0.04961 -0.01447,0.01137 -0.03617,0.01653 -0.06615,0.01653 h -0.214974 l 0.475423,1.079004 h 0.05788 l 0.467155,-1.079004 h -0.219108 c -0.03101,0 -0.05271,-0.0052 -0.06615,-0.01653 -0.01137,-0.01344 -0.01653,-0.02997 -0.01653,-0.04961 0,-0.0186 0.0052,-0.03411 0.01653,-0.04547 0.01344,-0.01343 0.03514,-0.02067 0.06615,-0.02067 h 0.49196 c 0.02997,0 0.05168,0.0072 0.06615,0.02067 0.01344,0.01137 0.02067,0.02687 0.02067,0.04547 0,0.01964 -0.0072,0.03617 -0.02067,0.04961 -0.01447,0.01137 -0.03617,0.01653 -0.06615,0.01653 H 48.21618 Z m 2.01228,-0.54157 h -0.859896 v -0.152962 l 0.72347,-1.244368 h 0.268717 v 1.265039 h 0.107488 c 0.03307,0 0.05581,0.0072 0.07028,0.02067 0.01344,0.01137 0.02067,0.02687 0.02067,0.04548 0,0.01964 -0.0072,0.03617 -0.02067,0.04961 -0.01447,0.01137 -0.03721,0.01653 -0.07028,0.01653 h -0.107488 v 0.413412 h 0.107488 c 0.03307,0 0.05581,0.0062 0.07028,0.01653 0.01344,0.01137 0.02067,0.02687 0.02067,0.04548 0,0.01964 -0.0072,0.03617 -0.02067,0.04961 -0.01447,0.01137 -0.03721,0.01654 -0.07028,0.01654 h -0.479558 c -0.03307,0 -0.05684,-0.0052 -0.07028,-0.01654 -0.01447,-0.01344 -0.02067,-0.02997 -0.02067,-0.04961 0,-0.0186 0.0062,-0.03411 0.02067,-0.04548 0.01344,-0.01034 0.03721,-0.01653 0.07028,-0.01653 h 0.239779 z m 0,-0.132291 v -1.136882 h -0.06615 l -0.657324,1.136882 z m 3.635953,-0.165365 v 0.649056 c 0,0.03101 -0.0072,0.05271 -0.02067,0.06615 -0.01137,0.01447 -0.02687,0.02067 -0.04547,0.02067 -0.01964,0 -0.03617,-0.0062 -0.04961,-0.02067 -0.01137,-0.01344 -0.01653,-0.03514 -0.01653,-0.06615 v -0.649056 h -0.574642 c -0.03101,0 -0.05271,-0.0052 -0.06615,-0.01654 -0.01447,-0.01343 -0.02067,-0.02997 -0.02067,-0.04961 0,-0.0186 0.0062,-0.03411 0.02067,-0.04547 0.01344,-0.01344 0.03514,-0.02067 0.06615,-0.02067 h 0.574642 v -0.644922 c 0,-0.02997 0.0052,-0.05168 0.01653,-0.06615 0.01344,-0.01343 0.02997,-0.02067 0.04961,-0.02067 0.0186,0 0.03411,0.0072 0.04547,0.02067 0.01344,0.01447 0.02067,0.03617 0.02067,0.06615 v 0.644922 h 0.574642 c 0.02997,0 0.05168,0.0072 0.06615,0.02067 0.01344,0.01137 0.02067,0.02687 0.02067,0.04547 0,0.01964 -0.0072,0.03617 -0.02067,0.04961 -0.01447,0.01137 -0.03617,0.01654 -0.06615,0.01654 z m 3.834391,0.839226 h -0.219107 l -0.533301,-1.207162 h -0.132292 c -0.03101,0 -0.05271,-0.0052 -0.06615,-0.01653 -0.01447,-0.01344 -0.02067,-0.02997 -0.02067,-0.04961 0,-0.0186 0.0062,-0.03411 0.02067,-0.04547 0.01344,-0.01343 0.03514,-0.02067 0.06615,-0.02067 h 0.487825 c 0.02997,0 0.05168,0.0072 0.06615,0.02067 0.01344,0.01137 0.02067,0.02687 0.02067,0.04547 0,0.01964 -0.0072,0.03617 -0.02067,0.04961 -0.01447,0.01137 -0.03617,0.01653 -0.06615,0.01653 h -0.214974 l 0.475424,1.079004 h 0.05788 l 0.467155,-1.079004 h -0.219108 c -0.03101,0 -0.05271,-0.0052 -0.06615,-0.01653 -0.01137,-0.01344 -0.01653,-0.02997 -0.01653,-0.04961 0,-0.0186 0.0052,-0.03411 0.01653,-0.04547 0.01344,-0.01343 0.03514,-0.02067 0.06615,-0.02067 h 0.49196 c 0.02997,0 0.05168,0.0072 0.06614,0.02067 0.01344,0.01137 0.02067,0.02687 0.02067,0.04547 0,0.01964 -0.0072,0.03617 -0.02067,0.04961 -0.01447,0.01137 -0.03617,0.01653 -0.06614,0.01653 h -0.132292 z m 1.855185,-1.967839 v 1.839681 h 0.446484 c 0.02997,0 0.05168,0.0062 0.06615,0.01654 0.01344,0.01137 0.02067,0.02687 0.02067,0.04547 0,0.01964 -0.0072,0.03617 -0.02067,0.04961 -0.01447,0.01137 -0.03617,0.01653 -0.06615,0.01653 h -1.021127 c -0.031,0 -0.05271,-0.0052 -0.06614,-0.01653 -0.01447,-0.01344 -0.02067,-0.02997 -0.02067,-0.04961 0,-0.0186 0.0062,-0.03411 0.02067,-0.04547 0.01344,-0.01034 0.03514,-0.01654 0.06614,-0.01654 h 0.446485 v -1.65778 l -0.425814,0.132292 c -0.01964,0.0062 -0.03307,0.0083 -0.04134,0.0083 -0.01653,0 -0.03204,-0.0052 -0.04548,-0.01654 -0.01137,-0.01344 -0.01653,-0.02997 -0.01653,-0.04961 0,-0.01344 0.0041,-0.02687 0.0124,-0.04134 0.0083,-0.0083 0.02584,-0.01757 0.05374,-0.02894 z m -30.978987,6.173266 c 0,-0.117822 0.01447,-0.243912 0.04548,-0.376204 0.03307,-0.134359 0.09198,-0.289388 0.177766,-0.463021 0.08785,-0.173633 0.152963,-0.278019 0.194304,-0.314192 0.01034,-0.01034 0.0248,-0.01653 0.04134,-0.01653 0.01654,0 0.03101,0.0072 0.04547,0.02067 0.01344,0.01137 0.02067,0.0248 0.02067,0.04134 0,0.01137 -0.0041,0.02274 -0.0124,0.03307 -0.113689,0.209806 -0.194304,0.398942 -0.243913,0.566374 -0.04754,0.168465 -0.07028,0.337964 -0.07028,0.508496 0,0.168465 0.02274,0.337964 0.07028,0.508496 0.04961,0.168465 0.130224,0.355534 0.243913,0.562239 0.0083,0.01344 0.0124,0.02584 0.0124,0.03721 0,0.01653 -0.0072,0.02997 -0.02067,0.04134 -0.01447,0.01344 -0.02894,0.02067 -0.04547,0.02067 -0.01654,0 -0.03101,-0.0062 -0.04134,-0.01654 -0.03927,-0.03617 -0.10232,-0.139527 -0.190169,-0.310059 -0.08578,-0.167432 -0.144694,-0.31626 -0.177767,-0.446485 -0.03307,-0.132291 -0.04961,-0.264583 -0.04961,-0.396875 z m 2.355412,-0.979785 v -0.06201 H 29.47107 v 0.115755 c 0,0.031 -0.0062,0.05271 -0.01654,0.06615 -0.01137,0.01447 -0.02687,0.02067 -0.04548,0.02067 -0.01964,0 -0.03617,-0.0062 -0.04961,-0.02067 -0.01137,-0.01344 -0.01654,-0.03514 -0.01654,-0.06615 V 94.66501 h 1.190625 v 0.206706 l -0.520899,1.670182 c -0.0083,0.0248 -0.0186,0.04341 -0.02894,0.05374 -0.01137,0.0083 -0.0248,0.0124 -0.04134,0.0124 -0.01654,0 -0.03204,-0.0052 -0.04547,-0.01654 -0.01137,-0.01344 -0.01654,-0.02894 -0.01654,-0.04547 0,-0.01034 0.0021,-0.02584 0.0083,-0.04548 z m 1.507918,0.979785 c 0,0.118856 -0.0155,0.243913 -0.04547,0.376205 -0.03101,0.132291 -0.08992,0.285254 -0.177767,0.458887 -0.08888,0.1757 -0.152962,0.282153 -0.194303,0.318326 -0.01137,0.01034 -0.02377,0.01654 -0.03721,0.01654 -0.01964,0 -0.03617,-0.0072 -0.04961,-0.02067 -0.01137,-0.01137 -0.01653,-0.0248 -0.01653,-0.04134 0,-0.01137 0.0021,-0.02377 0.0083,-0.03721 0.112654,-0.206705 0.194303,-0.393774 0.243913,-0.562239 0.04961,-0.170532 0.07441,-0.340031 0.07441,-0.508496 0,-0.170532 -0.0248,-0.340031 -0.07441,-0.508496 -0.04961,-0.167431 -0.131258,-0.356567 -0.243913,-0.566373 -0.0062,-0.01034 -0.0083,-0.0217 -0.0083,-0.03307 0,-0.01654 0.0052,-0.02997 0.01653,-0.04134 0.01344,-0.01344 0.02997,-0.02067 0.04961,-0.02067 0.01344,0 0.02584,0.0062 0.03721,0.01653 0.03824,0.03307 0.100252,0.135392 0.186035,0.305924 0.08785,0.171566 0.148828,0.322462 0.181901,0.454753 0.03307,0.130225 0.04961,0.260449 0.04961,0.392741 z m 6.027539,-0.570507 v 0.326595 c 0.170532,-0.150895 0.297656,-0.249081 0.380339,-0.293522 0.08475,-0.04341 0.162264,-0.06615 0.23151,-0.06615 0.07648,0 0.148828,0.02687 0.214974,0.07855 0.06821,0.05271 0.103353,0.09302 0.103353,0.119889 0,0.01964 -0.0072,0.03617 -0.02067,0.04961 -0.01447,0.01137 -0.03101,0.01653 -0.04961,0.01653 -0.01137,0 -0.02067,-0.001 -0.02894,-0.0041 -0.0062,-0.0021 -0.01861,-0.01447 -0.03721,-0.03721 -0.03617,-0.03514 -0.06821,-0.05891 -0.09509,-0.07028 -0.0248,-0.01344 -0.05168,-0.02067 -0.07855,-0.02067 -0.05581,0 -0.12299,0.02377 -0.202572,0.07028 -0.08062,0.04444 -0.219108,0.15503 -0.417545,0.330729 v 0.711068 h 0.574642 c 0.03307,0 0.05581,0.0062 0.07028,0.01653 0.01344,0.01137 0.02067,0.02687 0.02067,0.04548 0,0.01964 -0.0072,0.03617 -0.02067,0.04961 -0.01447,0.01137 -0.03721,0.01653 -0.07028,0.01653 h -1.016992 c -0.03101,0 -0.05271,-0.0052 -0.06615,-0.01653 -0.01447,-0.01344 -0.02067,-0.02894 -0.02067,-0.04548 0,-0.0186 0.0052,-0.03411 0.01653,-0.04547 0.01344,-0.01034 0.03721,-0.01654 0.07028,-0.01654 h 0.314193 v -1.083137 h -0.23978 c -0.03101,0 -0.05271,-0.0052 -0.06615,-0.01653 -0.01447,-0.01344 -0.02067,-0.02997 -0.02067,-0.04961 0,-0.0186 0.0052,-0.03411 0.01653,-0.04547 0.01344,-0.01344 0.03721,-0.02067 0.07028,-0.02067 z m 2.744018,0.702799 h -1.322916 c 0.0217,0.165365 0.09198,0.300757 0.210839,0.405143 0.117823,0.10232 0.264584,0.152962 0.438217,0.152962 0.09612,0 0.19637,-0.01447 0.30179,-0.04548 0.107487,-0.03307 0.194303,-0.07545 0.260449,-0.128157 0.0186,-0.01654 0.03721,-0.0248 0.05374,-0.0248 0.01653,0 0.02997,0.0072 0.04134,0.02067 0.01344,0.01137 0.02067,0.02687 0.02067,0.04547 0,0.01654 -0.0083,0.03307 -0.0248,0.04961 -0.04961,0.05271 -0.138493,0.101286 -0.264583,0.144694 -0.127124,0.04341 -0.256315,0.06615 -0.388607,0.06615 -0.223242,0 -0.409277,-0.07235 -0.558105,-0.219108 -0.148828,-0.145728 -0.223242,-0.322461 -0.223242,-0.529167 0,-0.187069 0.06821,-0.348299 0.206706,-0.483691 0.140559,-0.134359 0.314192,-0.202572 0.520898,-0.202572 0.211873,0 0.386539,0.06925 0.525032,0.206706 0.13746,0.138493 0.204639,0.318327 0.202572,0.541569 z M 40.54843,95.834968 c -0.0248,-0.142627 -0.09302,-0.258382 -0.202572,-0.347265 -0.110587,-0.09095 -0.241846,-0.136426 -0.392741,-0.136426 -0.151929,0 -0.283187,0.04444 -0.392741,0.132292 -0.107487,0.08888 -0.1757,0.205672 -0.202571,0.351399 z m 1.065568,-0.570507 h 0.706933 c 0.02997,0 0.05168,0.0072 0.06615,0.02067 0.01344,0.01137 0.02067,0.02687 0.02067,0.04547 0,0.01964 -0.0072,0.03617 -0.02067,0.04961 -0.01447,0.01137 -0.03617,0.01653 -0.06615,0.01653 h -0.706933 v 0.864029 c 0,0.07441 0.02997,0.138493 0.09095,0.19017 0.05995,0.04961 0.148828,0.07441 0.264583,0.07441 0.08785,0 0.182935,-0.0124 0.285254,-0.03721 0.101286,-0.02687 0.181901,-0.05788 0.239779,-0.09095 0.0186,-0.01344 0.03514,-0.02067 0.04961,-0.02067 0.01653,0 0.02997,0.0072 0.04134,0.02067 0.01344,0.01137 0.02067,0.02687 0.02067,0.04548 0,0.01447 -0.0072,0.0279 -0.02067,0.04134 -0.03307,0.03617 -0.113687,0.07338 -0.239778,0.111621 -0.127124,0.03824 -0.248047,0.05788 -0.363802,0.05788 -0.151929,0 -0.272852,-0.03514 -0.363802,-0.103353 -0.08888,-0.07131 -0.132292,-0.167431 -0.132292,-0.289388 v -0.864024 h -0.23978 c -0.03307,0 -0.05684,-0.0052 -0.07028,-0.01653 -0.01137,-0.01344 -0.01653,-0.02997 -0.01653,-0.04961 0,-0.0186 0.0052,-0.03411 0.01653,-0.04547 0.01344,-0.01344 0.03721,-0.02067 0.07028,-0.02067 h 0.239779 v -0.384473 c 0,-0.02997 0.0052,-0.05168 0.01654,-0.06615 0.01344,-0.01344 0.02894,-0.02067 0.04547,-0.02067 0.0186,0 0.03411,0.0072 0.04548,0.02067 0.01344,0.01447 0.02067,0.03617 0.02067,0.06615 z m 2.594157,1.339453 v -0.19017 c -0.176734,0.160197 -0.367937,0.239779 -0.574643,0.239779 -0.127123,0 -0.223242,-0.03514 -0.289387,-0.103353 -0.08578,-0.09095 -0.128158,-0.195337 -0.128158,-0.314192 v -0.839226 h -0.173633 c -0.03101,0 -0.05271,-0.0052 -0.06615,-0.01653 -0.01447,-0.01344 -0.02067,-0.02997 -0.02067,-0.04961 0,-0.0186 0.0062,-0.03411 0.02067,-0.04547 0.01344,-0.01344 0.03514,-0.02067 0.06615,-0.02067 h 0.305925 v 0.971516 c 0,0.08268 0.02584,0.151929 0.07855,0.206706 0.05478,0.05581 0.121956,0.08268 0.202572,0.08268 0.208772,0 0.402042,-0.09612 0.578776,-0.289388 v -0.839225 h -0.239779 c -0.03101,0 -0.05271,-0.0052 -0.06615,-0.01653 -0.01447,-0.01344 -0.02067,-0.02997 -0.02067,-0.04961 0,-0.0186 0.0062,-0.03411 0.02067,-0.04547 0.01344,-0.01344 0.03514,-0.02067 0.06615,-0.02067 h 0.37207 v 1.211296 h 0.107487 c 0.03307,0 0.05478,0.0062 0.06615,0.01653 0.01344,0.01137 0.02067,0.02687 0.02067,0.04548 0,0.01963 -0.0072,0.03617 -0.02067,0.04961 -0.01137,0.01137 -0.03307,0.01653 -0.06615,0.01653 z M 45.5135,95.264457 v 0.326595 c 0.170532,-0.150895 0.297656,-0.249081 0.380339,-0.293522 0.08475,-0.04341 0.162264,-0.06615 0.23151,-0.06615 0.07648,0 0.148828,0.02687 0.214974,0.07855 0.06821,0.05271 0.103353,0.09302 0.103353,0.119889 0,0.01964 -0.0072,0.03617 -0.02067,0.04961 -0.01447,0.01137 -0.03101,0.01653 -0.04961,0.01653 -0.01137,0 -0.02067,-0.001 -0.02894,-0.0041 -0.0062,-0.0021 -0.01861,-0.01447 -0.03721,-0.03721 -0.03617,-0.03514 -0.06821,-0.05891 -0.09508,-0.07028 -0.0248,-0.01344 -0.05168,-0.02067 -0.07855,-0.02067 -0.05581,0 -0.12299,0.02377 -0.202572,0.07028 -0.08062,0.04444 -0.219108,0.15503 -0.417545,0.330729 v 0.711068 h 0.574642 c 0.03307,0 0.05581,0.0062 0.07028,0.01653 0.01344,0.01137 0.02067,0.02687 0.02067,0.04548 0,0.01964 -0.0072,0.03617 -0.02067,0.04961 -0.01447,0.01137 -0.03721,0.01653 -0.07028,0.01653 h -1.016992 c -0.03101,0 -0.05271,-0.0052 -0.06615,-0.01653 -0.01447,-0.01344 -0.02067,-0.02894 -0.02067,-0.04548 0,-0.0186 0.0052,-0.03411 0.01653,-0.04547 0.01344,-0.01034 0.03721,-0.01654 0.07028,-0.01654 h 0.314193 v -1.083138 h -0.239779 c -0.03101,0 -0.05271,-0.0052 -0.06615,-0.01653 -0.01447,-0.01344 -0.02067,-0.02997 -0.02067,-0.04961 0,-0.0186 0.0052,-0.03411 0.01653,-0.04547 0.01344,-0.01344 0.03721,-0.02067 0.07028,-0.02067 z m 1.64021,0 v 0.198437 c 0.09095,-0.09302 0.171566,-0.157096 0.243913,-0.190169 0.07441,-0.03514 0.158129,-0.05374 0.252181,-0.05374 0.09922,0 0.188102,0.02067 0.268717,0.06201 0.05788,0.03101 0.109554,0.08165 0.157096,0.152962 0.04651,0.07235 0.07028,0.146761 0.07028,0.223242 v 0.818555 h 0.111621 c 0.02997,0 0.05168,0.0062 0.06615,0.01654 0.01344,0.01137 0.02067,0.02687 0.02067,0.04547 0,0.01964 -0.0072,0.03617 -0.02067,0.04961 -0.01447,0.01137 -0.03617,0.01653 -0.06615,0.01653 h -0.351399 c -0.03101,0 -0.05271,-0.0052 -0.06615,-0.01653 -0.01447,-0.01344 -0.02067,-0.02997 -0.02067,-0.04961 0,-0.0186 0.0062,-0.03411 0.02067,-0.04547 0.01344,-0.01034 0.03514,-0.01654 0.06615,-0.01654 H 48.01774 V 95.67787 c 0,-0.09095 -0.03514,-0.167432 -0.103353,-0.23151 -0.06615,-0.06305 -0.156063,-0.09508 -0.268718,-0.09508 -0.08578,0 -0.160196,0.0186 -0.223242,0.05374 -0.06098,0.03307 -0.150895,0.117823 -0.268717,0.252181 v 0.818555 h 0.148828 c 0.02997,0 0.05168,0.0062 0.06615,0.01654 0.01344,0.01137 0.02067,0.02687 0.02067,0.04547 0,0.01964 -0.0072,0.03617 -0.02067,0.04961 -0.01447,0.01137 -0.03617,0.01653 -0.06615,0.01653 h -0.425814 c -0.03101,0 -0.05271,-0.0052 -0.06615,-0.01653 -0.01447,-0.01344 -0.02067,-0.02997 -0.02067,-0.04961 0,-0.0186 0.0062,-0.03411 0.02067,-0.04547 0.01344,-0.01034 0.03514,-0.01654 0.06615,-0.01654 h 0.148828 v -1.079004 h -0.111621 c -0.03101,0 -0.05271,-0.0052 -0.06615,-0.01653 -0.01447,-0.01344 -0.02067,-0.02997 -0.02067,-0.04961 0,-0.0186 0.0062,-0.03411 0.02067,-0.04547 0.01344,-0.01344 0.03514,-0.02067 0.06615,-0.02067 z m 4.322216,1.339453 h -0.219108 l -0.5333,-1.207162 h -0.132292 c -0.03101,0 -0.05271,-0.0052 -0.06615,-0.01653 -0.01447,-0.01344 -0.02067,-0.02997 -0.02067,-0.04961 0,-0.0186 0.0062,-0.03411 0.02067,-0.04547 0.01344,-0.01344 0.03514,-0.02067 0.06615,-0.02067 h 0.487826 c 0.02997,0 0.05168,0.0072 0.06615,0.02067 0.01344,0.01137 0.02067,0.02687 0.02067,0.04547 0,0.01964 -0.0072,0.03617 -0.02067,0.04961 -0.01447,0.01137 -0.03617,0.01653 -0.06615,0.01653 h -0.214974 l 0.475423,1.079004 h 0.05788 l 0.467155,-1.079004 h -0.219108 c -0.03101,0 -0.05271,-0.0052 -0.06615,-0.01653 -0.01137,-0.01344 -0.01653,-0.02997 -0.01653,-0.04961 0,-0.0186 0.0052,-0.03411 0.01653,-0.04547 0.01344,-0.01344 0.03514,-0.02067 0.06615,-0.02067 h 0.49196 c 0.02997,0 0.05168,0.0072 0.06615,0.02067 0.01344,0.01137 0.02067,0.02687 0.02067,0.04547 0,0.01964 -0.0072,0.03617 -0.02067,0.04961 -0.01447,0.01137 -0.03617,0.01653 -0.06615,0.01653 h -0.132292 z m 1.855184,-1.967839 v 1.839681 h 0.446485 c 0.02997,0 0.05168,0.0062 0.06614,0.01654 0.01344,0.01137 0.02067,0.02687 0.02067,0.04547 0,0.01964 -0.0072,0.03617 -0.02067,0.04961 -0.01447,0.01137 -0.03617,0.01653 -0.06614,0.01653 h -1.021127 c -0.03101,0 -0.05271,-0.0052 -0.06614,-0.01653 -0.01447,-0.01344 -0.02067,-0.02997 -0.02067,-0.04961 0,-0.0186 0.0062,-0.03411 0.02067,-0.04547 0.01344,-0.01034 0.03514,-0.01654 0.06614,-0.01654 h 0.446485 v -1.65778 l -0.425814,0.132292 c -0.01964,0.0062 -0.03307,0.0083 -0.04134,0.0083 -0.01654,0 -0.03204,-0.0052 -0.04548,-0.01654 -0.01137,-0.01344 -0.01653,-0.02997 -0.01653,-0.04961 0,-0.01344 0.0041,-0.02687 0.0124,-0.04134 0.0083,-0.0083 0.02584,-0.01757 0.05374,-0.02894 z m 3.79305,1.128613 v 0.649056 c 0,0.03101 -0.0072,0.05271 -0.02067,0.06615 -0.01137,0.01447 -0.02687,0.02067 -0.04547,0.02067 -0.01964,0 -0.03617,-0.0062 -0.04961,-0.02067 -0.01137,-0.01344 -0.01653,-0.03514 -0.01653,-0.06615 v -0.649056 h -0.57465 c -0.03101,0 -0.05271,-0.0052 -0.06615,-0.01653 -0.01447,-0.01344 -0.02067,-0.02997 -0.02067,-0.04961 0,-0.0186 0.0062,-0.03411 0.02067,-0.04547 0.01344,-0.01344 0.03514,-0.02067 0.06615,-0.02067 h 0.574642 v -0.644922 c 0,-0.02997 0.0052,-0.05168 0.01653,-0.06615 0.01344,-0.01344 0.02997,-0.02067 0.04961,-0.02067 0.0186,0 0.03411,0.0072 0.04547,0.02067 0.01344,0.01447 0.02067,0.03617 0.02067,0.06615 v 0.644922 h 0.574642 c 0.02997,0 0.05168,0.0072 0.06615,0.02067 0.01344,0.01137 0.02067,0.02687 0.02067,0.04547 0,0.01964 -0.0072,0.03617 -0.02067,0.04961 -0.01447,0.01137 -0.03617,0.01653 -0.06615,0.01653 z m 3.833358,0.839226 H 60.73841 l -0.533301,-1.207162 h -0.132292 c -0.03101,0 -0.05271,-0.0052 -0.06614,-0.01653 -0.01447,-0.01344 -0.02067,-0.02997 -0.02067,-0.04961 0,-0.0186 0.0062,-0.03411 0.02067,-0.04547 0.01344,-0.01344 0.03514,-0.02067 0.06614,-0.02067 h 0.487826 c 0.02997,0 0.05168,0.0072 0.06615,0.02067 0.01344,0.01137 0.02067,0.02687 0.02067,0.04547 0,0.01964 -0.0072,0.03617 -0.02067,0.04961 -0.01447,0.01137 -0.03617,0.01653 -0.06615,0.01653 h -0.214974 l 0.475423,1.079004 h 0.05788 l 0.467155,-1.079004 h -0.219108 c -0.03101,0 -0.05271,-0.0052 -0.06615,-0.01653 -0.01137,-0.01344 -0.01653,-0.02997 -0.01653,-0.04961 0,-0.0186 0.0052,-0.03411 0.01653,-0.04547 0.01344,-0.01344 0.03514,-0.02067 0.06615,-0.02067 h 0.491959 c 0.02997,0 0.05168,0.0072 0.06615,0.02067 0.01344,0.01137 0.02067,0.02687 0.02067,0.04547 0,0.01964 -0.0072,0.03617 -0.02067,0.04961 -0.01447,0.01137 -0.03617,0.01653 -0.06615,0.01653 h -0.132292 z m 1.433502,-1.810742 v 0.636653 c 0.07648,-0.02997 0.149864,-0.05374 0.219111,-0.07028 0.07131,-0.01653 0.138493,-0.0248 0.202572,-0.0248 0.162263,0 0.297656,0.05788 0.40514,0.173633 0.109555,0.113689 0.165365,0.26355 0.165365,0.450619 0,0.204639 -0.06201,0.371036 -0.186034,0.500228 -0.121955,0.127124 -0.275953,0.190169 -0.463021,0.190169 -0.121955,0 -0.238746,-0.02791 -0.351399,-0.08268 -0.08268,-0.03514 -0.156063,-0.08268 -0.219108,-0.14056 -0.04134,-0.03307 -0.06201,-0.06201 -0.06201,-0.08682 0,-0.01653 0.0052,-0.03101 0.01654,-0.04548 0.01344,-0.01344 0.02894,-0.02067 0.04547,-0.02067 0.0186,0 0.03824,0.01034 0.05788,0.02894 0.153995,0.146761 0.323496,0.219108 0.508497,0.219108 0.150897,0 0.276987,-0.05064 0.376205,-0.152962 0.09922,-0.104387 0.148827,-0.243913 0.148827,-0.417546 0,-0.145727 -0.04444,-0.262516 -0.132292,-0.3514 -0.08578,-0.09095 -0.193269,-0.136425 -0.32246,-0.136425 -0.135393,0 -0.270785,0.03617 -0.405144,0.107487 -0.03308,0.01653 -0.05685,0.0248 -0.07028,0.0248 -0.01964,0 -0.03514,-0.0052 -0.04548,-0.01653 -0.01137,-0.01344 -0.01653,-0.03101 -0.01653,-0.05374 v -0.859895 h 0.905372 c 0.02999,0 0.05167,0.0072 0.06614,0.02067 0.01344,0.01137 0.02067,0.02687 0.02067,0.04547 0,0.01654 -0.0072,0.03204 -0.02067,0.04548 -0.01446,0.01137 -0.03617,0.01653 -0.06614,0.01653 z M 74.888451,61.784331 h -0.21911 L 74.13604,60.57717 h -0.132292 c -0.03101,0 -0.05271,-0.0052 -0.06615,-0.01654 -0.01446,-0.01344 -0.02067,-0.02997 -0.02067,-0.04961 0,-0.0186 0.0062,-0.03411 0.02067,-0.04548 0.01344,-0.01344 0.03514,-0.02067 0.06615,-0.02067 h 0.487828 c 0.02999,0 0.05168,0.0072 0.06615,0.02067 0.01344,0.01137 0.02067,0.02687 0.02067,0.04548 0,0.01964 -0.0072,0.03617 -0.02067,0.04961 -0.01446,0.01137 -0.03617,0.01654 -0.06615,0.01654 H 74.2766 l 0.475425,1.079004 h 0.05788 L 75.27706,60.57717 h -0.21911 c -0.03101,0 -0.05271,-0.0052 -0.06615,-0.01654 -0.01136,-0.01344 -0.01654,-0.02997 -0.01654,-0.04961 0,-0.0186 0.0052,-0.03411 0.01654,-0.04548 0.01344,-0.01344 0.03514,-0.02067 0.06615,-0.02067 h 0.491962 c 0.02999,0 0.05168,0.0072 0.06615,0.02067 0.01344,0.01137 0.02067,0.02687 0.02067,0.04548 0,0.01964 -0.0072,0.03617 -0.02067,0.04961 -0.01446,0.01137 -0.03617,0.01654 -0.06615,0.01654 h -0.132291 z m 1.855184,-1.967838 v 1.839681 h 0.446483 c 0.02999,0 0.05168,0.0062 0.06615,0.01653 0.01344,0.01137 0.02067,0.02687 0.02067,0.04548 0,0.01964 -0.0072,0.03617 -0.02067,0.04961 -0.01446,0.01137 -0.03617,0.01654 -0.06615,0.01654 h -1.021126 c -0.03101,0 -0.05271,-0.0052 -0.06615,-0.01654 -0.01446,-0.01344 -0.02067,-0.02997 -0.02067,-0.04961 0,-0.01861 0.0062,-0.03411 0.02067,-0.04548 0.01344,-0.01034 0.03514,-0.01653 0.06615,-0.01653 h 0.446483 v -1.65778 l -0.425814,0.132292 c -0.01965,0.0062 -0.03306,0.0083 -0.04134,0.0083 -0.01655,0 -0.03203,-0.0052 -0.04548,-0.01654 -0.01136,-0.01344 -0.01654,-0.02997 -0.01654,-0.04961 0,-0.01344 0.0041,-0.02687 0.01242,-0.04134 0.0083,-0.0083 0.02582,-0.01757 0.05374,-0.02894 z m 5.637897,1.967838 H 82.162425 L 81.629124,60.57717 h -0.132292 c -0.03101,0 -0.05271,-0.0052 -0.06615,-0.01654 -0.01446,-0.01344 -0.02067,-0.02997 -0.02067,-0.04961 0,-0.0186 0.0062,-0.03411 0.02067,-0.04548 0.01344,-0.01344 0.03514,-0.02067 0.06615,-0.02067 h 0.487825 c 0.02999,0 0.05168,0.0072 0.06615,0.02067 0.01344,0.01137 0.02067,0.02687 0.02067,0.04548 0,0.01964 -0.0072,0.03617 -0.02067,0.04961 -0.01446,0.01137 -0.03617,0.01654 -0.06615,0.01654 h -0.214972 l 0.475421,1.079004 h 0.05788 l 0.467156,-1.079004 h -0.219107 c -0.03101,0 -0.05271,-0.0052 -0.06615,-0.01654 -0.01136,-0.01344 -0.01655,-0.02997 -0.01655,-0.04961 0,-0.0186 0.0052,-0.03411 0.01655,-0.04548 0.01344,-0.01344 0.03514,-0.02067 0.06615,-0.02067 h 0.491959 c 0.02999,0 0.05168,0.0072 0.06615,0.02067 0.01344,0.01137 0.02067,0.02687 0.02067,0.04548 0,0.01964 -0.0072,0.03617 -0.02067,0.04961 -0.01446,0.01137 -0.03617,0.01654 -0.06615,0.01654 H 82.910699 Z M 83.6166,61.656174 h 0.996322 v -0.05374 c 0,-0.02997 0.0052,-0.05168 0.01655,-0.06614 0.01344,-0.01344 0.02999,-0.02067 0.04961,-0.02067 0.01859,0 0.03411,0.0072 0.04547,0.02067 0.01344,0.01447 0.02067,0.03617 0.02067,0.06614 v 0.181901 h -1.256771 v -0.190169 c 0.264584,-0.236678 0.520898,-0.47749 0.768943,-0.72347 0.115757,-0.115755 0.195336,-0.199471 0.239779,-0.252181 0.04341,-0.05478 0.07235,-0.101286 0.08682,-0.14056 0.01655,-0.04134 0.0248,-0.08268 0.0248,-0.124023 0,-0.112655 -0.04548,-0.211874 -0.136426,-0.297657 -0.08888,-0.08475 -0.196371,-0.128157 -0.32246,-0.128157 -0.11369,0 -0.213943,0.03307 -0.301791,0.09922 -0.08579,0.06408 -0.142628,0.14366 -0.169499,0.239779 -0.0062,0.0248 -0.01242,0.04134 -0.02067,0.04961 -0.01446,0.0083 -0.02893,0.0124 -0.04547,0.0124 -0.01655,0 -0.03203,-0.0052 -0.04548,-0.01653 -0.01136,-0.01034 -0.01654,-0.0248 -0.01654,-0.04134 0,-0.04961 0.02688,-0.115756 0.08268,-0.198438 0.05478,-0.08475 0.129191,-0.152962 0.223242,-0.202571 0.09612,-0.04961 0.194306,-0.07442 0.293525,-0.07442 0.162264,0 0.301787,0.05685 0.417544,0.169499 0.115754,0.113688 0.173634,0.241846 0.173634,0.384473 0,0.05788 -0.01034,0.113688 -0.02893,0.165365 -0.01965,0.04961 -0.05271,0.105419 -0.09922,0.165364 -0.04754,0.05788 -0.131258,0.146761 -0.252183,0.264583 -0.305925,0.300757 -0.55397,0.533301 -0.744139,0.698666 z m 6.278685,0.128157 h -0.21911 L 89.142878,60.57717 h -0.132292 c -0.03101,0 -0.05271,-0.0052 -0.06615,-0.01654 -0.01446,-0.01344 -0.02067,-0.02997 -0.02067,-0.04961 0,-0.0186 0.0062,-0.03411 0.02067,-0.04548 0.01344,-0.01344 0.03514,-0.02067 0.06615,-0.02067 h 0.487824 c 0.02999,0 0.05167,0.0072 0.06615,0.02067 0.01344,0.01137 0.02067,0.02687 0.02067,0.04548 0,0.01964 -0.0072,0.03617 -0.02067,0.04961 -0.01446,0.01137 -0.03617,0.01654 -0.06615,0.01654 h -0.214975 l 0.475424,1.079004 h 0.05788 l 0.467155,-1.079004 h -0.219106 c -0.03101,0 -0.05271,-0.0052 -0.06615,-0.01654 -0.01136,-0.01344 -0.01655,-0.02997 -0.01655,-0.04961 0,-0.0186 0.0052,-0.03411 0.01655,-0.04548 0.01344,-0.01344 0.03514,-0.02067 0.06615,-0.02067 h 0.491959 c 0.02999,0 0.05168,0.0072 0.06615,0.02067 0.01344,0.01137 0.02067,0.02687 0.02067,0.04548 0,0.01964 -0.0072,0.03617 -0.02067,0.04961 -0.01446,0.01137 -0.03617,0.01654 -0.06615,0.01654 h -0.132292 z m 2.03605,-1.054199 c 0.120925,0.05271 0.211875,0.126091 0.272853,0.219108 0.06305,0.09405 0.09508,0.19017 0.09508,0.289388 0,0.157096 -0.06408,0.295589 -0.190169,0.413412 -0.124022,0.118856 -0.281121,0.177767 -0.471289,0.177767 -0.110586,0 -0.226343,-0.02377 -0.347264,-0.07028 -0.118858,-0.04651 -0.201539,-0.09508 -0.248049,-0.144694 -0.01655,-0.01653 -0.0248,-0.03411 -0.0248,-0.05374 0,-0.01654 0.0052,-0.02997 0.01654,-0.04134 0.01344,-0.01344 0.02893,-0.02067 0.04548,-0.02067 0.01654,0 0.03411,0.0083 0.05374,0.0248 0.159166,0.118855 0.328662,0.177766 0.508497,0.177766 0.14883,0 0.273886,-0.04651 0.376206,-0.14056 0.101286,-0.09612 0.152961,-0.202571 0.152961,-0.318326 0,-0.07648 -0.0248,-0.150896 -0.07441,-0.223242 -0.04961,-0.07441 -0.121955,-0.132292 -0.214972,-0.173633 -0.09405,-0.04341 -0.189135,-0.06615 -0.285256,-0.06615 -0.03101,0 -0.05271,-0.0052 -0.06615,-0.01653 -0.01446,-0.01344 -0.02067,-0.02997 -0.02067,-0.04961 0,-0.01861 0.0052,-0.03411 0.01655,-0.04548 0.01344,-0.01344 0.03411,-0.02067 0.06201,-0.02067 h 0.111618 c 0.115757,0 0.210842,-0.03411 0.285257,-0.103353 0.07648,-0.07131 0.115753,-0.153996 0.115753,-0.248047 0,-0.09612 -0.04031,-0.181901 -0.119888,-0.256315 -0.08062,-0.07441 -0.18397,-0.111621 -0.31006,-0.111621 -0.09095,0 -0.173634,0.0155 -0.248045,0.04547 -0.07442,0.03101 -0.135393,0.07338 -0.181903,0.128158 -0.01654,0.01964 -0.02893,0.03204 -0.03721,0.03721 -0.0083,0.0062 -0.01859,0.0083 -0.02893,0.0083 -0.01965,0 -0.03617,-0.0052 -0.04961,-0.01654 -0.01136,-0.01344 -0.01655,-0.02894 -0.01655,-0.04547 0,-0.04134 0.04548,-0.09302 0.136426,-0.157096 0.124023,-0.08785 0.265617,-0.132292 0.425814,-0.132292 0.162263,0 0.295589,0.04961 0.401009,0.148828 0.107488,0.09922 0.16123,0.217041 0.16123,0.3514 0,0.08888 -0.02688,0.171566 -0.07855,0.248047 -0.04961,0.07751 -0.124026,0.139526 -0.223245,0.186035 z m 5.455998,1.054199 H 97.168226 L 96.634925,60.57717 h -0.132292 c -0.03101,0 -0.05271,-0.0052 -0.06615,-0.01654 -0.01446,-0.01344 -0.02067,-0.02997 -0.02067,-0.04961 0,-0.0186 0.0062,-0.03411 0.02067,-0.04548 0.01344,-0.01344 0.03514,-0.02067 0.06615,-0.02067 h 0.487825 c 0.02999,0 0.05168,0.0072 0.06614,0.02067 0.01344,0.01137 0.02067,0.02687 0.02067,0.04548 0,0.01964 -0.0072,0.03617 -0.02067,0.04961 -0.01446,0.01137 -0.03617,0.01654 -0.06614,0.01654 h -0.214973 l 0.475421,1.079004 h 0.05788 l 0.467155,-1.079004 h -0.21911 c -0.03101,0 -0.05271,-0.0052 -0.06615,-0.01654 -0.01136,-0.01344 -0.01654,-0.02997 -0.01654,-0.04961 0,-0.0186 0.0052,-0.03411 0.01654,-0.04548 0.01344,-0.01344 0.03514,-0.02067 0.06615,-0.02067 h 0.491959 c 0.02999,0 0.05168,0.0072 0.06615,0.02067 0.01344,0.01137 0.02067,0.02687 0.02067,0.04548 0,0.01964 -0.0072,0.03617 -0.02067,0.04961 -0.01446,0.01137 -0.03617,0.01654 -0.06615,0.01654 h -0.132292 z m 2.032952,-0.541568 H 98.560389 V 61.0898 l 0.72347,-1.244368 h 0.268718 v 1.265039 h 0.107487 c 0.03306,0 0.05581,0.0072 0.07028,0.02067 0.01344,0.01137 0.02067,0.02687 0.02067,0.04548 0,0.01963 -0.0072,0.03617 -0.02067,0.04961 -0.01446,0.01137 -0.0372,0.01653 -0.07028,0.01653 h -0.107487 v 0.413411 h 0.107487 c 0.03306,0 0.05581,0.0062 0.07028,0.01653 0.01344,0.01137 0.02067,0.02687 0.02067,0.04548 0,0.01964 -0.0072,0.03617 -0.02067,0.04961 -0.01446,0.01137 -0.0372,0.01654 -0.07028,0.01654 h -0.479559 c -0.03305,0 -0.05684,-0.0052 -0.07028,-0.01654 -0.01446,-0.01344 -0.02067,-0.02997 -0.02067,-0.04961 0,-0.01861 0.0062,-0.03411 0.02067,-0.04548 0.01344,-0.01034 0.03721,-0.01653 0.07028,-0.01653 h 0.23978 z m 0,-0.132292 v -1.136882 h -0.06615 l -0.657324,1.136882 z m 5.460135,0.67386 h -0.21911 l -0.5333,-1.207161 h -0.13229 c -0.031,0 -0.0527,-0.0052 -0.0662,-0.01654 -0.0145,-0.01344 -0.0207,-0.02997 -0.0207,-0.04961 0,-0.0186 0.006,-0.03411 0.0207,-0.04548 0.0134,-0.01344 0.0351,-0.02067 0.0662,-0.02067 h 0.48782 c 0.03,0 0.0517,0.0072 0.0661,0.02067 0.0134,0.01137 0.0207,0.02687 0.0207,0.04548 0,0.01964 -0.007,0.03617 -0.0207,0.04961 -0.0145,0.01137 -0.0362,0.01654 -0.0661,0.01654 h -0.21497 l 0.47542,1.079004 h 0.0579 l 0.46715,-1.079004 h -0.2191 c -0.031,0 -0.0527,-0.0052 -0.0661,-0.01654 -0.0114,-0.01344 -0.0166,-0.02997 -0.0166,-0.04961 0,-0.0186 0.005,-0.03411 0.0166,-0.04548 0.0134,-0.01344 0.0351,-0.02067 0.0661,-0.02067 h 0.49196 c 0.03,0 0.0517,0.0072 0.0661,0.02067 0.0134,0.01137 0.0207,0.02687 0.0207,0.04548 0,0.01964 -0.007,0.03617 -0.0207,0.04961 -0.0145,0.01137 -0.0362,0.01654 -0.0661,0.01654 h -0.1323 z m 1.4335,-1.810742 v 0.636654 c 0.0765,-0.02997 0.14986,-0.05374 0.21911,-0.07028 0.0713,-0.01653 0.13849,-0.0248 0.20257,-0.0248 0.16226,0 0.29766,0.05788 0.40514,0.173633 0.10956,0.113688 0.16537,0.263549 0.16537,0.450618 0,0.204639 -0.062,0.371037 -0.18604,0.500228 -0.12195,0.127124 -0.27595,0.190169 -0.46302,0.190169 -0.12195,0 -0.23874,-0.0279 -0.3514,-0.08268 -0.0827,-0.03514 -0.15606,-0.08268 -0.21911,-0.14056 -0.0413,-0.03307 -0.062,-0.06201 -0.062,-0.08682 0,-0.01653 0.005,-0.03101 0.0165,-0.04547 0.0134,-0.01344 0.0289,-0.02067 0.0455,-0.02067 0.0186,0 0.0382,0.01034 0.0579,0.02894 0.15399,0.146761 0.32349,0.219108 0.50849,0.219108 0.1509,0 0.27699,-0.05064 0.37621,-0.152962 0.0992,-0.104387 0.14883,-0.243913 0.14883,-0.417546 0,-0.145728 -0.0444,-0.262516 -0.1323,-0.3514 -0.0858,-0.09095 -0.19326,-0.136425 -0.32246,-0.136425 -0.13539,0 -0.27078,0.03617 -0.40514,0.107486 -0.0331,0.01653 -0.0568,0.0248 -0.0703,0.0248 -0.0197,0 -0.0351,-0.0052 -0.0455,-0.01653 -0.0114,-0.01344 -0.0165,-0.03101 -0.0165,-0.05374 v -0.859896 h 0.90537 c 0.03,0 0.0517,0.0072 0.0661,0.02067 0.0134,0.01137 0.0207,0.02687 0.0207,0.04548 0,0.01653 -0.007,0.03204 -0.0207,0.04547 -0.0145,0.01137 -0.0362,0.01653 -0.0661,0.01653 z m 0,0"
       style="fill:#000000 icc-color(sRGB-IEC61966-2, 0.1, 0, 0, 0);fill-opacity:1;fill-rule:nonzero;stroke:none;stroke-width:0.352778"
       aria-label="(1)v1 = 10&#10;(2)v2 = 20&#10;(3)v3 = v1 + v2&#10;(4)v4 = v2 + v3&#10;(5)v1 = v3 + v4&#10;(6)v5 = v4 + v1&#10;(7)return v1 + v5&#10;v1v2v3v4v5" />
    <path
       id="path19"
       d="m 75.730938,65.806503 v 29.866165 m -1.016,-29.866165 h 2.010833 m -2.010833,29.866165 h 2.010833 m 6.498167,-24.891999 v 9.9695 m -0.973667,-9.9695 h 1.989667 m -1.989667,9.9695 h 1.989667 m 6.476999,-4.974166 v 9.927166 m -0.973666,-9.927166 h 1.989666 m -1.989666,9.927166 h 1.989666 m 6.519333,-4.953 v 9.927166 m -1.016,-9.927166 h 1.989667 m -1.989667,9.927166 h 1.989667 m 6.519333,0 v 4.995333 m -0.99483,-4.995333 h 1.9685 m -1.9685,4.995333 h 1.9685"
       style="fill:none;stroke:#000000 icc-color(sRGB-IEC61966-2, 0.1, 0, 0, 0);stroke-width:0.4318;stroke-linecap:round;stroke-linejoin:round;stroke-miterlimit:10;stroke-dasharray:none;stroke-opacity:1" />
  </g>
</svg>
