<?xml version="1.0" encoding="UTF-8" standalone="no"?>
<!-- Created with Inkscape (http://www.inkscape.org/) -->

<svg
   width="62.824074mm"
   height="59.16433mm"
   viewBox="0 0 62.824074 59.16433"
   version="1.1"
   id="svg1"
   inkscape:version="1.3 (0e150ed6c4, 2023-07-21)"
   sodipodi:docname="pbqp.svg"
   xmlns:inkscape="http://www.inkscape.org/namespaces/inkscape"
   xmlns:sodipodi="http://sodipodi.sourceforge.net/DTD/sodipodi-0.dtd"
   xmlns="http://www.w3.org/2000/svg"
   xmlns:svg="http://www.w3.org/2000/svg">
  <sodipodi:namedview
     id="namedview1"
     pagecolor="#ffffff"
     bordercolor="#000000"
     borderopacity="0.25"
     inkscape:showpageshadow="2"
     inkscape:pageopacity="0.0"
     inkscape:pagecheckerboard="0"
     inkscape:deskcolor="#d1d1d1"
     inkscape:document-units="mm"
     inkscape:zoom="1.173123"
     inkscape:cx="121.04442"
     inkscape:cy="121.89685"
     inkscape:window-width="1366"
     inkscape:window-height="705"
     inkscape:window-x="0"
     inkscape:window-y="26"
     inkscape:window-maximized="1"
     inkscape:current-layer="layer1" />
  <defs
     id="defs1" />
  <g
     inkscape:label="Camada 1"
     inkscape:groupmode="layer"
     id="layer1"
     transform="translate(-1.0976145,-1.0047057)">
    <path
       id="path34"
       d="m 15.94409,47.535993 c 0,-1.88912 -1.51483,-3.40395 -3.40395,-3.40395 -1.88913,0 -3.4039604,1.51483 -3.4039604,3.40395 0,1.88912 1.5148304,3.40395 3.4039604,3.40395 1.88912,0 3.40395,-1.51483 3.40395,-3.40395 z"
       style="fill:#ffffff;fill-opacity:1;fill-rule:nonzero;stroke:#000000;stroke-width:0.281164;stroke-linecap:butt;stroke-linejoin:miter;stroke-miterlimit:10;stroke-dasharray:none;stroke-opacity:1" />
    <path
       id="path35"
       d="m 13.14649,47.187913 c 0.0165,-0.0827 0.0537,-0.22737 0.0537,-0.24391 0,-0.0372 -0.0289,-0.091 -0.0951,-0.091 -0.0455,0 -0.0951,0.0289 -0.11576,0.0661 -0.0165,0.0331 -0.23151,0.88883 -0.24804,0.99632 -0.0661,0.11162 -0.19431,0.25631 -0.36794,0.25631 -0.19844,0 -0.19844,-0.19843 -0.19844,-0.25631 0,-0.1447 0.0413,-0.29766 0.17777,-0.65319 0.0248,-0.0744 0.0455,-0.11576 0.0455,-0.17777 0,-0.15296 -0.11575,-0.26458 -0.27285,-0.26458 -0.30179,0 -0.42994,0.45062 -0.42994,0.48782 0,0.0289 0.0248,0.0372 0.0455,0.0372 0.0331,0 0.0372,-0.0207 0.0496,-0.062 0.0661,-0.22738 0.19017,-0.38447 0.3266,-0.38447 0.0661,0 0.0744,0.0455 0.0744,0.10335 0,0.0537 -0.0124,0.11162 -0.0413,0.18603 -0.14883,0.39274 -0.19017,0.52504 -0.19017,0.678 0,0.3514 0.28525,0.38447 0.40514,0.38447 0.17777,0 0.31006,-0.10749 0.38447,-0.2067 0.0579,0.2067 0.26872,0.2067 0.28939,0.2067 0.0909,0 0.1695,-0.0413 0.23565,-0.16536 0.0579,-0.10336 0.10335,-0.30593 0.10335,-0.31833 0,-0.0165 -0.008,-0.0413 -0.0413,-0.0413 -0.0372,0 -0.0413,0.0165 -0.0537,0.0786 -0.062,0.24804 -0.12816,0.36793 -0.23565,0.36793 -0.0786,0 -0.0992,-0.0661 -0.0992,-0.14469 0,-0.0579 0.0165,-0.12402 0.0455,-0.23565 0.0331,-0.13642 0.0496,-0.20257 0.0785,-0.32246 z m 0,0"
       style="fill:#000000;fill-opacity:1;fill-rule:nonzero;stroke:none;stroke-width:0.352778"
       aria-label="u" />
    <path
       id="path36"
       d="m 55.9445,47.535993 c 0,-1.88912 -1.51483,-3.40395 -3.40395,-3.40395 -1.88913,0 -3.40396,1.51483 -3.40396,3.40395 0,1.88912 1.51483,3.40395 3.40396,3.40395 1.88912,0 3.40395,-1.51483 3.40395,-3.40395 z"
       style="fill:#ffffff;fill-opacity:1;fill-rule:nonzero;stroke:#000000;stroke-width:0.281164;stroke-linecap:butt;stroke-linejoin:miter;stroke-miterlimit:10;stroke-dasharray:none;stroke-opacity:1" />
    <path
       id="path37"
       d="m 53.21536,47.051493 c 0,-0.22324 -0.11575,-0.23565 -0.14469,-0.23565 -0.0786,0 -0.16123,0.0868 -0.16123,0.1571 0,0.0496 0.0289,0.0744 0.0496,0.0951 0.0868,0.0786 0.11575,0.17777 0.11575,0.26045 0,0.14056 -0.20257,0.84336 -0.56637,0.84336 -0.23978,0 -0.23978,-0.2191 -0.23978,-0.27698 0,-0.13643 0.0455,-0.29766 0.15709,-0.58705 0.0496,-0.13229 0.062,-0.16123 0.062,-0.22324 0,-0.15296 -0.11576,-0.26458 -0.27285,-0.26458 -0.3018,0 -0.42995,0.45062 -0.42995,0.48782 0,0.0289 0.0248,0.0372 0.0455,0.0372 0.0331,0 0.0372,-0.0207 0.0496,-0.062 0.0661,-0.23151 0.19431,-0.38447 0.3266,-0.38447 0.062,0 0.0744,0.0413 0.0744,0.10335 0,0.0537 -0.0124,0.11162 -0.0413,0.18603 -0.11162,0.30593 -0.19017,0.5085 -0.19017,0.6656 0,0.29765 0.22738,0.39687 0.44648,0.39687 0.52917,0 0.71934,-0.99632 0.71934,-1.19889 z m 0,0"
       style="fill:#000000;fill-opacity:1;fill-rule:nonzero;stroke:none;stroke-width:0.352778"
       aria-label="v" />
    <path
       id="path38"
       d="m 35.94447,17.535767 c 0,-1.889125 -1.51483,-3.403953 -3.40395,-3.403953 -1.88913,0 -3.40396,1.514828 -3.40396,3.403953 0,1.889125 1.51483,3.403953 3.40396,3.403953 1.88912,0 3.40395,-1.514828 3.40395,-3.403953 z"
       style="fill:#ffffff;fill-opacity:1;fill-rule:nonzero;stroke:#000000;stroke-width:0.281164;stroke-linecap:butt;stroke-linejoin:miter;stroke-miterlimit:10;stroke-dasharray:none;stroke-opacity:1" />
    <path
       id="path39"
       d="m 32.84141,17.133941 c 0.0165,-0.06201 0.0455,-0.173633 0.0455,-0.190169 0,-0.03721 -0.0289,-0.09095 -0.0992,-0.09095 -0.0413,0 -0.0992,0.02481 -0.12402,0.08682 -0.004,0.02067 -0.1571,0.628386 -0.17777,0.711068 -0.0165,0.07441 -0.0289,0.128158 -0.0289,0.202572 0.0124,0.07855 -0.0372,0.148828 -0.0827,0.21084 -0.0703,0.08682 -0.14056,0.107487 -0.20671,0.107487 -0.11575,0 -0.26045,-0.04548 -0.26045,-0.285254 0,-0.161231 0.0827,-0.388607 0.1819,-0.644922 0.0165,-0.04134 0.0372,-0.09508 0.0372,-0.157097 0,-0.152962 -0.11575,-0.264583 -0.27285,-0.264583 -0.30179,0 -0.42995,0.450619 -0.42995,0.487826 0,0.02894 0.0248,0.03721 0.0455,0.03721 0.0331,0 0.0372,-0.02067 0.0496,-0.06201 0.0661,-0.23151 0.1943,-0.384473 0.32659,-0.384473 0.062,0 0.0744,0.04134 0.0744,0.103353 0,0.05374 -0.0124,0.111621 -0.0413,0.186035 -0.15296,0.405143 -0.18603,0.525033 -0.18603,0.657324 0,0.359668 0.30592,0.405144 0.46715,0.405144 0.11989,0 0.23978,-0.04961 0.33073,-0.214974 0.0951,0.190169 0.29352,0.214974 0.40928,0.214974 0.22738,0 0.3638,-0.161231 0.46302,-0.372071 0.0909,-0.186035 0.21084,-0.636653 0.21084,-0.826822 0,-0.223243 -0.11575,-0.235645 -0.14469,-0.235645 -0.0785,0 -0.16123,0.08682 -0.16123,0.157096 0,0.04961 0.0289,0.07441 0.0496,0.09508 0.0868,0.07855 0.11575,0.177767 0.11575,0.260449 0,0.09509 -0.0785,0.384473 -0.17363,0.570508 -0.0703,0.136426 -0.17777,0.272852 -0.34727,0.272852 -0.23978,0 -0.23978,-0.219109 -0.23978,-0.276986 0,-0.08682 0.0165,-0.152962 0.0455,-0.264583 z m 0,0"
       style="fill:#000000;fill-opacity:1;fill-rule:nonzero;stroke:none;stroke-width:0.352778"
       aria-label="w" />
    <path
       id="path40"
       d="M 16.08485,47.535993 H 48.74678"
       style="fill:none;stroke:#000000;stroke-width:0.281164;stroke-linecap:butt;stroke-linejoin:miter;stroke-miterlimit:10;stroke-dasharray:none;stroke-opacity:1" />
    <path
       id="path41"
       d="m 48.1982,46.805033 c 0.0455,0.27411 0.54822,0.68545 0.68545,0.73096 -0.13723,0.0459 -0.63994,0.45684 -0.68545,0.73095"
       style="fill:none;stroke:#000000;stroke-width:0.225072;stroke-linecap:round;stroke-linejoin:round;stroke-miterlimit:10;stroke-dasharray:none;stroke-opacity:1" />
    <path
       id="path42"
       d="M 14.51216,44.577593 30.42914,20.7023"
       style="fill:none;stroke:#000000;stroke-width:0.281164;stroke-linecap:butt;stroke-linejoin:miter;stroke-miterlimit:10;stroke-dasharray:none;stroke-opacity:1" />
    <path
       id="path43"
       d="m 29.51404,20.7531 c 0.25435,0.1143 0.87701,-0.0762 0.99131,-0.1651 -0.0381,0.1397 0.0254,0.787753 0.22895,0.978606"
       style="fill:none;stroke:#000000;stroke-width:0.225778;stroke-linecap:round;stroke-linejoin:round;stroke-miterlimit:10;stroke-dasharray:none;stroke-opacity:1" />
    <path
       id="path44"
       d="M 50.56852,44.577593 34.65154,20.7023"
       style="fill:none;stroke:#000000;stroke-width:0.281164;stroke-linecap:butt;stroke-linejoin:miter;stroke-miterlimit:10;stroke-dasharray:none;stroke-opacity:1" />
    <path
       id="path45"
       d="m 34.34639,21.566607 c 0.20355,-0.1905 0.26705,-0.838906 0.22895,-0.978606 0.1143,0.0889 0.73696,0.2794 0.99131,0.1651"
       style="fill:none;stroke:#000000;stroke-width:0.225778;stroke-linecap:round;stroke-linejoin:round;stroke-miterlimit:10;stroke-dasharray:none;stroke-opacity:1" />
    <g
       id="g45"
       aria-label="⎛&#10;⎝&#10;0&#10;0&#10;0&#10;⎞&#10;⎠&#10;⎛&#10;⎝&#10;0&#10;0&#10;0&#10;⎞&#10;⎠&#10;⎛&#10;⎝&#10;0&#10;0&#10;0&#10;⎞&#10;⎠&#10;⎛&#10;⎝&#10;∞00&#10;0∞0&#10;00∞&#10;⎞&#10;⎠&#10;⎛&#10;⎝&#10;∞00&#10;0∞0&#10;00∞&#10;⎞&#10;⎠&#10;⎛&#10;⎝&#10;∞00&#10;0∞0&#10;00∞&#10;⎞&#10;⎠&#10;Fig.1.PBQPinstancefor3-coloring"
       transform="matrix(0.35277776,0,0,0.35277776,0.17572962,41.976773)">
      <path
         id="path46"
         d="m 3.3514984,15.86745 c 0.1992188,0 0.2578125,0 0.2578125,-0.128906 0.011719,-6.2812498 0.7382813,-11.4960936 3.8789063,-15.87890606 0.058594,-0.0820313 0.058594,-0.10546875 0.058594,-0.1171875 0,-0.09375 -0.058594,-0.09375 -0.1992187,-0.09375 -0.1523438,0 -0.1640625,0 -0.1875,0.0234375 C 7.1249359,-0.30442456 5.9882172,1.0080754 5.0858734,2.8010442 3.9022797,5.1682317 3.1522797,7.8869817 2.8241547,11.156513 2.8007172,11.426044 2.6132172,13.289325 2.6132172,15.422138 V 15.7737 c 0,0.09375 0.058594,0.09375 0.2460937,0.09375 z M 2.8593109,15.636005 c -0.1875,0 -0.2460937,0 -0.2460937,0.09375 v 0.351563 c 0,5.472656 0.9726562,8.683593 1.2539062,9.597656 0.609375,1.980469 1.6054688,4.078125 3.09375,5.929687 0.140625,0.164063 0.1757813,0.210938 0.2109375,0.222657 0.023437,0.01172 0.023437,0.02344 0.1757813,0.02344 0.140625,0 0.1992187,0 0.1992187,-0.09375 0,-0.02344 0,-0.03516 -0.046875,-0.117187 -2.9882812,-4.136719 -3.890625,-9.128907 -3.890625,-15.890625 0,-0.117188 -0.058594,-0.117188 -0.2578125,-0.117188 z m 0,0"
         style="fill:#000000;fill-opacity:1;fill-rule:nonzero;stroke:none" />
      <path
         id="path47"
         d="m 12.401303,4.0901067 c 0,-0.5976563 -0.02344,-1.3710938 -0.339844,-2.0390625 -0.398437,-0.84375 -1.078125,-1.05468751 -1.59375,-1.05468751 -0.5390621,0 -1.2187496,0.21093751 -1.6171871,1.06640621 -0.2929688,0.6210938 -0.328125,1.3476563 -0.328125,2.0273438 0,0.5859375 0.011719,1.453125 0.3984375,2.1679687 0.421875,0.7617188 1.1249996,0.9023438 1.5351566,0.9023438 0.585937,0 1.242187,-0.2578125 1.617187,-1.078125 0.269531,-0.5976563 0.328125,-1.2773438 0.328125,-1.9921875 z m -1.933594,2.8476562 c -0.269531,0 -0.9140621,-0.1289062 -1.0898434,-1.1367187 -0.09375,-0.5390625 -0.09375,-1.3007813 -0.09375,-1.8164063 0,-0.609375 0,-1.3125 0.1171875,-1.8164062 0.1757813,-0.796875 0.7499999,-0.9492188 1.0546879,-0.9492188 0.339843,0 0.902343,0.1757813 1.078125,1.0078125 0.09375,0.4921875 0.09375,1.1953125 0.09375,1.7578125 0,0.5507813 0,1.3125 -0.09375,1.8398438 -0.1875,1.0195312 -0.84375,1.1132812 -1.066407,1.1132812 z m 1.933594,8.0712891 c 0,-0.597656 -0.02344,-1.371094 -0.339844,-2.039063 -0.398437,-0.84375 -1.078125,-1.054687 -1.59375,-1.054687 -0.5390621,0 -1.2187496,0.210937 -1.6171871,1.066406 -0.2929688,0.621094 -0.328125,1.347656 -0.328125,2.027344 0,0.585937 0.011719,1.453125 0.3984375,2.167969 0.421875,0.761718 1.1249996,0.902343 1.5351566,0.902343 0.585937,0 1.242187,-0.257812 1.617187,-1.078125 0.269531,-0.597656 0.328125,-1.277343 0.328125,-1.992187 z m -1.933594,2.847656 c -0.269531,0 -0.9140621,-0.128906 -1.0898434,-1.136719 -0.09375,-0.539062 -0.09375,-1.300781 -0.09375,-1.816406 0,-0.609375 0,-1.3125 0.1171875,-1.816406 0.1757813,-0.796875 0.7499999,-0.949219 1.0546879,-0.949219 0.339843,0 0.902343,0.175781 1.078125,1.007813 0.09375,0.492187 0.09375,1.195312 0.09375,1.757812 0,0.550781 0,1.3125 -0.09375,1.839844 -0.1875,1.019531 -0.84375,1.113281 -1.066407,1.113281 z m 1.933594,8.074219 c 0,-0.597656 -0.02344,-1.371094 -0.339844,-2.039063 -0.398437,-0.84375 -1.078125,-1.054687 -1.59375,-1.054687 -0.5390621,0 -1.2187496,0.210937 -1.6171871,1.066406 -0.2929688,0.621094 -0.328125,1.347656 -0.328125,2.027344 0,0.585937 0.011719,1.453125 0.3984375,2.167969 0.421875,0.761718 1.1249996,0.902343 1.5351566,0.902343 0.585937,0 1.242187,-0.257812 1.617187,-1.078125 0.269531,-0.597656 0.328125,-1.277343 0.328125,-1.992187 z m -1.933594,2.847656 c -0.269531,0 -0.9140621,-0.128906 -1.0898434,-1.136719 -0.09375,-0.539062 -0.09375,-1.300781 -0.09375,-1.816406 0,-0.609375 0,-1.3125 0.1171875,-1.816406 0.1757813,-0.796875 0.7499999,-0.949219 1.0546879,-0.949219 0.339843,0 0.902343,0.175781 1.078125,1.007813 0.09375,0.492187 0.09375,1.195312 0.09375,1.757812 0,0.550781 0,1.3125 -0.09375,1.839844 -0.1875,1.019531 -0.84375,1.113281 -1.066407,1.113281 z m 0,0"
         style="fill:#000000;fill-opacity:1;fill-rule:nonzero;stroke:none" />
      <path
         id="path48"
         d="m 17.701108,15.86745 c 0.1875,0 0.234375,0 0.246094,-0.09375 v -0.351562 c 0,-5.4843751 -0.972657,-8.6835938 -1.253907,-9.5976563 -0.609375,-1.9921875 -1.605468,-4.0898438 -3.105468,-5.92968751 -0.128907,-0.1640625 -0.164063,-0.2109375 -0.199219,-0.22265625 -0.02344,-0.0117188 -0.03516,-0.0234375 -0.175781,-0.0234375 -0.128907,0 -0.210938,0 -0.210938,0.09375 0,0.0117188 0,0.0351563 0.117188,0.19921875 3.128906,4.34765621 3.820312,9.72656251 3.832031,15.79687481 0,0.128906 0.05859,0.128906 0.246094,0.128906 z m -0.503906,-0.231445 c -0.1875,0 -0.246094,0 -0.246094,0.117188 0,0.925781 -0.01172,3.058593 -0.246094,5.296875 -0.480469,4.628906 -1.675781,7.839843 -3.632812,10.59375 -0.07031,0.08203 -0.07031,0.09375 -0.07031,0.117187 0,0.09375 0.08203,0.09375 0.210938,0.09375 0.140625,0 0.164062,0 0.175781,-0.02344 0.03516,-0.02344 1.183594,-1.335938 2.085937,-3.140625 1.183594,-2.367188 1.921875,-5.074219 2.261719,-8.34375 0.02344,-0.28125 0.210938,-2.144532 0.210938,-4.265625 v -0.351563 c -0.01172,-0.09375 -0.05859,-0.09375 -0.246094,-0.09375 z M 166.1015,15.86745 c 0.19922,0 0.25781,0 0.25781,-0.128906 0.0117,-6.2812498 0.73828,-11.4960936 3.87891,-15.87890606 0.0586,-0.0820313 0.0586,-0.10546875 0.0586,-0.1171875 0,-0.09375 -0.0586,-0.09375 -0.19922,-0.09375 -0.15234,0 -0.16406,0 -0.1875,0.0234375 -0.0351,0.0234375 -1.17187,1.33593746 -2.07422,3.12890626 -1.18359,2.3671875 -1.93359,5.0859375 -2.26172,8.3554688 -0.0234,0.269531 -0.21093,2.132812 -0.21093,4.265625 V 15.7737 c 0,0.09375 0.0586,0.09375 0.24609,0.09375 z m -0.49219,-0.231445 c -0.1875,0 -0.24609,0 -0.24609,0.09375 v 0.351563 c 0,5.472656 0.97265,8.683593 1.2539,9.597656 0.60938,1.980469 1.60547,4.078125 3.09375,5.929687 0.14063,0.164063 0.17578,0.210938 0.21094,0.222657 0.0234,0.01172 0.0234,0.02344 0.17578,0.02344 0.14063,0 0.19922,0 0.19922,-0.09375 0,-0.02344 0,-0.03516 -0.0469,-0.117187 -2.98829,-4.136719 -3.89063,-9.128907 -3.89063,-15.890625 0,-0.117188 -0.0586,-0.117188 -0.25781,-0.117188 z m 0,0"
         style="fill:#000000;fill-opacity:1;fill-rule:nonzero;stroke:none" />
      <path
         id="path49"
         d="m 175.15423,4.0901067 c 0,-0.5976563 -0.0234,-1.3710938 -0.33984,-2.0390625 -0.39844,-0.84375 -1.07813,-1.05468751 -1.59375,-1.05468751 -0.53906,0 -1.21875,0.21093751 -1.61719,1.06640621 -0.29297,0.6210938 -0.32812,1.3476563 -0.32812,2.0273438 0,0.5859375 0.0117,1.453125 0.39843,2.1679687 0.42188,0.7617188 1.125,0.9023438 1.53516,0.9023438 0.58594,0 1.24219,-0.2578125 1.61719,-1.078125 0.26953,-0.5976563 0.32812,-1.2773438 0.32812,-1.9921875 z m -1.93359,2.8476562 c -0.26953,0 -0.91406,-0.1289062 -1.08984,-1.1367187 -0.0937,-0.5390625 -0.0937,-1.3007813 -0.0937,-1.8164063 0,-0.609375 0,-1.3125 0.11718,-1.8164062 0.17578,-0.796875 0.75,-0.9492188 1.05469,-0.9492188 0.33984,0 0.90234,0.1757813 1.07813,1.0078125 0.0937,0.4921875 0.0937,1.1953125 0.0937,1.7578125 0,0.5507813 0,1.3125 -0.0937,1.8398438 -0.1875,1.0195312 -0.84375,1.1132812 -1.06641,1.1132812 z m 1.93359,8.0742191 c 0,-0.597657 -0.0234,-1.371094 -0.33984,-2.039063 -0.39844,-0.84375 -1.07813,-1.054687 -1.59375,-1.054687 -0.53906,0 -1.21875,0.210937 -1.61719,1.066406 -0.29297,0.621094 -0.32812,1.347656 -0.32812,2.027344 0,0.585937 0.0117,1.453125 0.39843,2.167968 0.42188,0.761719 1.125,0.902344 1.53516,0.902344 0.58594,0 1.24219,-0.257812 1.61719,-1.078125 0.26953,-0.597656 0.32812,-1.277344 0.32812,-1.992187 z m -1.93359,2.847656 c -0.26953,0 -0.91406,-0.128906 -1.08984,-1.136719 -0.0937,-0.539062 -0.0937,-1.300781 -0.0937,-1.816406 0,-0.609375 0,-1.3125 0.11718,-1.816406 0.17578,-0.796875 0.75,-0.949219 1.05469,-0.949219 0.33984,0 0.90234,0.175781 1.07813,1.007812 0.0937,0.492188 0.0937,1.195313 0.0937,1.757813 0,0.550781 0,1.3125 -0.0937,1.839844 -0.1875,1.019531 -0.84375,1.113281 -1.06641,1.113281 z m 1.93359,8.071289 c 0,-0.597656 -0.0234,-1.371094 -0.33984,-2.039063 -0.39844,-0.84375 -1.07813,-1.054687 -1.59375,-1.054687 -0.53906,0 -1.21875,0.210937 -1.61719,1.066406 -0.29297,0.621094 -0.32812,1.347656 -0.32812,2.027344 0,0.585937 0.0117,1.453125 0.39843,2.167969 0.42188,0.761718 1.125,0.902343 1.53516,0.902343 0.58594,0 1.24219,-0.257812 1.61719,-1.078125 0.26953,-0.597656 0.32812,-1.277343 0.32812,-1.992187 z m -1.93359,2.847656 c -0.26953,0 -0.91406,-0.128906 -1.08984,-1.136719 -0.0937,-0.539062 -0.0937,-1.300781 -0.0937,-1.816406 0,-0.609375 0,-1.3125 0.11718,-1.816406 0.17578,-0.796875 0.75,-0.949219 1.05469,-0.949219 0.33984,0 0.90234,0.175781 1.07813,1.007813 0.0937,0.492187 0.0937,1.195312 0.0937,1.757812 0,0.550781 0,1.3125 -0.0937,1.839844 -0.1875,1.019531 -0.84375,1.113281 -1.06641,1.113281 z m 0,0"
         style="fill:#000000;fill-opacity:1;fill-rule:nonzero;stroke:none" />
      <path
         id="path50"
         d="m 180.45111,15.87038 c 0.1875,0 0.23437,0 0.24609,-0.09375 v -0.351562 c 0,-5.4843754 -0.97265,-8.6835941 -1.2539,-9.5976566 -0.60938,-1.9921875 -1.60547,-4.0898438 -3.10547,-5.92968753 -0.12891,-0.1640625 -0.16407,-0.2109375 -0.19922,-0.22265625 -0.0234,-0.0117188 -0.0352,-0.0234375 -0.17578,-0.0234375 -0.12891,0 -0.21094,0 -0.21094,0.09375 0,0.0117188 0,0.0351563 0.11719,0.19921875 3.1289,4.34765623 3.82031,9.72656253 3.83203,15.79687513 0,0.128906 0.0586,0.128906 0.24609,0.128906 z m -0.50391,-0.234375 c -0.1875,0 -0.24609,0 -0.24609,0.117188 0,0.925781 -0.0117,3.058593 -0.2461,5.296875 -0.48046,4.628906 -1.67578,7.839843 -3.63281,10.59375 -0.0703,0.08203 -0.0703,0.09375 -0.0703,0.117187 0,0.09375 0.082,0.09375 0.21094,0.09375 0.14062,0 0.16406,0 0.17578,-0.02344 0.0351,-0.02344 1.18359,-1.335938 2.08594,-3.140625 1.18359,-2.367188 1.92187,-5.074219 2.26171,-8.34375 0.0234,-0.28125 0.21094,-2.144532 0.21094,-4.265625 v -0.351563 c -0.0117,-0.09375 -0.0586,-0.09375 -0.24609,-0.09375 z M 84.726498,-99.922589 c 0.199219,0 0.257813,0 0.257813,-0.128901 0.01172,-6.28125 0.738281,-11.4961 3.878906,-15.87891 0.05859,-0.082 0.05859,-0.10547 0.05859,-0.11719 0,-0.0937 -0.05859,-0.0937 -0.199219,-0.0937 -0.152344,0 -0.164062,0 -0.1875,0.0234 -0.03516,0.0234 -1.171875,1.33594 -2.074219,3.12891 -1.183593,2.36718 -1.933593,5.08593 -2.261718,8.35546 -0.02344,0.26954 -0.210938,2.13282 -0.210938,4.26563 v 0.35156 c 0,0.09375 0.05859,0.09375 0.246094,0.09375 z m -0.492187,-0.234371 c -0.1875,0 -0.246094,0 -0.246094,0.0937 v 0.351559 c 0,5.472656 0.972656,8.683594 1.253906,9.597656 0.609375,1.980469 1.605469,4.078125 3.09375,5.929688 0.140625,0.164062 0.175782,0.210937 0.210938,0.222656 0.02344,0.01172 0.02344,0.02344 0.175781,0.02344 0.140625,0 0.199219,0 0.199219,-0.09375 0,-0.02344 0,-0.03516 -0.04687,-0.117187 -2.988281,-4.136719 -3.890625,-9.128906 -3.890625,-15.890632 0,-0.11718 -0.05859,-0.11718 -0.257813,-0.11718 z m 0,0"
         style="fill:#000000;fill-opacity:1;fill-rule:nonzero;stroke:none" />
      <path
         id="path51"
         d="m 93.779233,-111.70286 c 0,-0.59766 -0.02344,-1.3711 -0.339844,-2.03906 -0.398437,-0.84375 -1.078125,-1.05469 -1.59375,-1.05469 -0.539062,0 -1.21875,0.21094 -1.617187,1.0664 -0.292969,0.6211 -0.328125,1.34766 -0.328125,2.02735 0,0.58594 0.01172,1.45312 0.398437,2.16797 0.421875,0.76172 1.125,0.90234 1.535156,0.90234 0.585938,0 1.242188,-0.25781 1.617188,-1.07812 0.269531,-0.59766 0.328125,-1.27735 0.328125,-1.99219 z m -1.933594,2.84765 c -0.269531,0 -0.914062,-0.1289 -1.089844,-1.13671 -0.09375,-0.53907 -0.09375,-1.30079 -0.09375,-1.81641 0,-0.60938 0,-1.3125 0.117188,-1.81641 0.175781,-0.79687 0.75,-0.94922 1.054687,-0.94922 0.339844,0 0.902344,0.17579 1.078125,1.00782 0.09375,0.49218 0.09375,1.19531 0.09375,1.75781 0,0.55078 0,1.3125 -0.09375,1.83984 -0.1875,1.01953 -0.84375,1.11328 -1.066406,1.11328 z m 1.933594,8.07422 c 0,-0.59765 -0.02344,-1.37109 -0.339844,-2.03906 -0.398437,-0.84375 -1.078125,-1.05469 -1.59375,-1.05469 -0.539062,0 -1.21875,0.21094 -1.617187,1.06641 -0.292969,0.62109 -0.328125,1.34766 -0.328125,2.02734 0,0.58594 0.01172,1.453128 0.398437,2.167972 0.421875,0.761718 1.125,0.902343 1.535156,0.902343 0.585938,0 1.242188,-0.257812 1.617188,-1.078125 0.269531,-0.597656 0.328125,-1.27734 0.328125,-1.99219 z m -1.933594,2.847659 c -0.269531,0 -0.914062,-0.128906 -1.089844,-1.136719 -0.09375,-0.539062 -0.09375,-1.30078 -0.09375,-1.81641 0,-0.60937 0,-1.3125 0.117188,-1.8164 0.175781,-0.79688 0.75,-0.94922 1.054687,-0.94922 0.339844,0 0.902344,0.17578 1.078125,1.00781 0.09375,0.49219 0.09375,1.19531 0.09375,1.75781 0,0.55079 0,1.312504 -0.09375,1.839848 -0.1875,1.019531 -0.84375,1.113281 -1.066406,1.113281 z m 1.933594,8.071289 c 0,-0.597656 -0.02344,-1.371094 -0.339844,-2.039062 -0.398437,-0.84375 -1.078125,-1.054688 -1.59375,-1.054688 -0.539062,0 -1.21875,0.210938 -1.617187,1.066406 -0.292969,0.621094 -0.328125,1.347657 -0.328125,2.027344 0,0.585938 0.01172,1.453125 0.398437,2.167969 0.421875,0.761719 1.125,0.902344 1.535156,0.902344 0.585938,0 1.242188,-0.257813 1.617188,-1.078125 0.269531,-0.597657 0.328125,-1.277344 0.328125,-1.992188 z m -1.933594,2.847656 c -0.269531,0 -0.914062,-0.128906 -1.089844,-1.136718 -0.09375,-0.539063 -0.09375,-1.300782 -0.09375,-1.816407 0,-0.609375 0,-1.3125 0.117188,-1.816406 0.175781,-0.796875 0.75,-0.949219 1.054687,-0.949219 0.339844,0 0.902344,0.175782 1.078125,1.007813 0.09375,0.492187 0.09375,1.195312 0.09375,1.757812 0,0.550782 0,1.3125 -0.09375,1.839844 -0.1875,1.019531 -0.84375,1.113281 -1.066406,1.113281 z m 0,0"
         style="fill:#000000;fill-opacity:1;fill-rule:nonzero;stroke:none" />
      <path
         id="path52"
         d="m 99.076108,-99.922589 c 0.1875,0 0.234375,0 0.246094,-0.09375 v -0.35156 c 0,-5.48438 -0.972657,-8.68359 -1.253907,-9.59766 -0.609375,-1.99218 -1.605468,-4.08984 -3.105468,-5.92968 -0.128907,-0.16407 -0.164063,-0.21094 -0.199219,-0.22266 -0.02344,-0.0117 -0.03516,-0.0234 -0.175781,-0.0234 -0.128907,0 -0.210938,0 -0.210938,0.0937 0,0.0117 0,0.0352 0.117188,0.19922 3.128906,4.34766 3.820312,9.72656 3.832031,15.79688 0,0.128911 0.05859,0.128911 0.246094,0.128911 z m -0.503906,-0.231441 c -0.1875,0 -0.246094,0 -0.246094,0.11718 0,0.925785 -0.01172,3.058597 -0.246094,5.296879 -0.480469,4.628906 -1.675781,7.839843 -3.632812,10.59375 -0.07031,0.08203 -0.07031,0.09375 -0.07031,0.117187 0,0.09375 0.08203,0.09375 0.210938,0.09375 0.140625,0 0.164062,0 0.175781,-0.02344 0.03516,-0.02344 1.183594,-1.335938 2.085937,-3.140625 1.183594,-2.367188 1.921875,-5.074219 2.261719,-8.34375 0.02344,-0.28125 0.210938,-2.144532 0.210938,-4.265625 v -0.351556 c -0.01172,-0.0937 -0.05859,-0.0937 -0.246094,-0.0937 z m -84.445313,58.55859 c 0.199219,0 0.257813,0 0.257813,-0.128906 0.01172,-6.28125 0.738281,-11.496094 3.878906,-15.878907 0.05859,-0.08203 0.05859,-0.105468 0.05859,-0.117187 0,-0.09375 -0.05859,-0.09375 -0.199219,-0.09375 -0.152344,0 -0.164063,0 -0.1875,0.02344 -0.03516,0.02344 -1.171875,1.335938 -2.074219,3.128907 -1.183594,2.367187 -1.933594,5.085937 -2.261719,8.355468 -0.02344,0.269532 -0.210937,2.132813 -0.210937,4.265625 v 0.351563 c 0,0.09375 0.05859,0.09375 0.246094,0.09375 z m -0.492187,-0.231446 c -0.1875,0 -0.246094,0 -0.246094,0.09375 v 0.351563 c 0,5.472656 0.972656,8.683594 1.253906,9.597656 0.609375,1.980469 1.605469,4.078125 3.09375,5.929688 0.140625,0.164062 0.175781,0.210937 0.210938,0.222656 0.02344,0.01172 0.02344,0.02344 0.175781,0.02344 0.140625,0 0.199219,0 0.199219,-0.09375 0,-0.02344 0,-0.03516 -0.04687,-0.117187 -2.988282,-4.136719 -3.890625,-9.128906 -3.890625,-15.890625 0,-0.117188 -0.05859,-0.117188 -0.257813,-0.117188 z m 0,0"
         style="fill:#000000;fill-opacity:1;fill-rule:nonzero;stroke:none" />
      <path
         id="path53"
         d="m 23.610287,-52.93919 c -0.621093,-0.75 -0.667968,-0.808594 -0.972656,-1.03125 -0.527344,-0.375 -1.019531,-0.492188 -1.417969,-0.492188 -1.042968,0 -1.769531,0.960938 -1.769531,2.039063 0,1.03125 0.691406,2.015625 1.746094,2.015625 0.960937,0 1.734375,-0.679688 2.261719,-1.523438 0.632812,0.761719 0.679687,0.808594 0.984375,1.03125 0.527343,0.375 1.019531,0.492188 1.417968,0.492188 1.042969,0 1.769532,-0.960938 1.769532,-2.027344 0,-1.042969 -0.691407,-2.027344 -1.746094,-2.027344 -0.972656,0 -1.746094,0.679688 -2.273438,1.523438 z m 2.390625,2.074219 c -0.386718,0 -0.785156,-0.152344 -1.277343,-0.703125 -0.234375,-0.257813 -0.84375,-1.03125 -0.84375,-1.054688 0,-0.04687 0.363281,-0.609375 0.714843,-0.949219 0.363282,-0.328125 0.796875,-0.574218 1.347657,-0.574218 0.960937,0 1.464843,0.914062 1.464843,1.710937 0,0.84375 -0.609375,1.570313 -1.40625,1.570313 z m -4.875,0.152343 c -0.949218,0 -1.453125,-0.925781 -1.453125,-1.710937 0,-0.855469 0.609375,-1.582031 1.40625,-1.582031 0.386719,0 0.773438,0.152343 1.265625,0.703125 0.246094,0.269531 0.855469,1.03125 0.855469,1.066406 0,0.03516 -0.363281,0.609375 -0.714844,0.9375 -0.363281,0.328125 -0.796875,0.585937 -1.359375,0.585937 z m 0,0"
         style="fill:#000000;fill-opacity:1;fill-rule:nonzero;stroke:none" />
      <path
         id="path54"
         d="m 37.455991,-53.372784 c 0,-0.597656 -0.02344,-1.371094 -0.339844,-2.039062 -0.398438,-0.84375 -1.078125,-1.054688 -1.59375,-1.054688 -0.539063,0 -1.21875,0.210938 -1.617188,1.066406 -0.292968,0.621094 -0.328125,1.347657 -0.328125,2.027344 0,0.585938 0.01172,1.453125 0.398438,2.167969 0.421875,0.761719 1.125,0.902344 1.535156,0.902344 0.585938,0 1.242188,-0.257813 1.617188,-1.078125 0.269531,-0.597657 0.328125,-1.277344 0.328125,-1.992188 z m -1.933594,2.847656 c -0.269531,0 -0.914063,-0.128906 -1.089844,-1.136718 -0.09375,-0.539063 -0.09375,-1.300782 -0.09375,-1.816407 0,-0.609375 0,-1.3125 0.117188,-1.816406 0.175781,-0.796875 0.75,-0.949219 1.054687,-0.949219 0.339844,0 0.902344,0.175782 1.078125,1.007813 0.09375,0.492187 0.09375,1.195312 0.09375,1.757812 0,0.550782 0,1.3125 -0.09375,1.839844 -0.1875,1.019531 -0.84375,1.113281 -1.066406,1.113281 z m 13.936523,-2.847656 c 0,-0.597656 -0.02344,-1.371094 -0.339843,-2.039062 -0.398438,-0.84375 -1.078125,-1.054688 -1.59375,-1.054688 -0.539063,0 -1.21875,0.210938 -1.617188,1.066406 -0.292969,0.621094 -0.328125,1.347657 -0.328125,2.027344 0,0.585938 0.01172,1.453125 0.398438,2.167969 0.421875,0.761719 1.125,0.902344 1.535156,0.902344 0.585937,0 1.242187,-0.257813 1.617187,-1.078125 0.269532,-0.597657 0.328125,-1.277344 0.328125,-1.992188 z m -1.933593,2.847656 c -0.269532,0 -0.914063,-0.128906 -1.089844,-1.136718 -0.09375,-0.539063 -0.09375,-1.300782 -0.09375,-1.816407 0,-0.609375 0,-1.3125 0.117187,-1.816406 0.175782,-0.796875 0.75,-0.949219 1.054688,-0.949219 0.339844,0 0.902344,0.175782 1.078125,1.007813 0.09375,0.492187 0.09375,1.195312 0.09375,1.757812 0,0.550782 0,1.3125 -0.09375,1.839844 -0.1875,1.019531 -0.84375,1.113281 -1.066406,1.113281 z m -22.066407,8.074219 c 0,-0.597656 -0.02344,-1.371094 -0.339843,-2.039062 -0.398438,-0.84375 -1.078125,-1.054688 -1.59375,-1.054688 -0.539063,0 -1.21875,0.210938 -1.617188,1.066406 -0.292969,0.621094 -0.328125,1.347657 -0.328125,2.027344 0,0.585938 0.01172,1.453125 0.398438,2.167969 0.421875,0.761719 1.125,0.902344 1.535156,0.902344 0.585937,0 1.242187,-0.257813 1.617187,-1.078125 0.269532,-0.597657 0.328125,-1.277344 0.328125,-1.992188 z m -1.933593,2.847656 c -0.269532,0 -0.914063,-0.128906 -1.089844,-1.136718 -0.09375,-0.539063 -0.09375,-1.300782 -0.09375,-1.816407 0,-0.609375 0,-1.3125 0.117187,-1.816406 0.175782,-0.796875 0.75,-0.949219 1.054688,-0.949219 0.339844,0 0.902344,0.175782 1.078125,1.007813 0.09375,0.492187 0.09375,1.195312 0.09375,1.757812 0,0.550782 0,1.3125 -0.09375,1.839844 -0.1875,1.019531 -0.84375,1.113281 -1.066406,1.113281 z m 0,0"
         style="fill:#000000;fill-opacity:1;fill-rule:nonzero;stroke:none" />
      <path
         id="path55"
         d="m 35.610287,-42.017315 c -0.621093,-0.75 -0.667968,-0.808594 -0.972656,-1.03125 -0.527344,-0.375 -1.019531,-0.492188 -1.417969,-0.492188 -1.042968,0 -1.769531,0.960938 -1.769531,2.039063 0,1.03125 0.691406,2.015625 1.746094,2.015625 0.960937,0 1.734375,-0.679688 2.261719,-1.523438 0.632812,0.761719 0.679687,0.808594 0.984375,1.03125 0.527343,0.375 1.019531,0.492188 1.417968,0.492188 1.042969,0 1.769532,-0.960938 1.769532,-2.027344 0,-1.042969 -0.691407,-2.027344 -1.746094,-2.027344 -0.972656,0 -1.746094,0.679688 -2.273438,1.523438 z m 2.390625,2.074219 c -0.386718,0 -0.785156,-0.152344 -1.277343,-0.703125 -0.234375,-0.257813 -0.84375,-1.03125 -0.84375,-1.054688 0,-0.04687 0.363281,-0.609375 0.714843,-0.949219 0.363282,-0.328125 0.796875,-0.574218 1.347657,-0.574218 0.960937,0 1.464843,0.914062 1.464843,1.710937 0,0.84375 -0.609375,1.570313 -1.40625,1.570313 z m -4.875,0.152343 c -0.949218,0 -1.453125,-0.925781 -1.453125,-1.710937 0,-0.855469 0.609375,-1.582031 1.40625,-1.582031 0.386719,0 0.773438,0.152343 1.265625,0.703125 0.246094,0.269531 0.855469,1.03125 0.855469,1.066406 0,0.03516 -0.363281,0.609375 -0.714844,0.9375 -0.363281,0.328125 -0.796875,0.585937 -1.359375,0.585937 z m 0,0"
         style="fill:#000000;fill-opacity:1;fill-rule:nonzero;stroke:none" />
      <path
         id="path56"
         d="m 49.455991,-42.450909 c 0,-0.597656 -0.02344,-1.371094 -0.339844,-2.039062 -0.398438,-0.84375 -1.078125,-1.054688 -1.59375,-1.054688 -0.539063,0 -1.21875,0.210938 -1.617188,1.066406 -0.292968,0.621094 -0.328125,1.347657 -0.328125,2.027344 0,0.585938 0.01172,1.453125 0.398438,2.167969 0.421875,0.761719 1.125,0.902344 1.535156,0.902344 0.585938,0 1.242188,-0.257813 1.617188,-1.078125 0.269531,-0.597657 0.328125,-1.277344 0.328125,-1.992188 z m -1.933594,2.847656 c -0.269531,0 -0.914063,-0.128906 -1.089844,-1.136718 -0.09375,-0.539063 -0.09375,-1.300782 -0.09375,-1.816407 0,-0.609375 0,-1.3125 0.117188,-1.816406 0.175781,-0.796875 0.75,-0.949219 1.054687,-0.949219 0.339844,0 0.902344,0.175782 1.078125,1.007813 0.09375,0.492187 0.09375,1.195312 0.09375,1.757812 0,0.550782 0,1.3125 -0.09375,1.839844 -0.1875,1.019531 -0.84375,1.113281 -1.066406,1.113281 z m -22.063477,8.071289 c 0,-0.597656 -0.02344,-1.371093 -0.339843,-2.039062 -0.398438,-0.84375 -1.078125,-1.054688 -1.59375,-1.054688 -0.539063,0 -1.21875,0.210938 -1.617188,1.066407 -0.292969,0.621093 -0.328125,1.347656 -0.328125,2.027343 0,0.585938 0.01172,1.453125 0.398438,2.167969 0.421875,0.761719 1.125,0.902344 1.535156,0.902344 0.585937,0 1.242187,-0.257813 1.617187,-1.078125 0.269532,-0.597656 0.328125,-1.277344 0.328125,-1.992188 z m -1.933593,2.847657 c -0.269532,0 -0.914063,-0.128907 -1.089844,-1.136719 -0.09375,-0.539063 -0.09375,-1.300781 -0.09375,-1.816406 0,-0.609375 0,-1.3125 0.117187,-1.816407 0.175782,-0.796875 0.75,-0.949218 1.054688,-0.949218 0.339844,0 0.902344,0.175781 1.078125,1.007812 0.09375,0.492188 0.09375,1.195313 0.09375,1.757813 0,0.550781 0,1.3125 -0.09375,1.839843 -0.1875,1.019532 -0.84375,1.113282 -1.066406,1.113282 z m 13.933593,-2.847657 c 0,-0.597656 -0.02344,-1.371093 -0.339843,-2.039062 -0.398438,-0.84375 -1.078125,-1.054688 -1.59375,-1.054688 -0.539063,0 -1.21875,0.210938 -1.617188,1.066407 -0.292969,0.621093 -0.328125,1.347656 -0.328125,2.027343 0,0.585938 0.01172,1.453125 0.398438,2.167969 0.421875,0.761719 1.125,0.902344 1.535156,0.902344 0.585937,0 1.242187,-0.257813 1.617187,-1.078125 0.269532,-0.597656 0.328125,-1.277344 0.328125,-1.992188 z m -1.933593,2.847657 c -0.269532,0 -0.914063,-0.128907 -1.089844,-1.136719 -0.09375,-0.539063 -0.09375,-1.300781 -0.09375,-1.816406 0,-0.609375 0,-1.3125 0.117187,-1.816407 0.175782,-0.796875 0.75,-0.949218 1.054688,-0.949218 0.339844,0 0.902344,0.175781 1.078125,1.007812 0.09375,0.492188 0.09375,1.195313 0.09375,1.757813 0,0.550781 0,1.3125 -0.09375,1.839843 -0.1875,1.019532 -0.84375,1.113282 -1.066406,1.113282 z m 0,0"
         style="fill:#000000;fill-opacity:1;fill-rule:nonzero;stroke:none" />
      <path
         id="path57"
         d="m 47.610287,-31.09837 c -0.621093,-0.75 -0.667968,-0.808594 -0.972656,-1.03125 -0.527344,-0.375 -1.019531,-0.492187 -1.417969,-0.492187 -1.042968,0 -1.769531,0.960937 -1.769531,2.039062 0,1.03125 0.691406,2.015625 1.746094,2.015625 0.960937,0 1.734375,-0.679687 2.261719,-1.523437 0.632812,0.761718 0.679687,0.808593 0.984375,1.03125 0.527343,0.375 1.019531,0.492187 1.417968,0.492187 1.042969,0 1.769532,-0.960937 1.769532,-2.027344 0,-1.042968 -0.691407,-2.027343 -1.746094,-2.027343 -0.972656,0 -1.746094,0.679687 -2.273438,1.523437 z m 2.390625,2.074219 c -0.386718,0 -0.785156,-0.152344 -1.277343,-0.703125 -0.234375,-0.257813 -0.84375,-1.03125 -0.84375,-1.054688 0,-0.04687 0.363281,-0.609375 0.714843,-0.949218 0.363282,-0.328125 0.796875,-0.574219 1.347657,-0.574219 0.960937,0 1.464843,0.914062 1.464843,1.710937 0,0.84375 -0.609375,1.570313 -1.40625,1.570313 z m -4.875,0.152344 c -0.949218,0 -1.453125,-0.925782 -1.453125,-1.710938 0,-0.855469 0.609375,-1.582031 1.40625,-1.582031 0.386719,0 0.773438,0.152344 1.265625,0.703125 0.246094,0.269531 0.855469,1.03125 0.855469,1.066406 0,0.03516 -0.363281,0.609375 -0.714844,0.9375 -0.363281,0.328125 -0.796875,0.585938 -1.359375,0.585938 z m 0,0"
         style="fill:#000000;fill-opacity:1;fill-rule:nonzero;stroke:none" />
      <path
         id="path58"
         d="m 57.038022,-41.592511 c 0.1875,0 0.234375,0 0.246094,-0.09375 v -0.351562 c 0,-5.484375 -0.972657,-8.683594 -1.253907,-9.597656 -0.609375,-1.992188 -1.605468,-4.089844 -3.105468,-5.929688 -0.128907,-0.164062 -0.164063,-0.210937 -0.199219,-0.222656 -0.02344,-0.01172 -0.03516,-0.02344 -0.175781,-0.02344 -0.128907,0 -0.210938,0 -0.210938,0.09375 0,0.01172 0,0.03516 0.117188,0.199219 3.128906,4.347656 3.820312,9.726563 3.832031,15.796875 0,0.128906 0.05859,0.128906 0.246094,0.128906 z m -0.503906,-0.231445 c -0.1875,0 -0.246094,0 -0.246094,0.117188 0,0.925781 -0.01172,3.058593 -0.246094,5.296875 -0.480469,4.628906 -1.675781,7.839843 -3.632812,10.59375 -0.07031,0.08203 -0.07031,0.09375 -0.07031,0.117187 0,0.09375 0.08203,0.09375 0.210938,0.09375 0.140625,0 0.164062,0 0.175781,-0.02344 0.03516,-0.02344 1.183594,-1.335938 2.085937,-3.140625 1.183594,-2.367188 1.921875,-5.074219 2.261719,-8.34375 0.02344,-0.28125 0.210938,-2.144532 0.210938,-4.265625 v -0.351563 c -0.01172,-0.09375 -0.05859,-0.09375 -0.246094,-0.09375 z m 70.180664,0.231445 c 0.19922,0 0.25781,0 0.25781,-0.128906 0.0117,-6.28125 0.73828,-11.496094 3.87891,-15.878906 0.0586,-0.08203 0.0586,-0.105469 0.0586,-0.117188 0,-0.09375 -0.0586,-0.09375 -0.19922,-0.09375 -0.15234,0 -0.16406,0 -0.1875,0.02344 -0.0351,0.02344 -1.17187,1.335937 -2.07422,3.128906 -1.18359,2.367188 -1.93359,5.085938 -2.26171,8.355469 -0.0234,0.269531 -0.21094,2.132812 -0.21094,4.265625 v 0.351562 c 0,0.09375 0.0586,0.09375 0.24609,0.09375 z m -0.49219,-0.231445 c -0.1875,0 -0.24609,0 -0.24609,0.09375 v 0.351563 c 0,5.472656 0.97265,8.683593 1.2539,9.597656 0.60938,1.980469 1.60547,4.078125 3.09375,5.929687 0.14063,0.164063 0.17579,0.210938 0.21094,0.222657 0.0234,0.01172 0.0234,0.02344 0.17578,0.02344 0.14063,0 0.19922,0 0.19922,-0.09375 0,-0.02344 0,-0.03516 -0.0469,-0.117187 -2.98828,-4.136719 -3.89063,-9.128907 -3.89063,-15.890625 0,-0.117188 -0.0586,-0.117188 -0.25781,-0.117188 z m 0,0"
         style="fill:#000000;fill-opacity:1;fill-rule:nonzero;stroke:none" />
      <path
         id="path59"
         d="m 136.19818,-52.936261 c -0.6211,-0.75 -0.66797,-0.808593 -0.97266,-1.03125 -0.52734,-0.375 -1.01953,-0.492187 -1.41797,-0.492187 -1.04297,0 -1.76953,0.960937 -1.76953,2.039062 0,1.03125 0.69141,2.015625 1.7461,2.015625 0.96093,0 1.73437,-0.679687 2.26171,-1.523437 0.63282,0.761719 0.67969,0.808594 0.98438,1.03125 0.52734,0.375 1.01953,0.492187 1.41797,0.492187 1.04297,0 1.76953,-0.960937 1.76953,-2.027343 0,-1.042969 -0.69141,-2.027344 -1.74609,-2.027344 -0.97266,0 -1.7461,0.679687 -2.27344,1.523437 z m 2.39062,2.074219 c -0.38672,0 -0.78515,-0.152344 -1.27734,-0.703125 -0.23438,-0.257812 -0.84375,-1.03125 -0.84375,-1.054687 0,-0.04687 0.36328,-0.609375 0.71484,-0.949219 0.36328,-0.328125 0.79688,-0.574219 1.34766,-0.574219 0.96094,0 1.46484,0.914063 1.46484,1.710938 0,0.84375 -0.60937,1.570312 -1.40625,1.570312 z m -4.875,0.152344 c -0.94922,0 -1.45312,-0.925781 -1.45312,-1.710938 0,-0.855468 0.60937,-1.582031 1.40625,-1.582031 0.38672,0 0.77344,0.152344 1.26562,0.703125 0.2461,0.269531 0.85547,1.03125 0.85547,1.066406 0,0.03516 -0.36328,0.609375 -0.71484,0.9375 -0.36328,0.328125 -0.79688,0.585938 -1.35938,0.585938 z m 0,0"
         style="fill:#000000;fill-opacity:1;fill-rule:nonzero;stroke:none" />
      <path
         id="path60"
         d="m 150.04681,-53.369854 c 0,-0.597657 -0.0234,-1.371094 -0.33984,-2.039063 -0.39844,-0.84375 -1.07813,-1.054687 -1.59375,-1.054687 -0.53907,0 -1.21875,0.210937 -1.61719,1.066406 -0.29297,0.621094 -0.32813,1.347656 -0.32813,2.027344 0,0.585937 0.0117,1.453125 0.39844,2.167968 0.42188,0.761719 1.125,0.902344 1.53516,0.902344 0.58594,0 1.24219,-0.257812 1.61719,-1.078125 0.26953,-0.597656 0.32812,-1.277344 0.32812,-1.992187 z m -1.93359,2.847656 c -0.26953,0 -0.91407,-0.128906 -1.08985,-1.136719 -0.0937,-0.539062 -0.0937,-1.300781 -0.0937,-1.816406 0,-0.609375 0,-1.3125 0.11719,-1.816406 0.17578,-0.796875 0.75,-0.949219 1.05469,-0.949219 0.33984,0 0.90234,0.175781 1.07812,1.007812 0.0937,0.492188 0.0937,1.195313 0.0937,1.757813 0,0.550781 0,1.3125 -0.0937,1.839844 -0.1875,1.019531 -0.84375,1.113281 -1.0664,1.113281 z m 13.93359,-2.847656 c 0,-0.597657 -0.0234,-1.371094 -0.33984,-2.039063 -0.39844,-0.84375 -1.07813,-1.054687 -1.59375,-1.054687 -0.53907,0 -1.21875,0.210937 -1.61719,1.066406 -0.29297,0.621094 -0.32813,1.347656 -0.32813,2.027344 0,0.585937 0.0117,1.453125 0.39844,2.167968 0.42188,0.761719 1.125,0.902344 1.53516,0.902344 0.58594,0 1.24219,-0.257812 1.61719,-1.078125 0.26953,-0.597656 0.32812,-1.277344 0.32812,-1.992187 z m -1.93359,2.847656 c -0.26953,0 -0.91407,-0.128906 -1.08985,-1.136719 -0.0937,-0.539062 -0.0937,-1.300781 -0.0937,-1.816406 0,-0.609375 0,-1.3125 0.11719,-1.816406 0.17578,-0.796875 0.75,-0.949219 1.05469,-0.949219 0.33984,0 0.90234,0.175781 1.07812,1.007812 0.0937,0.492188 0.0937,1.195313 0.0937,1.757813 0,0.550781 0,1.3125 -0.0937,1.839844 -0.1875,1.019531 -0.84375,1.113281 -1.0664,1.113281 z m -22.06641,8.071289 c 0,-0.597656 -0.0234,-1.371094 -0.33984,-2.039062 -0.39844,-0.84375 -1.07813,-1.054688 -1.59375,-1.054688 -0.53907,0 -1.21875,0.210938 -1.61719,1.066406 -0.29297,0.621094 -0.32813,1.347657 -0.32813,2.027344 0,0.585938 0.0117,1.453125 0.39844,2.167969 0.42188,0.761719 1.125,0.902344 1.53516,0.902344 0.58594,0 1.24219,-0.257813 1.61719,-1.078125 0.26953,-0.597657 0.32812,-1.277344 0.32812,-1.992188 z m -1.93359,2.847656 c -0.26953,0 -0.91407,-0.128906 -1.08985,-1.136718 -0.0937,-0.539063 -0.0937,-1.300782 -0.0937,-1.816407 0,-0.609375 0,-1.3125 0.11719,-1.816406 0.17578,-0.796875 0.75,-0.949219 1.05469,-0.949219 0.33984,0 0.90234,0.175782 1.07812,1.007813 0.0937,0.492187 0.0937,1.195312 0.0937,1.757812 0,0.550782 0,1.3125 -0.0937,1.839844 -0.1875,1.019531 -0.84375,1.113281 -1.0664,1.113281 z m 0,0"
         style="fill:#000000;fill-opacity:1;fill-rule:nonzero;stroke:none" />
      <path
         id="path61"
         d="m 148.19818,-42.017315 c -0.6211,-0.75 -0.66797,-0.808594 -0.97266,-1.03125 -0.52734,-0.375 -1.01953,-0.492188 -1.41797,-0.492188 -1.04297,0 -1.76953,0.960938 -1.76953,2.039063 0,1.03125 0.69141,2.015625 1.7461,2.015625 0.96093,0 1.73437,-0.679688 2.26171,-1.523438 0.63282,0.761719 0.67969,0.808594 0.98438,1.03125 0.52734,0.375 1.01953,0.492188 1.41797,0.492188 1.04297,0 1.76953,-0.960938 1.76953,-2.027344 0,-1.042969 -0.69141,-2.027344 -1.74609,-2.027344 -0.97266,0 -1.7461,0.679688 -2.27344,1.523438 z m 2.39062,2.074219 c -0.38672,0 -0.78515,-0.152344 -1.27734,-0.703125 -0.23438,-0.257813 -0.84375,-1.03125 -0.84375,-1.054688 0,-0.04687 0.36328,-0.609375 0.71484,-0.949219 0.36328,-0.328125 0.79688,-0.574218 1.34766,-0.574218 0.96094,0 1.46484,0.914062 1.46484,1.710937 0,0.84375 -0.60937,1.570313 -1.40625,1.570313 z m -4.875,0.152343 c -0.94922,0 -1.45312,-0.925781 -1.45312,-1.710937 0,-0.855469 0.60937,-1.582031 1.40625,-1.582031 0.38672,0 0.77344,0.152343 1.26562,0.703125 0.2461,0.269531 0.85547,1.03125 0.85547,1.066406 0,0.03516 -0.36328,0.609375 -0.71484,0.9375 -0.36328,0.328125 -0.79688,0.585937 -1.35938,0.585937 z m 0,0"
         style="fill:#000000;fill-opacity:1;fill-rule:nonzero;stroke:none" />
      <path
         id="path62"
         d="m 162.04681,-42.450909 c 0,-0.597656 -0.0234,-1.371094 -0.33984,-2.039062 -0.39844,-0.84375 -1.07813,-1.054688 -1.59375,-1.054688 -0.53907,0 -1.21875,0.210938 -1.61719,1.066406 -0.29297,0.621094 -0.32813,1.347657 -0.32813,2.027344 0,0.585938 0.0117,1.453125 0.39844,2.167969 0.42188,0.761719 1.125,0.902344 1.53516,0.902344 0.58594,0 1.24219,-0.257813 1.61719,-1.078125 0.26953,-0.597657 0.32812,-1.277344 0.32812,-1.992188 z m -1.93359,2.847656 c -0.26953,0 -0.91407,-0.128906 -1.08985,-1.136718 -0.0937,-0.539063 -0.0937,-1.300782 -0.0937,-1.816407 0,-0.609375 0,-1.3125 0.11719,-1.816406 0.17578,-0.796875 0.75,-0.949219 1.05469,-0.949219 0.33984,0 0.90234,0.175782 1.07812,1.007813 0.0937,0.492187 0.0937,1.195312 0.0937,1.757812 0,0.550782 0,1.3125 -0.0937,1.839844 -0.1875,1.019531 -0.84375,1.113281 -1.0664,1.113281 z m -22.06641,8.074219 c 0,-0.597656 -0.0234,-1.371094 -0.33984,-2.039062 -0.39844,-0.84375 -1.07813,-1.054688 -1.59375,-1.054688 -0.53907,0 -1.21875,0.210938 -1.61719,1.066406 -0.29297,0.621094 -0.32813,1.347657 -0.32813,2.027344 0,0.585938 0.0117,1.453125 0.39844,2.167969 0.42188,0.761719 1.125,0.902344 1.53516,0.902344 0.58594,0 1.24219,-0.257813 1.61719,-1.078125 0.26953,-0.597657 0.32812,-1.277344 0.32812,-1.992188 z m -1.93359,2.847656 c -0.26953,0 -0.91407,-0.128906 -1.08985,-1.136718 -0.0937,-0.539063 -0.0937,-1.300782 -0.0937,-1.816407 0,-0.609375 0,-1.3125 0.11719,-1.816406 0.17578,-0.796875 0.75,-0.949219 1.05469,-0.949219 0.33984,0 0.90234,0.175782 1.07812,1.007813 0.0937,0.492187 0.0937,1.195312 0.0937,1.757812 0,0.550782 0,1.3125 -0.0937,1.839844 -0.1875,1.019531 -0.84375,1.113281 -1.0664,1.113281 z m 13.93359,-2.847656 c 0,-0.597656 -0.0234,-1.371094 -0.33984,-2.039062 -0.39844,-0.84375 -1.07813,-1.054688 -1.59375,-1.054688 -0.53907,0 -1.21875,0.210938 -1.61719,1.066406 -0.29297,0.621094 -0.32813,1.347657 -0.32813,2.027344 0,0.585938 0.0117,1.453125 0.39844,2.167969 0.42188,0.761719 1.125,0.902344 1.53516,0.902344 0.58594,0 1.24219,-0.257813 1.61719,-1.078125 0.26953,-0.597657 0.32812,-1.277344 0.32812,-1.992188 z m -1.93359,2.847656 c -0.26953,0 -0.91407,-0.128906 -1.08985,-1.136718 -0.0937,-0.539063 -0.0937,-1.300782 -0.0937,-1.816407 0,-0.609375 0,-1.3125 0.11719,-1.816406 0.17578,-0.796875 0.75,-0.949219 1.05469,-0.949219 0.33984,0 0.90234,0.175782 1.07812,1.007813 0.0937,0.492187 0.0937,1.195312 0.0937,1.757812 0,0.550782 0,1.3125 -0.0937,1.839844 -0.1875,1.019531 -0.84375,1.113281 -1.0664,1.113281 z m 0,0"
         style="fill:#000000;fill-opacity:1;fill-rule:nonzero;stroke:none" />
      <path
         id="path63"
         d="m 160.20111,-31.09544 c -0.6211,-0.75 -0.66797,-0.808594 -0.97266,-1.03125 -0.52734,-0.375 -1.01953,-0.492188 -1.41797,-0.492188 -1.04297,0 -1.76953,0.960938 -1.76953,2.039063 0,1.03125 0.69141,2.015625 1.7461,2.015625 0.96093,0 1.73437,-0.679688 2.26171,-1.523438 0.63282,0.761719 0.67969,0.808594 0.98438,1.03125 0.52734,0.375 1.01953,0.492188 1.41797,0.492188 1.04297,0 1.76953,-0.960938 1.76953,-2.027344 0,-1.042969 -0.69141,-2.027344 -1.74609,-2.027344 -0.97266,0 -1.7461,0.679688 -2.27344,1.523438 z m 2.39062,2.074219 c -0.38672,0 -0.78515,-0.152344 -1.27734,-0.703125 -0.23438,-0.257813 -0.84375,-1.03125 -0.84375,-1.054688 0,-0.04687 0.36328,-0.609375 0.71484,-0.949219 0.36328,-0.328125 0.79688,-0.574218 1.34766,-0.574218 0.96094,0 1.46484,0.914062 1.46484,1.710937 0,0.84375 -0.60937,1.570313 -1.40625,1.570313 z m -4.875,0.152343 c -0.94922,0 -1.45312,-0.925781 -1.45312,-1.710937 0,-0.855469 0.60937,-1.582031 1.40625,-1.582031 0.38672,0 0.77344,0.152343 1.26562,0.703125 0.2461,0.269531 0.85547,1.03125 0.85547,1.066406 0,0.03516 -0.36328,0.609375 -0.71484,0.9375 -0.36328,0.328125 -0.79688,0.585937 -1.35938,0.585937 z m 0,0"
         style="fill:#000000;fill-opacity:1;fill-rule:nonzero;stroke:none" />
      <path
         id="path64"
         d="m 169.62591,-41.592511 c 0.1875,0 0.23438,0 0.2461,-0.09375 v -0.351562 c 0,-5.484375 -0.97266,-8.683594 -1.25391,-9.597656 -0.60938,-1.992188 -1.60547,-4.089844 -3.10547,-5.929688 -0.12891,-0.164062 -0.16406,-0.210937 -0.19922,-0.222656 -0.0234,-0.01172 -0.0352,-0.02344 -0.17578,-0.02344 -0.12891,0 -0.21094,0 -0.21094,0.09375 0,0.01172 0,0.03516 0.11719,0.199219 3.12891,4.347656 3.82031,9.726563 3.83203,15.796875 0,0.128906 0.0586,0.128906 0.2461,0.128906 z m -0.5039,-0.231445 c -0.1875,0 -0.2461,0 -0.2461,0.117188 0,0.925781 -0.0117,3.058593 -0.24609,5.296875 -0.48047,4.628906 -1.67578,7.839843 -3.63281,10.59375 -0.0703,0.08203 -0.0703,0.09375 -0.0703,0.117187 0,0.09375 0.082,0.09375 0.21094,0.09375 0.14063,0 0.16406,0 0.17578,-0.02344 0.0352,-0.02344 1.1836,-1.335938 2.08594,-3.140625 1.18359,-2.367188 1.92187,-5.074219 2.26172,-8.34375 0.0234,-0.28125 0.21094,-2.144532 0.21094,-4.265625 v -0.351563 c -0.0117,-0.09375 -0.0586,-0.09375 -0.2461,-0.09375 z M 70.423764,35.581318 c 0.199219,0 0.257813,0 0.257813,-0.128907 0.01172,-6.28125 0.738281,-11.496093 3.878906,-15.878906 0.05859,-0.08203 0.05859,-0.105469 0.05859,-0.117187 0,-0.09375 -0.05859,-0.09375 -0.199219,-0.09375 -0.152344,0 -0.164063,0 -0.1875,0.02344 -0.03516,0.02344 -1.171875,1.335938 -2.074219,3.128906 -1.183594,2.367188 -1.933594,5.085938 -2.261719,8.355469 -0.02344,0.269531 -0.210937,2.132813 -0.210937,4.265625 v 0.351563 c 0,0.09375 0.05859,0.09375 0.246094,0.09375 z m -0.492187,-0.231446 c -0.1875,0 -0.246094,0 -0.246094,0.09375 v 0.351563 c 0,5.472656 0.972656,8.683594 1.253906,9.597656 0.609375,1.980469 1.605469,4.078125 3.09375,5.929688 0.140625,0.164062 0.175781,0.210937 0.210938,0.222656 0.02344,0.01172 0.02344,0.02344 0.175781,0.02344 0.140625,0 0.199219,0 0.199219,-0.09375 0,-0.02344 0,-0.03516 -0.04687,-0.117187 -2.988282,-4.136719 -3.890625,-9.128906 -3.890625,-15.890625 0,-0.117188 -0.05859,-0.117188 -0.257813,-0.117188 z m 0,0"
         style="fill:#000000;fill-opacity:1;fill-rule:nonzero;stroke:none" />
      <path
         id="path65"
         d="m 79.907162,24.237568 c -0.621093,-0.75 -0.667968,-0.808594 -0.972656,-1.03125 -0.527344,-0.375 -1.019531,-0.492188 -1.417969,-0.492188 -1.042968,0 -1.769531,0.960938 -1.769531,2.039063 0,1.03125 0.691406,2.015625 1.746094,2.015625 0.960937,0 1.734375,-0.679688 2.261719,-1.523438 0.632812,0.761719 0.679687,0.808594 0.984375,1.03125 0.527343,0.375 1.019531,0.492188 1.417968,0.492188 1.042969,0 1.769532,-0.960938 1.769532,-2.027344 0,-1.042969 -0.691407,-2.027344 -1.746094,-2.027344 -0.972656,0 -1.746094,0.679688 -2.273438,1.523438 z m 2.390625,2.074218 c -0.386718,0 -0.785156,-0.152343 -1.277343,-0.703125 -0.234375,-0.257812 -0.84375,-1.03125 -0.84375,-1.054687 0,-0.04687 0.363281,-0.609375 0.714843,-0.949219 0.363282,-0.328125 0.796875,-0.574219 1.347657,-0.574219 0.960937,0 1.464843,0.914063 1.464843,1.710938 0,0.84375 -0.609375,1.570312 -1.40625,1.570312 z m -4.875,0.152344 c -0.949218,0 -1.453125,-0.925781 -1.453125,-1.710937 0,-0.855469 0.609375,-1.582032 1.40625,-1.582032 0.386719,0 0.773438,0.152344 1.265625,0.703125 0.246094,0.269532 0.855469,1.03125 0.855469,1.066407 0,0.03516 -0.363281,0.609375 -0.714844,0.9375 -0.363281,0.328125 -0.796875,0.585937 -1.359375,0.585937 z m 0,0"
         style="fill:#000000;fill-opacity:1;fill-rule:nonzero;stroke:none" />
      <path
         id="path66"
         d="m 93.752866,23.803974 c 0,-0.597656 -0.02344,-1.371094 -0.339844,-2.039063 -0.398438,-0.84375 -1.078125,-1.054687 -1.59375,-1.054687 -0.539063,0 -1.21875,0.210937 -1.617188,1.066406 -0.292968,0.621094 -0.328125,1.347656 -0.328125,2.027344 0,0.585937 0.01172,1.453125 0.398438,2.167969 0.421875,0.761718 1.125,0.902343 1.535156,0.902343 0.585938,0 1.242188,-0.257812 1.617188,-1.078125 0.269531,-0.597656 0.328125,-1.277343 0.328125,-1.992187 z m -1.933594,2.847656 c -0.269531,0 -0.914063,-0.128906 -1.089844,-1.136719 -0.09375,-0.539062 -0.09375,-1.300781 -0.09375,-1.816406 0,-0.609375 0,-1.3125 0.117188,-1.816406 0.175781,-0.796875 0.75,-0.949219 1.054687,-0.949219 0.339844,0 0.902344,0.175781 1.078125,1.007813 0.09375,0.492187 0.09375,1.195312 0.09375,1.757812 0,0.550781 0,1.3125 -0.09375,1.839844 -0.1875,1.019531 -0.84375,1.113281 -1.066406,1.113281 z M 105.7558,23.803974 c 0,-0.597656 -0.0234,-1.371094 -0.33985,-2.039063 -0.39844,-0.84375 -1.07812,-1.054687 -1.59375,-1.054687 -0.53906,0 -1.21875,0.210937 -1.61719,1.066406 -0.29296,0.621094 -0.32812,1.347656 -0.32812,2.027344 0,0.585937 0.0117,1.453125 0.39844,2.167969 0.42187,0.761718 1.125,0.902343 1.53515,0.902343 0.58594,0 1.24219,-0.257812 1.61719,-1.078125 0.26953,-0.597656 0.32813,-1.277343 0.32813,-1.992187 z m -1.9336,2.847656 c -0.26953,0 -0.91406,-0.128906 -1.08984,-1.136719 -0.0937,-0.539062 -0.0937,-1.300781 -0.0937,-1.816406 0,-0.609375 0,-1.3125 0.11719,-1.816406 0.17578,-0.796875 0.75,-0.949219 1.05468,-0.949219 0.33985,0 0.90235,0.175781 1.07813,1.007813 0.0937,0.492187 0.0937,1.195312 0.0937,1.757812 0,0.550781 0,1.3125 -0.0937,1.839844 -0.1875,1.019531 -0.84375,1.113281 -1.06641,1.113281 z m -22.069334,8.071289 c 0,-0.597656 -0.02344,-1.371094 -0.339844,-2.039062 -0.398438,-0.84375 -1.078125,-1.054688 -1.59375,-1.054688 -0.539063,0 -1.21875,0.210938 -1.617188,1.066406 -0.292968,0.621094 -0.328125,1.347657 -0.328125,2.027344 0,0.585938 0.01172,1.453125 0.398438,2.167969 0.421875,0.761719 1.125,0.902344 1.535156,0.902344 0.585938,0 1.242188,-0.257813 1.617188,-1.078125 0.269531,-0.597657 0.328125,-1.277344 0.328125,-1.992188 z m -1.933594,2.847656 c -0.269531,0 -0.914063,-0.128906 -1.089844,-1.136718 -0.09375,-0.539063 -0.09375,-1.300782 -0.09375,-1.816407 0,-0.609375 0,-1.3125 0.117188,-1.816406 0.175781,-0.796875 0.75,-0.949219 1.054687,-0.949219 0.339844,0 0.902344,0.175782 1.078125,1.007813 0.09375,0.492187 0.09375,1.195312 0.09375,1.757812 0,0.550782 0,1.3125 -0.09375,1.839844 -0.1875,1.019531 -0.84375,1.113281 -1.066406,1.113281 z m 0,0"
         style="fill:#000000;fill-opacity:1;fill-rule:nonzero;stroke:none" />
      <path
         id="path67"
         d="m 91.907162,35.156513 c -0.621093,-0.75 -0.667968,-0.808594 -0.972656,-1.03125 -0.527344,-0.375 -1.019531,-0.492188 -1.417969,-0.492188 -1.042968,0 -1.769531,0.960938 -1.769531,2.039063 0,1.03125 0.691406,2.015625 1.746094,2.015625 0.960937,0 1.734375,-0.679688 2.261719,-1.523438 0.632812,0.761719 0.679687,0.808594 0.984375,1.03125 0.527343,0.375 1.019531,0.492188 1.417968,0.492188 1.042969,0 1.769532,-0.960938 1.769532,-2.027344 0,-1.042969 -0.691407,-2.027344 -1.746094,-2.027344 -0.972656,0 -1.746094,0.679688 -2.273438,1.523438 z m 2.390625,2.074219 c -0.386718,0 -0.785156,-0.152344 -1.277343,-0.703125 -0.234375,-0.257813 -0.84375,-1.03125 -0.84375,-1.054688 0,-0.04687 0.363281,-0.609375 0.714843,-0.949219 0.363282,-0.328125 0.796875,-0.574218 1.347657,-0.574218 0.960937,0 1.464843,0.914062 1.464843,1.710937 0,0.84375 -0.609375,1.570313 -1.40625,1.570313 z m -4.875,0.152343 c -0.949218,0 -1.453125,-0.925781 -1.453125,-1.710937 0,-0.855469 0.609375,-1.582031 1.40625,-1.582031 0.386719,0 0.773438,0.152343 1.265625,0.703125 0.246094,0.269531 0.855469,1.03125 0.855469,1.066406 0,0.03516 -0.363281,0.609375 -0.714844,0.9375 -0.363281,0.328125 -0.796875,0.585937 -1.359375,0.585937 z m 0,0"
         style="fill:#000000;fill-opacity:1;fill-rule:nonzero;stroke:none" />
      <path
         id="path68"
         d="m 105.75287,34.722919 c 0,-0.597656 -0.0234,-1.371094 -0.33985,-2.039062 -0.39844,-0.84375 -1.07812,-1.054688 -1.59375,-1.054688 -0.53906,0 -1.21875,0.210938 -1.61719,1.066406 -0.29296,0.621094 -0.32812,1.347657 -0.32812,2.027344 0,0.585938 0.0117,1.453125 0.39844,2.167969 0.42187,0.761719 1.125,0.902344 1.53515,0.902344 0.58594,0 1.24219,-0.257813 1.61719,-1.078125 0.26953,-0.597657 0.32813,-1.277344 0.32813,-1.992188 z m -1.9336,2.847656 c -0.26953,0 -0.91406,-0.128906 -1.08984,-1.136718 -0.0937,-0.539063 -0.0937,-1.300782 -0.0937,-1.816407 0,-0.609375 0,-1.3125 0.11719,-1.816406 0.17578,-0.796875 0.75,-0.949219 1.05468,-0.949219 0.33985,0 0.90235,0.175782 1.07813,1.007813 0.0937,0.492187 0.0937,1.195312 0.0937,1.757812 0,0.550782 0,1.3125 -0.0937,1.839844 -0.1875,1.019531 -0.84375,1.113281 -1.06641,1.113281 z m -22.066404,8.074219 c 0,-0.597656 -0.02344,-1.371094 -0.339844,-2.039062 -0.398438,-0.84375 -1.078125,-1.054688 -1.59375,-1.054688 -0.539063,0 -1.21875,0.210938 -1.617188,1.066406 -0.292968,0.621094 -0.328125,1.347657 -0.328125,2.027344 0,0.585938 0.01172,1.453125 0.398438,2.167969 0.421875,0.761719 1.125,0.902344 1.535156,0.902344 0.585938,0 1.242188,-0.257813 1.617188,-1.078125 0.269531,-0.597657 0.328125,-1.277344 0.328125,-1.992188 z m -1.933594,2.847656 c -0.269531,0 -0.914063,-0.128906 -1.089844,-1.136718 -0.09375,-0.539063 -0.09375,-1.300782 -0.09375,-1.816407 0,-0.609375 0,-1.3125 0.117188,-1.816406 0.175781,-0.796875 0.75,-0.949219 1.054687,-0.949219 0.339844,0 0.902344,0.175782 1.078125,1.007813 0.09375,0.492187 0.09375,1.195312 0.09375,1.757812 0,0.550782 0,1.3125 -0.09375,1.839844 -0.1875,1.019531 -0.84375,1.113281 -1.066406,1.113281 z m 13.936523,-2.847656 c 0,-0.597656 -0.02344,-1.371094 -0.339843,-2.039062 -0.398438,-0.84375 -1.078125,-1.054688 -1.59375,-1.054688 -0.539063,0 -1.21875,0.210938 -1.617188,1.066406 -0.292969,0.621094 -0.328125,1.347657 -0.328125,2.027344 0,0.585938 0.01172,1.453125 0.398438,2.167969 0.421875,0.761719 1.125,0.902344 1.535156,0.902344 0.585937,0 1.242187,-0.257813 1.617187,-1.078125 0.269532,-0.597657 0.328125,-1.277344 0.328125,-1.992188 z m -1.933593,2.847656 c -0.269532,0 -0.914063,-0.128906 -1.089844,-1.136718 -0.09375,-0.539063 -0.09375,-1.300782 -0.09375,-1.816407 0,-0.609375 0,-1.3125 0.117187,-1.816406 0.175782,-0.796875 0.75,-0.949219 1.054688,-0.949219 0.339844,0 0.902344,0.175782 1.078125,1.007813 0.09375,0.492187 0.09375,1.195312 0.09375,1.757812 0,0.550782 0,1.3125 -0.09375,1.839844 -0.1875,1.019531 -0.84375,1.113281 -1.066406,1.113281 z m 0,0"
         style="fill:#000000;fill-opacity:1;fill-rule:nonzero;stroke:none" />
      <path
         id="path69"
         d="m 103.90716,46.078388 c -0.62109,-0.75 -0.66797,-0.808594 -0.97265,-1.03125 -0.52735,-0.375 -1.01954,-0.492188 -1.41797,-0.492188 -1.04297,0 -1.769534,0.960938 -1.769534,2.039063 0,1.03125 0.691404,2.015625 1.746094,2.015625 0.96094,0 1.73437,-0.679688 2.26172,-1.523438 0.63281,0.761719 0.67969,0.808594 0.98437,1.03125 0.52735,0.375 1.01953,0.492188 1.41797,0.492188 1.04297,0 1.76953,-0.960938 1.76953,-2.027344 0,-1.042969 -0.6914,-2.027344 -1.74609,-2.027344 -0.97266,0 -1.74609,0.679688 -2.27344,1.523438 z m 2.39063,2.074219 c -0.38672,0 -0.78516,-0.152344 -1.27735,-0.703125 -0.23437,-0.257813 -0.84375,-1.03125 -0.84375,-1.054688 0,-0.04687 0.36328,-0.609375 0.71485,-0.949219 0.36328,-0.328125 0.79687,-0.574218 1.34765,-0.574218 0.96094,0 1.46485,0.914062 1.46485,1.710937 0,0.84375 -0.60938,1.570313 -1.40625,1.570313 z m -4.875,0.152343 c -0.94922,0 -1.453128,-0.925781 -1.453128,-1.710937 0,-0.855469 0.609378,-1.582031 1.406248,-1.582031 0.38672,0 0.77344,0.152343 1.26563,0.703125 0.24609,0.269531 0.85547,1.03125 0.85547,1.066406 0,0.03516 -0.36329,0.609375 -0.71485,0.9375 -0.36328,0.328125 -0.79687,0.585937 -1.35937,0.585937 z m 0,0"
         style="fill:#000000;fill-opacity:1;fill-rule:nonzero;stroke:none" />
      <path
         id="path70"
         d="m 113.33197,35.581318 c 0.1875,0 0.23437,0 0.24609,-0.09375 v -0.351563 c 0,-5.484375 -0.97266,-8.683594 -1.25391,-9.597656 -0.60937,-1.992188 -1.60546,-4.089844 -3.10546,-5.929688 -0.12891,-0.164062 -0.16407,-0.210937 -0.19922,-0.222656 -0.0234,-0.01172 -0.0352,-0.02344 -0.17578,-0.02344 -0.12891,0 -0.21094,0 -0.21094,0.09375 0,0.01172 0,0.03516 0.11719,0.199218 3.1289,4.347657 3.82031,9.726563 3.83203,15.796875 0,0.128907 0.0586,0.128907 0.24609,0.128907 z m -0.50391,-0.231446 c -0.1875,0 -0.24609,0 -0.24609,0.117188 0,0.925781 -0.0117,3.058594 -0.2461,5.296875 -0.48047,4.628906 -1.67578,7.839844 -3.63281,10.59375 -0.0703,0.08203 -0.0703,0.09375 -0.0703,0.117187 0,0.09375 0.082,0.09375 0.21094,0.09375 0.14062,0 0.16406,0 0.17578,-0.02344 0.0352,-0.02344 1.18359,-1.335938 2.08593,-3.140625 1.1836,-2.367188 1.92188,-5.074219 2.26172,-8.34375 0.0234,-0.28125 0.21094,-2.144531 0.21094,-4.265625 v -0.351563 c -0.0117,-0.09375 -0.0586,-0.09375 -0.24609,-0.09375 z m 0,0"
         style="fill:#000000;fill-opacity:1;fill-rule:nonzero;stroke:none" />
    </g>
  </g>
</svg>
